<svg version="1.0" xmlns="http://www.w3.org/2000/svg" width="1450.667" height="2560" viewBox="0 0 1088 1920"><path d="M184.2 210.7c-1 .4-.8.8.5 1.8 1.7 1.2 1.6 1.4-1.2 2-5.8 1.3-11.7 5-15.2 9.5-6.5 8.4-12.3 13.8-17.2 16-5.5 2.5-9.1 7.6-9.1 12.9 0 3.7-6.9 17.1-8.8 17.1-1.5 0-.7 3.6 1.3 6 3.6 4.1 8.8 27.4 10 44 .3 4.7 1.1 11.4 1.7 15 .6 3.6 1 7.7.9 9.3-.1 1.5.6 4.1 1.4 5.8.9 1.6 1.5 3.8 1.4 4.7-.2.9 0 2.7.5 3.9.4 1.2.8 3 1 4 1.7 8.3 3.4 12 8.3 18.1 5.9 7.2 19.6 16.1 41.3 26.7 5.2 2.6 11.1 5.6 13 6.8 6.4 3.8 17.5 11.3 20.3 13.8 11.9 10.1 12.3 10.6 15.1 18.8 1.5 4.4 4.2 10.3 5.9 13 3.6 5.6 13.3 18.4 16.6 21.8 2.5 2.7 2.3 2.8-2.1.9-11.2-4.7-16.8-5.6-36.8-5.7-18.9-.2-26.3-1.6-35.1-6.9-6.3-3.9-9.7-5.1-8.4-3 .3.5.3 1-.1 1-1.6 0-15.4-7-15.4-7.8 0-.5-3.5-3-7.7-5.6-13.8-8.4-21.5-14.7-24.8-20.4-1-1.6-3.2-3.6-4.9-4.3-2.2-1-3.1-2.1-3.2-3.9 0-1.4-1.2-4.4-2.7-6.7-1.5-2.4-2.7-4.7-2.7-5.2s-.6-1.4-1.4-2c-.8-.7-1.7-2.3-2-3.6-1.7-6.7-24-35.5-27.5-35.5-1.6 0-8.9-7.8-9.7-10.2-1.3-4.2-4.4-5.9-9.9-5.3-2.7.2-6.8.6-9 .8-6.7.6-8.8 1.7-14.7 7.7-3.2 3.2-8.3 7.1-11.5 8.7-3.3 1.7-6.3 4-6.9 5.4-4.9 10.3-5.4 12.2-5.4 19.5 0 6.8.3 8.1 3 12.1 6 8.9 11.9 25.8 13.5 38.6 1.1 9 .9 16.5-.9 35.2-1.1 11.9-4.6 29.9-7.1 36.5-.7 1.9-1.7 7.8-2.2 13l-.9 9.5 5.1 5.2c6.1 6.1 18.3 16.4 23.9 20.2 2.3 1.4 6.8 3.5 10.1 4.5 8.6 2.6 17.8 6.8 21.2 9.7 6.2 5.2 13.9 17.6 23.9 38.4 1.5 3.3 3.1 6.2 3.4 6.5 1.2 1 8.2 18.3 8.7 21.6.4 2.4 0 4-1.6 5.9-1.9 2.5-1.9 2.9-.5 5.6 1.2 2.4 1.3 4 .5 8.7-.6 3.1-1 9.7-.9 14.5.1 8.1.3 9.1 3.4 14 5.4 8.4 6.6 11.6 6 15.6-.9 5.3.5 6.9 4.5 5.4 1.8-.7 3.4-1.1 3.6-.9.3.2-.1 2.3-.7 4.7-1.7 6.2.2 11.5 4.7 13.4 1.8.8 3.3 1.9 3.3 2.5 0 2.5 1.8-.2 2.4-3.7 3.1-17.4 3.8-22.6 3.7-28.1-.1-3.4.3-6.2.8-6.2 1.7 0 3 6.7 2.1 10.7-1.6 7.6-2 12.3-1.1 12.3.5 0 1.1-1.7 1.4-3.8.3-2 1-5.8 1.5-8.4.7-3.7.4-6.9-1.5-15.4-1.3-5.8-2.2-10.9-1.9-11.2 1-.9 3.9 2.3 5.7 6.2 1.3 2.9 1.6 5.4 1.2 8.8-.5 4.6-.4 5 3.1 8.3 3.7 3.5 8.2 4.7 8.4 2.2 0-.6.4-3.5.7-6.3.7-5 .7-5.2-2.2-6.6-2.9-1.4-2.9-1.4-2.5.9.2 1.3-.1 2.3-.7 2.3s-1.1.7-1.1 1.6c0 .8-.4 1.2-1 .9-.5-.3-1-.1-1 .6s-.3.9-.6.6c-.4-.4-.2-1.3.4-2 .7-.8.9-1.6.6-2-.3-.3-.7-3.8-.9-7.9-.4-7.4-.6-9-1.9-12-.4-.9-.5-2.1-.2-2.6s-.8-2.2-2.4-3.7c-1.7-1.6-3-3.4-3-4.1 0-.7-.5-1.6-1.1-2-.9-.5-1 .1-.5 2 1 4-1 2.3-2.4-2-.7-1.9-1.4-3.3-1.7-3-.3.3-1.4.1-2.5-.5-1.3-.7-1.6-1.4-1-2.2.5-.7 1.2-2.8 1.6-4.8.6-3.2.2-4.3-3.2-8.5-2.1-2.7-4.7-7.4-5.9-10.4-1.2-3-2.5-6.4-2.9-7.5-1-2.7 7.9 7.2 13.8 15.3 2.7 3.5 5.3 8.2 5.9 10.4 1.2 4.8 2.2 4.4 2.1-.9-.1-4.6-4-12.5-7.4-15.2-3.2-2.6-14.9-17.4-16.4-20.9-.6-1.5-2.1-3.8-3.3-5.1-1.1-1.3-2.1-3-2.1-3.7 0-.7-.9-3.1-2.1-5.3-1.1-2.2-2.3-5.5-2.6-7.3-.2-1.8-1.1-4.7-1.8-6.3-.7-1.7-2.1-5.2-3.1-8-.9-2.7-3.5-8.4-5.6-12.5-2.1-4.1-3.8-8-3.8-8.6 0-.6-.7-1.7-1.5-2.4s-1.5-2-1.5-3c0-2-6.1-9-7.8-9-.7 0-1.2-.9-1.2-1.9 0-1.9-8.8-10.1-10.8-10.1-.5 0-1.5-.6-2.1-1.4-.6-.7-4.8-1.9-9.4-2.6-13.8-2.2-19.3-5.7-21.8-14-.7-2.1-.9-5.3-.5-7.2.5-3 8.4-16.3 10.4-17.8.4-.3 1.3-2.1 1.9-4 .7-1.9 2.6-7.3 4.3-12 1.7-4.7 3.7-10.5 4.5-13 2-6 2.8-20.6 1.8-30.7l-.9-8.1 3.1 2c1.6 1.2 9 8.4 16.4 16 7.4 7.6 13.8 13.8 14.3 13.8s4.4 3.1 8.6 6.9c4.2 3.9 12 10.2 17.2 14.1 5.2 4 11.3 8.9 13.5 11 13.3 12.6 34 24.3 50.4 28.6 7.5 2 11.9 2.5 21.6 2.5 13.9.1 18.3 1.2 23.2 5.8 1.8 1.7 4.3 3.1 5.5 3.1 1.8 0 2.9 1.3 5.3 6.3 1.6 3.4 5.9 10.2 9.4 15 5.6 7.6 7.3 9.2 12.8 11.9 3.5 1.7 6.3 3.2 6.3 3.3 0 .1-1.4 3-3.1 6.5-3.1 6.1-3.2 6.4-2.6 17.4.7 12.8 1.6 16.2 8.6 31.1 2.9 6.1 5.8 12.3 6.6 14 .7 1.6 2.5 5.5 4 8.5 3.4 7.1 5.5 15.2 5.5 21.5 0 2.7.4 6.6 1 8.5 1.2 4.1 1.5 26.9.5 32.4-.4 2.1-1.7 6.2-2.7 9-1.1 2.8-2.1 5.9-2.2 6.9-.3 2.8-7.1 8.5-11.4 9.6-2 .6-8.1 2.2-13.5 3.6-5.5 1.5-13.9 4.7-19.5 7.5-5.3 2.8-10.5 5-11.4 5-1.8 0-19.9 10-26.5 14.7-5.4 3.8-23 17.2-25.7 19.5-13.8 12.2-68.6 68.3-68.6 70.3 0 .7-.7 1.8-1.6 2.6-.9.7-4.4 5.7-7.9 11-3.5 5.4-7 10.1-7.8 10.6-.7.4-2.5 3-3.8 5.8-3.2 6.7-10.3 13.6-16.1 15.8-2.6 1-4.9 2.6-5.2 3.5-.9 2.9-1 20.6-.1 23.2.4 1.4 1.4 3.2 2.1 4.1.8.9 1.8 4.9 2.2 9 .6 5.9 1.1 7.6 2.7 8.4 3.3 1.7 11.4 10.4 13.4 14.3 1.1 2 3 4.8 4.4 6.1 1.5 1.3 2.3 2.9 2 3.8-.3.8-.2 1.8.3 2.2.5.3 2.6 2.7 4.7 5.4 4 4.9 5.7 5.8 5.7 3.1 0-1.3.3-1.4 1.5-.4.8.6 1.7 2.2 2.1 3.3.4 1.2 3.9 5.7 7.8 9.9s8.5 10.3 10.1 13.5c1.7 3.2 4.2 7.8 5.6 10.3 1.4 2.5 2.8 5.4 3.1 6.5.4 1.1 2.1 5.6 3.8 10 1.7 4.4 3.3 8.7 3.4 9.5.1.8.5 2.2.8 3 2.6 6.4 6.9 21 7.3 24.8.2 2.6 1.4 8.7 2.6 13.7 3.4 14.5 5.4 38.8 5.4 65.5v12.5l-3.5 5c-1.9 2.7-3.9 5.3-4.5 5.7-.5.4-.6.8-.1.8s1.8-.7 2.8-1.7c1.1-.9 1.8-1.1 1.8-.5 0 .7-.3 1.2-.7 1.2-.5 0-1.9.9-3.2 1.9-1.6 1.3-2.1 2.3-1.5 3.2 1.6 2.7 1.3 8.3-.6 11.7-2.6 4.3-2.5 6.6.2 8.4 2.2 1.4 2.2 1.6.5 4.1-2.2 3.3-2.2 9.5 0 16.4 1.7 5.3 1.4 8.9-1.2 16.8-.5 1.6.3 2.7 3.4 5 3.2 2.4 3.8 3.5 3.5 5.5-.4 1.7.2 3.2 1.6 4.7 2.3 2.5 5.2 3.1 4.4.9-.3-.8-.1-1.7.5-2.1 1.1-.6 1.5.7 1.1 3.4-.1 1 .6 1.2 2.3.7 2.3-.5 2.6-.3 3.2 3.7.9 4.8 1.8 5.7 6.3 5.7 2.1 0 3.2-.5 3.2-1.5 0-.9-.6-1.2-1.5-.9-2 .8-4.5-1.3-4.5-3.7 0-3 1.9-3.2 3.1-.2l1.1 2.8 1-2.8c.6-1.6 1.7-2.7 2.8-2.7 4.1 0 6.8-2.2 8-6.6 1.4-5 .8-8.7-2-11.7-3.1-3.3-3.3-1.4-.4 4.1 2 3.9 2.4 5.4 1.5 6.9-.9 1.6-1 1.5-1.1-1.1 0-2.1-.4-2.7-1.6-2.2-.9.3-1.7.6-2 .6-.2 0 .1 1.2.6 2.6 1.2 3.1 1.2 3.4.2 3.4-.8 0-2.4-3.3-6.1-13-2.1-5.4-2.6-8.1-2.5-15.5.1-7.3 0-8.1-.6-4.4-.5 2.6-1.3 5.6-1.9 6.7-1.2 2.3-.5 9.3 1.4 13.7.7 1.6 1.6 4.9 1.9 7.2.5 3.7.4 4.3-1.2 4.3-1 0-2.2.4-2.7.9-.6.4-2.2 1.1-3.7 1.5-2.4.6-2.8.3-2.8-1.6 0-1.3.5-4.1 1.1-6.3 2.3-8.7 3.5-17.2 2.8-19.7-1.6-6.2-2.1-14.9-.9-16.3 1.2-1.5.6-3.5-.6-2.2-.7.7-2.3 6.8-3.2 12.2l-.7 4-1.7-4.5c-2.1-5.3-2.4-8.6-1.4-12 .8-2.5.8-2.5-2.2.5l-3.1 3 1.4 6.5c1.2 5.8 1.2 12.9-.2 17-.9 2.8-3.3-2.1-3.3-6.7 0-2.4-.9-7.1-2.1-10.5-2-6-1.9-10.8.2-10.8.6 0 .7-.5.4-1.1-.4-.5 1.4-3 3.9-5.4 3.2-3.2 5-5.9 6.1-9.6 1.7-6 2-10.3.5-9.4-.6.4-.8 1-.5 1.5.7 1.1-2.3 9-4.1 11-1 1-1.4 1.1-1.4.2 0-.8-.5-1-1.2-.6-.8.5-.9.2-.3-1.2.4-1 .9-3.7 1.1-5.9.2-2.2.6-4.6.9-5.3.3-.7 0-1-.5-.7-2 1.2-.9-1.7 1.9-5.3 1.8-2.4 2.9-4.9 2.9-7.1.1-1.9.5-3.7 1-4 .5-.3 1.1-2.8 1.4-5.4.5-3.8.3-4.7-.8-4.3-1.4.5-1.9-.5-.8-1.7.3-.3.6-3.6.6-7.4-.1-3.7-.1-12.1-.2-18.6-.1-11.5.3-14.3 2-13.2.5.3 1.2.1 1.5-.5.4-.6.1-.9-.7-.8-.8.2-1.2-.6-1-2.2.1-1.9 0-2.1-.7-1-1.5 2.3-2.5-1.3-1.4-4.7.6-1.8.5-4.7-.3-8.3-.8-3.9-1.2-4.7-1.3-2.6-.1 2.2-.4 2.7-1.2 1.9-1-1-1.1-5.6-.8-34.3 0-2.5-.2-7.8-.5-11.9-.3-4.6-.1-8.2.6-9.5.7-1.2 1.3-3 1.4-4.1.1-1.1.7-4 1.4-6.5 1.6-6.4 1.5-11.5-.4-14.1-.9-1.3-1.6-3.7-1.6-5.4 0-3.1-1.3-5.9-2.7-6.1-.4 0-1.9-.5-3.2-1.1l-2.5-1 2.3-.6c3.8-.9 1.9-3.2-2.4-3-3.7.3-3.8.2-2-1.7 1.4-1.6 1.6-2.3.7-3.2-.7-.7-1.2-2.1-1.2-3.2s-1.6-3.6-3.5-5.5c-2-2-4.6-4.7-5.8-5.9-1.2-1.3-4.1-3.2-6.4-4.3-2.3-1-4.6-2.5-5-3.2-.4-.7-2.1-2.1-3.6-3-2.3-1.5-2.6-2.1-1.6-3.3.9-1.1.9-1.8.1-2.6-.6-.6-.8-1.6-.6-2.3.3-.7-.2-1.5-1-1.8-1.2-.5-1.5 0-1.2 2.3.5 4.6-1.6 3.6-4.2-2-1.2-2.7-3.1-5.5-4.1-6.2-1-.7-1.9-1.8-2-2.3 0-.6-1.9-1-4.1-.9-2.7 0-4-.4-4-1.3 0-.7-.9-1.3-1.9-1.3-3.2 0-7.4-4.5-6.6-7 .4-1.4 1.2-1.9 2.3-1.6.9.3 2.4.1 3.2-.4 1.2-.8 1.2-1-.5-1.1h-2l2-.9c1.7-.7 1.7-.9.2-.9-.9-.1-1.6-.6-1.5-1.3.2-.6-.8-1.4-2.2-1.8-2.4-.6-2.5-1-2.5-8.1-.1-9 .2-10.2 2.7-9.6 2.4.7 7-1.7 8-4 .3-1 .7-3.1.7-4.6.1-1.5.8-3 1.6-3.3.8-.4 1.5-1.2 1.5-1.9 0-2 2.3-2.4 3.8-.6 1.1 1.4 1.2 1.3 1-.9-.2-1.9.2-2.6 2-2.8 1.4-.2 2.2-1 2.2-2.3 0-1 .5-1.9 1-1.9.6 0 1-.6 1-1.4 0-.8 1.4-1.9 3-2.5 3.6-1.2 5.8-3.2 5.3-4.7-.2-.7.3-1.9 1.2-2.7.8-.9 1.5-2.5 1.5-3.6 0-1.5.6-2 2.1-1.8 2.8.3 3.5-1.6 1.4-3.7-.9-.9-1.2-1.6-.6-1.6s1.1-.9 1.1-1.9c0-1.1.7-2.6 1.5-3.5.8-.8 1.5-2.2 1.5-3 0-.9.7-1.6 1.5-1.6 1.3 0 1.4.4.5 2-.9 1.6-.8 2 .6 2 1.2 0 1.5.6 1 2.6-1 4 1.1 2 3.4-3.3 2.1-4.7 2-7.3-.1-7.3-.6 0-.9.7-.6 1.4.4 1 .1 1.3-.9.9-1.7-.6-1.9-4.4-.2-4 .7.1 1.5-1.8 2.1-5 .7-4.2 1.2-5.2 3-5.5 1.6-.2 2.1-.9 1.9-2.4-.3-2.2 2.5-4.1 6.8-4.6 1.9-.2 2.4-.8 2.2-2.3-.2-1.1-.9-2.3-1.5-2.7-.7-.5-.4-.8.9-.8 1.2 0 2.5-1 3.2-2.5.6-1.4 2-2.5 2.9-2.6 1.1 0 1.3-.2.5-.6-1.8-.7.4-3.3 2.9-3.3 1.1 0 1.9-.6 1.9-1.3 0-.8 1-2.2 2.1-3.3 1.2-1 3.6-4.2 5.4-6.9 1.8-2.8 4.6-6.5 6.3-8.4 1.7-1.8 2.8-3.9 2.5-4.7-.3-.8.1-1.4 1.1-1.4.8 0 2-1 2.7-2.1.9-1.8 1.7-2 5.2-1.5 2.7.4 3.7.3 2.8-.3-1.1-.7-.9-1 .8-1.6 1.1-.3 2.6-.3 3.3.1.8.5.9.2.5-1-.4-1.1-.3-1.5.4-1.1.5.4 2-.4 3.3-1.7 1.2-1.2 3.9-3.6 5.9-5.2 3.1-2.4 3.5-3.2 2.5-4.5-.7-.9-.9-1.3-.4-.9.8.7 4.6-2.6 4.6-4.2 0-.5.8-1.4 1.8-1.9 1.2-.8 1.4-1.3.5-1.9-1.5-.9-.5-2.5 2.4-4.1 2.6-1.3 5.7-1.5 4.9-.2-.3.5.4 1.1 1.6 1.4 2.7.7 3.8 0 1.4-.9-1.5-.6-1.5-.7.1-2.1 1-.8 1.2-1.1.4-.7-.9.5-1.2.3-.7-.4 1-1.7 2.4-1.5 5.2.7 1.9 1.5 3.2 1.7 5.8 1.1 3.9-.9 5.6-1.8 5.6-3 0-.5-1.6-.2-3.5.6-2.8 1.1-3.9 1.2-5.5.2-2.4-1.5-3.5-3.9-1.4-3.1.7.3 1.4.1 1.4-.4s.6-1 1.3-1.1c.6 0 2.8-.4 4.8-.7 2.9-.6 3.7-.4 4.5 1.3.9 2 .9 2 7.6-.1 3.8-1.2 7.6-2.9 8.6-3.7 2.6-2.1 4.2-2.3 4.2-.4 0 1.2.6 1.1 2.9-.8 1.6-1.3 3.4-3.3 4-4.6.9-1.9.8-2.2-.8-2.2-1.1 0-2.1.4-2.3.9-.1.5-2 .6-4.1.2-3.6-.6-3.7-.7-2.3-2.6 1.3-1.6 1.7-1.7 2.5-.6.6 1 2.1 1.2 5.6.7 3.3-.5 4.5-.4 4 .3-1 1.7 2.1 1.3 3.5-.4.7-.8 2.1-1.5 3.1-1.5 2.7 0 2.4-2-.3-2.2-3.4-.2-4.4-.1-7.5.6-2.4.6-2.6.5-1.3-.7 1.7-1.5 12.6-4.7 16.4-4.7 2.8 0 4.3 1.5 2.4 2.3-.7.3.4.6 2.5.6 2 .1 3.7.6 3.7 1.2s1.1.8 2.8.5c7.3-1.6 25.5-.6 26.8 1.5 1 1.8 5.1 1 5.7-1.1.4-1.5-.2-2.4-2.1-3.4-1.5-.7-3.3-1.1-4-.9-.7.3-1.8 0-2.5-.5s-2.5-1-4.1-1c-1.6 0-3.2-.6-3.7-1.4-.6-1.1-3-1.4-9.9-1.3-7.5 0-8.8-.2-7.3-1.2.9-.7 3.3-1.3 5.2-1.3 2.3 0 3.1-.3 2.3-.8-1.5-1 8.9-8.2 11.7-8.2.9 0 2.1-.4 2.7-.9.5-.5 1.9-.4 3.4.2l2.5 1.1-2.9.4c-2.5.3-2.8.7-2.4 3.3.4 2.5.2 2.9-1.6 2.4-1.2-.3-1.5-.2-.8.1.6.3 1.2 1.2 1.2 2 0 1.2-.5 1.2-3.4 0-1.8-.7-4.6-1.1-6.2-.8-2.6.5-2.4.6 2.6 2.3 7.7 2.6 9.8 2.4 11-.7.8-1.9.6-2.9-.5-4.1-.9-.8-1.3-1.8-1-2.2.4-.3 1.7.7 3 2.2 2.6 3.4 5.8 3.3 6.3-.1.2-1.6.8-2.2 1.8-1.8.8.3 1.4.1 1.4-.5 0-.5 1.4-1.5 3.2-2.1l3.1-1.1-2.3-1.9c-1.7-1.4-2-2.2-1.2-3 .8-.8 1.3-.7 1.8.5.8 2.1 4.4 2.2 4.4.2 0-2.6-4.8-3-7.4-.6-2.3 2.2-4.6 2.8-4.6 1.1 0-.5 1.3-1.6 3-2.5 3-1.5 3.2-3.8.4-4.9-2.2-.8-1.7-2.3 1.1-3 1.4-.4 2.4-1.3 2.3-2-.4-1.6 9.1-12.6 10.8-12.6.7 0 1.6-.5 2-1.2.5-.7.2-.9-.7-.4-.8.4-.6.1.4-.7.9-.8 1.7-1.9 1.7-2.5 0-1.5 4-8.2 5-8.2.4 0 1.6-1.7 2.5-3.7 1-2 2.5-4.5 3.5-5.5.9-1 3-4.4 4.6-7.4 1.6-3.1 3.5-5.9 4.2-6.1.6-.3 1.2-1.1 1.2-1.8 0-.6 1.1-2.5 2.5-4.1 4.3-4.9 8.7-15.5 11.5-27.4 2.3-10 2.3-10 .6-10-1.2 0-1.4-.4-.7-1.8 1.5-3 3.2-10.5 3.7-16.7.3-3.3.7-6.9.8-8 .2-1.1-.5-3.2-1.5-4.7-1.1-1.5-1.9-4.4-2-7 0-2.3-.4-6.3-.8-8.8-.7-3.8-.9-2.8-1.1 6-.1 5.8-.2 10.8-.1 11.2.4 2.9-12.1-4.5-16.2-9.6-4.4-5.3-6.4-9.7-7.2-15.9-.3-2.6-1-4.7-1.4-4.7-1.4 0-2-8-1.1-13.7.5-3 2.1-7.8 3.5-10.8 1.4-3 2.5-6.1 2.5-6.9 0-2.5 2-1.9 2.1.6 0 1.8.3 1.5 1.3-1.2 1.3-3.7.7-7.9-1.9-13-3.6-6.9-22.8-30-24.9-30-.6 0-2.4-1.3-4.1-2.9-13.5-13.1-44.8-26.3-71.2-30.1-10-1.5-13.3-.8-4.3.8 29.6 5.5 49.5 15.2 64.7 31.7 9 9.7 15.7 19.8 23.5 35.5 2.8 5.9 3.2 7.4 3.2 15.5 0 11.9-3.4 28.3-5.5 26.9-.5-.3-.7-1.4-.4-2.5.4-1.1.2-1.9-.4-1.9-.6 0-1.1.9-1.1 1.9 0 3.5-1.8 3.2-3.6-.5-2-4.3-2.5-8.1-1.2-10.7.6-1.1.6-2.3 0-3-.5-.7-1.3-3.2-1.6-5.7-.7-5.3-3.1-8.4-4.6-6-.8 1.3-1 1.2-1-.3 0-.9-.7-1.7-1.5-1.7-1.7 0-2 1.6-.5 2.5 1.4.9.8 9.5-.7 9.5-.6 0-1.5-1.4-1.8-3.1-.5-2.3-.9-2.8-1.6-1.8-1.3 2.1-4.2-.1-5-3.7-1-4.4-4.4-11.4-7.8-16.2-1.7-2.3-3.1-4.5-3.1-4.9-.1-.5-1.4-2.3-3-4.2-1.6-1.9-2.8-3.7-2.6-4 .2-.3-.6-.7-1.8-.7-1.2-.1-3.6-1.6-5.3-3.3-1.7-1.7-3.8-3.1-4.6-3.1-.9 0-3.5-1.5-5.9-3.3-2.4-1.8-6.2-4.2-8.4-5.4-2.3-1.2-6.3-4.4-8.9-7.2-2.6-2.8-5.6-5.1-6.6-5.1s-2.2-.6-2.6-1.4c-.4-.7-1.8-1.8-3-2.5-1.2-.6-2.5-2.1-2.9-3.3-1.2-3.9-8.8-13.7-10.6-13.8-2.3 0-2.3 1.6.2 4.7 1.1 1.4 2 3.4 2 4.3 0 1 1.4 4.9 3.2 8.7 3.6 7.9 4.4 11.3 2.6 11.3-.9 0-1 .3-.2.8.6.4 1.4 1.4 1.7 2.2.3.9.6.6.6-.9.1-2.3.3-2.2 2.9 1.5 1.6 2.1 3.2 4.7 3.5 5.7.5 1.5.2 1.6-2.1 1.1-3.1-.8-8.2-5.1-8.2-7.1 0-.7-.5-1.3-1.2-1.3-.9 0-.9-.3 0-1.2 1.8-1.8 1.6-5.9-.3-5.2-.9.4-1.5 0-1.5-1 0-.9-.7-1.6-1.6-1.6-.9 0-2.5-.9-3.4-2-1-1.2-2.2-1.9-2.6-1.8-.5.2-3.3-2-6.2-4.7-3.6-3.4-5.2-5.6-4.8-6.8.2-1-.2-3.5-1.1-5.5-1-2.4-1.3-5.1-.9-7.9.3-2.4.1-5.5-.6-7-.6-1.6-1.4-4.4-1.7-6.3-.5-3-1.1-3.5-4.1-4.1-5.2-.9-21.4-6.8-21.8-7.9-.2-.5-2.3-1.8-4.6-2.9-2.9-1.2-4.5-2.7-4.9-4.3-.4-1.4-1.9-3-3.4-3.7-5.1-2.3-12.3-7.4-12.3-8.7 0-.6-1.2-1.7-2.7-2.3-3.8-1.5-12.3-6.9-17-10.8-2.2-1.8-5.4-6.2-7.3-9.9-1.9-3.7-4.1-6.9-4.7-7.1-.7-.3-1.3-1.3-1.3-2.3 0-1.1-.4-2.1-.9-2.4-1-.7-2.1-6.6-1.1-6.6.3 0 1.2 2.1 1.9 4.7 1.1 4.3 1.4 4.6 2.5 3 1.2-1.5 1.5-1.1 3 4 .9 3.2 2.3 6.9 3.1 8.3l1.4 2.5.1-2.8c0-4 1.4-2.6 5.1 5.1 1.7 3.7 3.4 6.1 3.7 5.4.2-.8-.1-1.9-.7-2.5-1.4-1.4-1.5-5 0-4.2 1.1.8-.9-3.2-2.8-5.2-.6-.7-1.7-3.5-2.4-6.3-.7-2.7-1.6-5-2.1-5-.4 0-.5-.7-.2-1.5.4-.8.2-1.5-.3-1.5-.6 0-1.5-1.9-2.2-4.3-.7-2.3-2.9-7.8-4.9-12.2-2.4-5.3-3.5-9.3-3.4-12 .1-2.9-.1-3.5-.7-2-1.6 3.8-3-7.5-3.5-28.5-.6-19.6-1.5-27.5-3.9-33-1-2.3-1.2-2-1.7 3-.3 3.3-.8 5-1.3 4.2-1.3-1.9-2.5-1.4-3.5 1.5l-1 2.8-.1-3.5c-.1-1.9-1.5-6.8-3.1-10.9-3.9-9.4-3.9-14.2-.3-17.1 1.8-1.4 3-1.7 3.6-1.1.7.7 2.1.4 4.4-1 1.8-1.1 4.5-1.9 6-1.7 2.4.3 2.8.7 2.5 3.2-.3 1.8 0 2.6.7 2.2.6-.4 1.1-1.5 1.1-2.5 0-1.5 1-1.9 5-2.3 6-.6 6.8-1.2 4.8-3.5-.9-1-2.3-4.2-3.2-7-1.7-5-1.7-5.4 0-8.2 2.1-3.6 9.6-7.1 15.8-7.4l4.3-.2-2.5-3.3c-2.5-3.3-2.8-3.4-5-2.5zM83 365.5c.7.8 1.8 1.5 2.4 1.5 2.2.1 13.7 11.8 19.6 20 3.3 4.6 6 8.6 6 9 0 .4 1.6 2.7 3.5 5.1 1.9 2.4 3.5 4.7 3.5 5.2 0 .4 1.8 3.3 3.9 6.5 2.2 3.1 3.7 6 3.4 6.5-.3.5.3 1.5 1.3 2.2 1.1.9 1.4 1.4.6 1.5-2.1 0 2.4 7 7.8 12.1 2.7 2.5 4.7 4.9 4.3 5.3-.3.3 0 .6.7.6.8 0 2.5 1.1 3.9 2.4 5.6 5.2 25.5 18.7 33.3 22.5 18.5 9.1 40.9 16.1 47.6 14.8 1.5-.3 4.9 0 7.6.6 3.8.9 5.1.8 5.4-.1 1-3.1 19.6-.2 25.9 4 2.5 1.7 4.1 3.3 3.6 3.7-.4.3-.8 1.2-.8 1.8 0 .7-.4 1.3-1 1.4-4.4.4-6.1 5.4-2.5 7.7 2.1 1.3 2.8 4.2 1 4.2-.5 0-1-.5-1-1 0-.6-.6-1-1.3-1-2 0-3.8-2.2-2.7-3.5.6-.7-.4-1.1-3.3-1.1-2.3-.1-5.5-.5-7-.9s-2.7-.4-2.6.1c.1.5.1 2 0 3.3-.1 2.2-.3 2.3-5.8 1.7-3.2-.4-8.2-1.2-11.1-1.7-4-.8-5.7-.8-6.7.1-1.2 1-1.6.9-2.1-.4-.4-1.1-1.9-1.6-4.9-1.6-2.4 0-4.6-.4-4.9-.9-.4-.6 3.1-.7 8.4-.4 4.9.2 9 .2 9 0 0-1.4-1.3-3.7-2.2-3.7-.5 0-.6.5-.2 1.1.5.8-.5 1-3.2.5-5.4-.8-5.4-.8-9.6 0-3.3.6-3.8.4-3.9-1.2-.1-1.8-.2-1.8-.6-.1-.4 1.5-1.1 1.7-3.1 1.2-1.5-.4-3.4-1.3-4.3-2.1-.8-.8-2.4-1.4-3.4-1.4s-2.4-.8-3.2-1.8c-1-1.2-1.6-1.4-1.9-.5-1 2.2-3.8 1.4-5.9-1.6-1.4-2.2-2.3-2.7-3.5-2.1-2 1.1-16.2-5.9-20.2-9.8-5.3-5.4-8.7-8.2-9.7-8.2-.6 0-1.1-.6-1.1-1.4 0-.7-.9-1.6-2-1.9-1.1-.3-2.8-1.9-3.7-3.6-1-1.7-2.6-3.4-3.5-3.7-1-.3-1.7-.8-1.6-1.2.3-.9-4.4-5.9-8-8.6-1.6-1.1-5.1-4.8-7.7-8.1-2.7-3.3-5.4-6.4-6.2-6.8-.7-.4-1.3-1.3-1.3-1.8 0-.6-.6-1.6-1.2-2.3-.7-.7-3.1-3.4-5.3-6.1-4.8-5.6-6.4-7.3-9.6-10.1-1.3-1.1-4.4-4.3-6.8-7.1-4.3-5.1-6.9-6.7-10.3-6.4-.9.1-3.9-.4-6.5-1.2-2.9-.9-6.5-1.2-9.2-.8l-4.3.6 2.2 2c3.2 2.9 5 6.9 5 11 0 7 3.1 18.9 5.5 21.5 1.3 1.4 2.8 4.5 3.4 7 1.4 5.9 1.4 6-.4 6-1.1 0-1.3 1.3-1 6.4.4 5.6.2 6.6-1.4 7.1-1.2.4-2.2 2.3-3 6.3-.7 3.1-2 7-2.8 8.7-.8 1.6-1.6 3.8-1.8 4.7-.2.9-1 2.9-1.9 4.5-2.6 4.8-1.9-.2 1.5-11 2.6-8.3 2.9-10 1.7-11.4-.8-1.1-.9-1.4-.1-1 1.3.8 1.8-.7 2.6-7.1.2-2.2-.1-3.2-1-3.2-.7 0-1.3-1-1.3-2.1 0-1.7.3-1.9 1.3-1 1.2.9 1.3.2 1-4.2-.2-3.4-.9-5.6-2-6.5-.9-.6-1.9-2.4-2.1-4-.7-6-8.8-18.2-11.1-16.7-.5.2-1.4-.7-2.2-2.1-.7-1.4-2.5-3.4-4-4.5C50.5 405.2 42 390.4 42 388c0-.6.9-1.9 2.1-3.1 2.7-2.7 1.8-3.4-2-1.4-2.9 1.4-3.1 1.4-2.8-.2.4-3 1.8-4.5 3.7-4 .9.2 2.8-.2 4.1-.9 1.3-.7 3.5-1.3 4.7-1.4 1.3 0 3.7-.8 5.2-1.7 2.8-1.6 3-1.6 6.7 1 3.8 2.7 8.3 3.6 8.3 1.8 0-.5.9-1.3 2-1.6 3.1-1 1.3-2.5-2-1.8-1.9.3-3 .1-3-.5 0-.7-1.4-1.9-3.1-2.8l-3.1-1.6 2.3-1.6c2.6-1.8 10.1-4 14-4.1 1.5-.1 3.2.6 3.9 1.4zm92.8 2c-.3.3-.9-.2-1.2-1.2-.6-1.4-.5-1.5.5-.6.7.7 1 1.5.7 1.8zm-86.4 33.7c-.3.5-1.2.4-2-.3-1.9-1.6-1.8-1.8.6-1.2 1.1.3 1.7.9 1.4 1.5zM36.5 407c.3.5.1 1-.4 1-.6 0-1.1-.5-1.1-1 0-.6.2-1 .4-1 .3 0 .8.4 1.1 1zm234 65.5c1.6 1.3 2.7 2.6 2.5 2.8-1 .9-4.9-1.3-6-3.2-1.4-2.7-.2-2.6 3.5.4zM62.8 495c-.7 1-1.4 1.7-1.7 1.5-.4-.4 1.8-3.5 2.5-3.5.2 0-.1.9-.8 2zm-3.7 5.3c-1 .9-1.1.8-.5-.6.3-1 .9-1.5 1.2-1.2.3.3 0 1.1-.7 1.8zm191.4-1.3c.3.5.1 1-.4 1-.6 0-1.1-.5-1.1-1 0-.6.2-1 .4-1 .3 0 .8.4 1.1 1zM56.6 521.4c.6 1.3.8 3 .4 3.6-.9 1.4-1.5.6-2.4-3.3-.8-3.3.5-3.5 2-.3zm303.9 8.6c-.6.9-.9.9-1.6-.1-1-1.7 0-3.4 1.3-2.1.6.6.7 1.6.3 2.2zM47.4 542.5l.7 7-2.1-2.4c-1.1-1.3-2-3.4-2-4.8 0-1.3-.5-3.3-1.1-4.4-.8-1.5-.7-2.4.2-3.5 2.1-2.5 3.6.4 4.3 8.1zm313.1-6.3c0 1.3-.4 2.9-.9 3.7-.6.9-.4 1.8.7 2.6 1.9 1.3 2.4 9.5.7 9.5-1.3 0-3.7-4.8-4.5-9.3-.7-3.4-.5-3.7 1.6-3.7 2.3-.1 2.3-.1.6-1.4-1.8-1.4-1.8-1.5 0-2.5 1-.6 1.8-1.1 1.8-1.1.1 0 .1 1 0 2.2zm-4.5.8c0 1.3-.7 2-1.9 2-2.2 0-3.5-1.5-2.6-3 1.2-1.9 4.5-1.1 4.5 1zm-272.5 2.4c1.9.8 4.2 2.1 4.9 2.8.7.8 4.3 3.8 7.9 6.7 3.7 3 6.9 6.2 7.2 7 .3.9 1.8 2.4 3.4 3.4 2.7 1.6 9.1 10 9.1 11.9 0 1.5-1.5.8-2.8-1.2-.7-1.1-1.9-2-2.7-2-.8 0-1.5-.7-1.5-1.5s-.8-1.5-1.7-1.5c-1 0-2.7-1.4-3.8-3-1.1-1.6-2.4-3-3-3-.5 0-2.6-1.6-4.5-3.5s-4-3.5-4.7-3.5c-.8 0-2.6-1.2-4-2.6-1.8-1.8-3.2-2.4-4.9-2-2.3.6-5.4-1.5-5.4-3.8 0-.6-1.3-2-3-2.9-1.6-1-3-2.4-3-3.1 0-1.6 6.7-.6 12.5 1.8zm282.2 14.2c-.3.3-1.2.4-1.9.1-.8-.3-.5-.6.6-.6 1.1-.1 1.7.2 1.3.5zm-5.2 6.3c2.4 1.4 3.7 1.5 6 .8 1.7-.6 3.3-1.5 3.7-2.1.6-.8.8-.8.8 0 0 2.1-5.2 12.9-6.6 13.7-1.8 1-2.9 9.5-3.3 26.5-.1 1.9-.5 2.1-2.5 1.6-4.5-1.1-7.6 2.5-8 9.5-.1 1.6-3.8 1.7-14.6.8-9.6-.9-9.2-.6-13.9-10.2-4.5-9.1-2.1-23.8 5.3-33 1.8-2.2 3.5-4.8 3.9-5.8.4-.9 1.5-2 2.4-2.3 1-.3 2.5-1 3.3-1.5 2.4-1.5 20 0 23.5 2zm5-.9c.3.5-.1 1-1 1s-1.3-.5-1-1c.3-.6.8-1 1-1 .2 0 .7.4 1 1zM83 560c0 .5-.4 1-.9 1-.6 0-1.3-.5-1.6-1-.3-.6.1-1 .9-1 .9 0 1.6.4 1.6 1zm237 5.1c0 .3-1.2 2.4-2.6 4.5-1.5 2.1-3.5 5.8-4.5 8.1-1 2.4-2.5 4.3-3.3 4.3-4.3 0-6.1 11.4-3.4 21.5 1.4 5.2.3 6.9-3.9 6.2-2.9-.5-2.9-.4.2 4.1 1.4 2 2.5 4.1 2.5 4.6 0 1.4-8.8-8.3-10.4-11.4-2.5-4.8-4.6-16.4-4.3-24.1.3-6.9.7-8 3.7-11.7 1.8-2.3 3.4-4.2 3.4-4.2.1 0 1.9-.7 4.1-1.5 4-1.4 18.5-1.8 18.5-.4zm47.5 27.5c0 8.1-.9 11.3-1.6 5.6-.6-3.9.2-15.5.9-14.7.4.3.7 4.4.7 9.1zM338 618c0 1.7-1.5 1.1-2.8-1.1-1.2-1.9-1.1-1.9.8-.9 1.1.6 2 1.5 2 2zm4 3.5c.7.8.8 1.5.2 1.5-.5 0-1.5-.7-2.2-1.5-.7-.8-.8-1.5-.2-1.5.5 0 1.5.7 2.2 1.5zm65.4 1c-.4.8-1.1 1.5-1.6 1.5-.6 0-.5-.6.2-1.5.7-.8 1.4-1.5 1.6-1.5.2 0 .1.7-.2 1.5zm-271.2 6c.2 1.6-.1 3.2-.7 3.5-.6.3-1.1-1.4-1.2-3.9-.2-4.8 1.3-4.5 1.9.4zm267.8 5.4c0 1-.7 2.4-1.5 3.1-1.2 1-1.5 1-1.5-.3 0-2.3 1.1-4.7 2.1-4.7.5 0 .9.8.9 1.9zm-263.4 7c-.4.5-.1 1.1.5 1.3.5.2.7 1.1.4 2.1-.6 1.5-.9 1.4-2.6-.7-2.4-3.1-2.4-3.6.2-3.6 1.1 0 1.8.4 1.5.9zm7 7.6c1.5 2 2.4 4.1 2 5.1-.8 2.2-2.6.7-2.6-2.2 0-1.4-.3-2.3-.7-2.1-.5.3-1.4-.1-2.1-.9-.7-.8-.9-1.4-.5-1.4s.1-.5-.7-1c-1.3-.8-1.3-1 .2-1 .9 0 2.9 1.6 4.4 3.5zm-12.6 8.4c0 2.1-1.3 4.1-2.6 4.1-1.7 0-1.8-2.2-.2-3.8 1.4-1.4 2.8-1.6 2.8-.3zm14.5 6c-.3.5-.1 1.2.5 1.6.5.3 1 1.4 1 2.3-.1 1.5-.2 1.5-1.5-.2-.8-1.1-1.5-3.4-1.5-5 .1-2.6.2-2.8 1.1-1.3.5.9.8 2.1.4 2.6zm5.8 8.1c.3 1.1.1 1.8-.4 1.4-.5-.3-.9-1.2-.9-2 0-2 .7-1.7 1.3.6zm1.2 6c.3.5.1 1-.4 1-.6 0-1.1-.5-1.1-1 0-.6.2-1 .4-1 .3 0 .8.4 1.1 1zm2.3 8.2c2.3 13.8 2.4 14.8 1.3 14.8-1.3 0-1.8-2.5-2.4-11-.3-3.6-.8-7.3-1.2-8.3-.4-.9-.3-1.7.3-1.7.5 0 1.5 2.8 2 6.2zm-14.7 19.3c1.7 3 2.2 5.4 2 8.8-.1 2.3-2.1 1.2-2.1-1.2 0-1-.6-2.4-1.4-3-.7-.6-1.6-3.5-1.9-6.4-.3-2.8-.8-6.3-1.1-7.7-.4-1.4.2-.5 1.1 2 1 2.5 2.5 5.8 3.4 7.5zm9.7 8c.3 6.2 0 10-.9 12.2-1.3 3-1.5 3.1-3.4 1.7-1.7-1.3-1.8-1.7-.6-3.7.9-1.3 1.6-6.2 1.9-12.6.6-12.8 2.4-11.4 3 2.4zm198 3c-.3.3-.9-.2-1.2-1.2-.6-1.4-.5-1.5.5-.6.7.7 1 1.5.7 1.8zM273 745.4c0 .3-.4.8-1 1.1-.5.3-1 .1-1-.4 0-.6.5-1.1 1-1.1.6 0 1 .2 1 .4zm13.5.6c.6 0-.1.7-1.4 1.4-1.4.8-4 1.2-6.1.9-2.4-.4-4-.1-4.5.8-.6.9-.4 1.1.8.6.9-.3 2.1.1 2.9 1 1.1 1.4 1 1.6-1 1.1-1.2-.4-2-.2-1.6.3.8 1.3-1 1.1-2.4-.3-.9-.9-1.2-.8-1.2.5 0 .9-.5 1.7-1.1 1.7-.6 0-.8-.7-.5-1.6.5-1.4.1-1.5-2.9-1-3.6.7-4.5-.3-2.1-2.3 1-.8 1.5-.9 1.8-.1.2.7 1.3.6 3.3-.3 6.6-3.1 8.1-3.5 11.5-3.2 1.9.2 4 .4 4.5.5zm-59 32c-.3.5-1.3 1-2.1 1s-1.4-.5-1.4-1c0-.6.9-1 2.1-1 1.1 0 1.7.4 1.4 1zM201 797.4c0 .3-.4.8-1 1.1-.5.3-1 .1-1-.4 0-.6.5-1.1 1-1.1.6 0 1 .2 1 .4zm-13 13c0 .3-.4.8-1 1.1-.5.3-1 .1-1-.4 0-.6.5-1.1 1-1.1.6 0 1 .2 1 .4zm-62 143c0 .3-.4.8-1 1.1-.5.3-1 .1-1-.4 0-.6.5-1.1 1-1.1.6 0 1 .2 1 .4zm48.6 62.2c-.3.9-.6 2.7-.6 4 0 1.3-.4 2.4-.9 2.4-1.7 0-2.3-4-.9-5.7 1.1-1.5 1.1-1.6-.4-1-1 .3-1.8.2-1.8-.3 0-.6 1.2-1 2.6-1 2 0 2.5.4 2 1.6zm9.8 220.4c-.7 6.5-1 7.1-2.9 6.3-1.6-.6-2-3.9-.6-4.7.5-.3 1.2-3.6 1.6-7.3.8-6.4.9-6.6 1.7-3.3.4 1.9.5 6 .2 9zm-9 6.1c-.3.5-1 .9-1.5.9-.6 0-.8-.4-.4-.9.3-.5.1-1.2-.5-1.6-.6-.4-.7-1.1-.4-1.7.5-.7 1.2-.5 2 .7.7 1 1.1 2.2.8 2.6z"/><path d="M193 217.9c0 .6 1.4 3.1 3.2 5.6 2.4 3.4 2.9 4.8 2 5.7-.8.8-.8 1.7-.1 3.1.6 1 .9 2.8.6 3.8-.3 1.1.9 4.9 2.9 8.7 1.8 3.7 3.4 7.2 3.4 7.8 0 .6.9 2.8 1.9 5 1.9 3.8 1.9 3.9 0 4.2-2.4.4-2.4 2.3-.1 5.1 2.1 2.7 16.7 9.1 20.5 9.1 1.5 0 5.4 1.1 8.7 2.5 8.7 3.7 19.3 6.3 30 7.5 5.2.6 12 1.8 15 2.7 12.2 3.6 21.6 6.5 23.9 7.4 2.1.9 2.3.8 1.3-.4-1-1.1-.9-1.7.1-2.6.8-.6 1.7-.8 2-.5.3.4 3 1.2 5.9 2 28.7 7.2 31 8.9 11.3 8-7.7-.4-16.5-.9-19.5-1.3-4.8-.5-5.3-.4-4.3.9 3.4 4-2.7 1.7-10.3-3.9-1.7-1.3-3.3-2-3.6-1.7-.3.3-1.8-.6-3.3-2-3.6-3.3-8.8-5-13.5-4.2-2.1.3-5.9.1-8.6-.4-2.7-.6-6.7-1.3-8.9-1.7-2.2-.3-4.7-1.1-5.5-1.8-2-1.6-9-3.5-12.8-3.5-2.9 0-4.7 1.3-4.7 3.5 0 1.9-6.9 3.5-12.5 2.9-14.1-1.3-17-2.2-17-5.2 0-.9-.8-2.2-1.8-2.9-2.5-1.5-4-9.7-4.7-25.8-.3-7.1-.8-13.1-1.1-13.4-1.1-1.1-2.4 2.6-2.4 7.1 0 8-2.6 6.9-3.7-1.7-.2-2.1-.7-4.3-.9-4.7-.7-1.1-5.4 2.1-5.4 3.7 0 .7-.7 1.6-1.6 1.9-1.4.5-1.5 1.9-1.2 8.4.3 4.2-.1 12.1-.9 17.6-.8 5.4-1.2 10-1 10.3.3.2-.1 2.8-.9 5.6-.7 2.9-1.5 8.5-1.6 12.5-.2 4-.6 7.2-1 7.2-2.4 0 2.2 32.2 5.6 38.9.7 1.4 1.1 3.2.9 3.8-.3.7.5 2.5 1.6 3.9 1.1 1.5 1.8 3 1.5 3.5-.3.5.4 2.1 1.5 3.5 1.2 1.5 2.1 3.2 2.1 3.8 0 .7.6 1.8 1.2 2.4.7.7 1.3 1.9 1.3 2.6 0 3.9 14.5 18.6 21.3 21.7 2.8 1.3 5.2 3 5.2 3.6 0 .7.5 1.3 1.1 1.3.5 0 .7-.5.3-1.1-.5-.8 0-1 1.7-.6 1.3.3 6.7 1.1 11.9 1.7 10.8 1.2 19.1 3 18.5 4-.2.4 2.3 1.4 5.6 2.4 12.4 3.4 23.6 11.6 29.4 21.5 1.7 2.8 3.7 5.1 4.6 5.1.8 0 2.6 1.1 3.9 2.5 1.3 1.4 3.4 2.5 4.6 2.5 2.1 0 2-.4-2.4-8.3-2.5-4.5-5-8.4-5.4-8.7-.9-.7-6.1-12-5.7-12.4 5.3-3.4 11.6-3.3 16.5.3 4.9 3.5 6.6 5.5 14.1 16.1 6.7 9.3 11.9 14 19.1 17.2 8.6 3.9 30.6 11.9 41.7 15.3 12.7 3.8 20.1 6.6 26.5 9.9 2.5 1.3 7.9 3.5 12 4.9 4.1 1.4 10.7 3.8 14.5 5.3 3.9 1.5 9.7 3.5 13 4.5 32.1 9.5 52.1 18.8 63.5 29.5 3.5 3.3 4.7 4 4.3 2.5-.5-2-4-5.5-11.3-11.4l-3.5-2.9 3.8.7c2.7.4 3.7.3 3.2-.4-.4-.8.2-.8 2-.1 2 .8 2.4.7 1.9-.3-.6-.9-.5-.9.8 0 .8.7 1.8 1 2.1.6.4-.3.7-.1.7.5 0 .7 1.2 1.2 2.8 1 1.5-.1 3.7.2 5 .6 1.2.4 2.2.5 2.2.1 0-.8-5.2-2.8-7.4-2.7-1.8.1-5.5-1.8-8.9-4.7-2.1-1.8-4.9-2.3-5.7-1.1-.3.4-2.2.2-4.3-.5-4.6-1.6-4.9-.4-.4 1.4 3 1.2 4.8 4.1 2.5 4.1-.4 0-.8-.5-.8-1.1 0-.6-.6-.9-1.2-.6-1.9.6-4.8-1.1-4.8-2.8 0-.9-1-1.5-2.4-1.5s-2.8-.5-3.2-1.1c-.5-.9.1-1 1.9-.5 2.1.5 2.5.3 2.1-.9-.4-.8-1.5-1.5-2.7-1.5-1.1 0-2.9-.7-3.9-1.7-1.1-.9-1.8-1.1-1.8-.5 0 2.4-7.3.6-14-3.4-1.9-1.1-4.2-2.3-5-2.7-.8-.4-2.6-1.4-4-2.2-2.9-1.7-4.1-1-1.5.9 1.7 1.2 1.6 1.3-1.3 1.2-1.9-.1-3.2-.6-3.2-1.4 0-1-1.3-1.3-4.2-1.1-4.5.3-7.7-1-18.1-6.8-3.3-1.8-6.6-3.3-7.5-3.3-1-.1-2.8-.7-4.2-1.5l-2.5-1.4 2.8-.1c1.6 0 3.8.5 5 1.2 1.2.7 3.3 1.3 4.7 1.4 1.4.1 6.1 1.1 10.5 2.3 8.4 2.3 11.1 2.9 13.3 3 .7.1 1.1.4.9.8-.3.5 1.4.9 3.7.9 3.9.1 11.7 2.3 15.7 4.5 1 .5 3.7 1.1 5.9 1.3 4.4.4 9 2.9 9 5.1 0 .7.4 1.7 1 2 .5.3.7 0 .4-.8-.4-1.1.4-1.3 3.3-1.1 5.4.3 5.5.3 4.9 1.3-.7 1 5.2 2.4 6.5 1.5.6-.3 1.6 0 2.4.6 1 .8 1.5.9 1.5.2 0-.6.7-.9 1.5-.6.8.4 1.5 1.6 1.5 2.8 0 1.7.2 1.9 1.1.6.8-1.1 1.2-1.2 1.6-.3.2.7 1.4 1.3 2.4 1.3 2.2 0 7.6 2.6 9.6 4.5.7.7 1.8 1.6 2.5 1.8 1 .4.9.8-.2 1.6-1.3.9-1.2 1.1.5 1.2 1.1 0 1.4.3.7.6s-1.9 0-2.6-.7c-1.4-1.1-3.1.1-1.9 1.4 1.3 1.3 6.3.6 6.3-.9 0-1.7.9-1.9 2.9-.6.7.5 1 1.4.7 2-.4.6-1.2.9-1.7.6-.5-.4-1.2.2-1.6 1.2-.4 1-1.1 2.1-1.7 2.5-.6.4-.1.8 1.2.8 1.2 0 2.2.6 2.2 1.4 0 .8.7 1.6 1.5 2 .8.3 1.5.3 1.5 0s-.7-1.2-1.5-2c-2.3-2.4-1.8-4.1 1.4-4.6 1.7-.2 2.8-.1 2.5.3-.6 1.1 2.8 2.7 4.4 2.2.7-.3 1.2.5 1.2 2.1 0 1.4-.4 2.6-1 2.6-1.3 0-1.3 2.7.1 3.2.5.2.7 1.1.3 2.1-.3 1-1.2 1.6-1.8 1.4-1.4-.5-4 2.3-4.4 4.7-.4 2.3 2.6 5.6 4.4 4.9.8-.3 1.4 0 1.4.6s.8 1.1 1.8 1.1c1.6-.1 1.6-.1 0-1.4-2.3-1.7-2.3-2.6.2-2.6 1.2 0 2-.7 2.1-1.8 0-1 .3-1.2.6-.4.2.6 1 1 1.6.6.7-.3.3.2-.7 1-1.1.9-1.7 1.9-1.3 2.2.9 1 3.6-1.5 5.4-5 .9-1.7 2.3-3.6 3.1-4.2.8-.6 1.2-1.6.8-2.2-1.2-2-2.7-1.3-3.8 1.9-1 3-2 3.2-2.4.4-.3-2.3 14.3-13.5 17.6-13.5 2.6 0 7.7-4.4 6.2-5.4-.7-.4-1.2-.1-1.2 1 0 1.3-.3 1.4-1.5.4-2.1-1.8-.9-3.1 2.8-2.9 1.8.1 3.7.1 4.2-.1 1.9-.5 3.6 0 3.1.9-.3.5 1.4.5 3.9 0 5-.9 7.1-.5 7.9 1.7.3.8 1.8 1.4 3.3 1.3 2.7 0 2.8-.1.6-1.1-1.3-.6-2.3-1.4-2.3-1.8 0-.8 7-.1 9.5 1 6.1 2.8 16.6 3.5 21.6 1.5.9-.3 4.5.7 8.1 2.3 5.3 2.4 7 3.8 9.7 8 4.9 7.8 4.4 8.4-7.2 8.6-8.9.1-9.7-.1-9.7-1.8 0-1.5-.3-1.6-1.5-.6-.8.6-1.9.9-2.5.5-.6-.3-1 .3-1 1.5s-1 3.1-2.2 4.2c-2.1 1.8-2.1 1.9-.3 1.2 1.1-.4 8.8-.8 17-.9 13.5-.1 15.7.1 21.4 2.2 4.8 1.7 6.7 2 7.7 1.2.8-.6 2.1-.8 3-.5 1.3.5 1.4.3.6-.6-.8-1-.4-1.3 1.8-1.3 1.6 0 3.2.3 3.6.7.4.5 0 .8-1 .8-.9 0-1.4.4-1.1 1 .3.5-.2 1-1.2 1.1-1.4 0-1.2.3.6 1 1.4.5 3.1.7 3.8.4.8-.2 1.1 0 .8.5-.3.6.4 1 1.6 1h2.2l-2.1-1.8c-1.5-1.3-1.8-2.2-1.1-3.5.6-.9 1.6-1.7 2.4-1.7.8 0 1.8-.8 2.4-1.7 1.2-2.3 2-1.5 2.4 2.8.2 1.8.9 4.7 1.6 6.4.7 1.6 1.8 6.4 2.4 10.5l1 7.5-4 8c-5.4 10.7-8.6 21-7.8 25.6.5 2.6.2 3.9-.9 4.9-1.8 1.4-13.4 4.9-18.4 5.5-10.1 1.1-22.9 12.5-31.2 27.9-2.5 4.5-5.5 9.5-6.7 11-1.2 1.5-2.9 4.7-3.9 7.2-.9 2.4-2.1 4.4-2.5 4.4-.5 0-.9.9-.9 1.9 0 4.9-3.2 7.1-4.3 3-.7-2.7-2.7-1.5-2.7 1.5 0 1.2-.3 2.5-.6 2.9-.9.9-13.1-11.9-13.7-14.5-.3-1.3-1.1-4.3-1.7-6.7-.8-3.4-.7-6.3.5-13.3 1.7-9.7 6.9-23.6 9.1-24.5.8-.3 2.1-2 2.9-3.8.9-1.7 6.4-7.9 12.2-13.6 12.7-12.4 15.7-17.8 15.4-27.3-.2-7.6-4.6-17.3-7.6-16.8-1 .2-2.9-.2-4.2-.9-1.9-1-3.3-1-6.9-.1-5.7 1.5-9.7 1.5-9.2 0 .2-.6 3.3-2.3 7-3.7 5.5-2.3 6.3-2.9 5.1-4-1.2-1-2-1.1-3.9-.2-3.2 1.4-3.7 1.4-2.8-.2.5-.6-.7.3-2.5 2-3.4 3.4-5.3 4.2-4.8 2 .1-.6 1.3-1.5 2.7-1.8 2.1-.6 2-.7-1-.7-3.7-.1-9.2 1.6-5.7 1.7 2.6.1 2 1.3-2.5 4.8-3 2.5-5 3.3-8 3.3-3.3 0-4.6.7-8.8 4.9-2.6 2.6-5.6 5.1-6.5 5.4-.9.4-1.3 1.2-1 1.8.4.6 1.3.8 2.1.5 2.1-.8 1.7 1.2-.5 2.4-1.1.5-2.9 2.7-4.2 4.7-1.2 2.1-2.3 3.9-2.3 3.9-.1.1-1.2.5-2.5.9l-2.5.8 2.8-3.4c1.8-2.1 2.4-3.5 1.7-3.7-.8-.3-.6-1.1.6-2.6 1.8-2.1 1.8-2.1-.4-.3-1.2 1.1-2.7 1.6-3.4 1.1-.8-.4-1-.3-.5.5 1.1 1.7-1.8 4.1-3.5 3-2.4-1.5-3.9-1-3.9 1.4 0 2.1-.5 2.4-4.2 2.4-4.2.1-5.7.4-8.8 1.6-1.4.6-9.9 3-11 3.1-.3.1-1.6 1.1-2.9 2.3-2.1 2-2.2 2.2-.5 3.1 1.5.9 1.6 1.3.5 2.6-.7.9-2.3 1.6-3.5 1.6-1.2 0-2.8.8-3.7 1.8-.8.9-3 2.9-4.9 4.4-1.9 1.5-2.9 2.8-2.2 2.8 1.5 0 1.6 2.7.1 3.2-.9.3-.9.9-.1 2.5 1 1.7.8 2.2-1.3 3.1-1.5.7-2.5 2-2.5 3.2 0 2.4-1.5 2.7-2.4.4-.9-2.3-.7-3.6.3-3 .8.5 2.6-2.3 1.9-2.9-1.3-1.1-4.8-1.4-5.4-.4-.5.9-.2 1 1.2.5 2.1-.8-7.4 8-15.5 14.4-2.8 2.2-5.1 4.4-5.1 4.9s-1.6 1.9-3.5 3.1c-5.7 3.5-17.6 20.3-26 36.5-1.7 3.3-3.5 6.7-4 7.5-1.8 2.7-5.7 13.4-8.2 22.5-1.7 6-2.7 12.7-3 20.1-.5 10.3-.4 11.3 1.5 13.2 1.3 1.3 1.9 2.8 1.5 4.1-.3 1.2-.1 2.1.6 2.1.5 0 .8-.6.5-1.4-.3-.7.2-2 1-2.8 1.8-1.8 2-14.1.2-13.2-.6.3-.3-.1.6-.8.9-.8 1.6-2.1 1.5-2.9-.1-.7.3-1.6.8-1.9.6-.3 1.1 1.2 1.2 3.5 0 2.2.9 6 1.8 8.5s1.6 5.9 1.6 7.7c-.1 2.4.4 3.3 1.9 3.8 2.5.8 4-.2 1.7-1-1.3-.6-1.3-1-.1-3.3.8-1.5 1.4-3.5 1.4-4.4 0-.9.5-1.8 1.1-2 .8-.3.6-1-.5-2-2-2.1-2.1-3.8 0-3.8 1 0 1.4-.7 1.2-2.2-.2-1.1.3-2.3 1-2.5.6-.3 1.2.3 1.2 1.4 0 1.5.2 1.6 1 .3.8-1.2 1-1.1 1 .7 0 1.3-.4 2.3-1 2.3-.5 0-.7 1.4-.4 3.2.2 1.8.7 6.7.9 10.8.4 5.5.2 7.1-.6 6-.8-1.1-.9-.8-.4 1.5 2.2 9-2.3 40.7-7.6 54.6-4.1 10.6-17.2 36-21.8 42.3-5.1 6.8-15.9 17.7-19.3 19.5-2.5 1.3-3 1.2-4.6-.2-2.3-2.1-4.2-2.1-6.8-.2-2.6 2-4.7 1.9-7.7-.5s-4.1-2.5-3.3-.5c.6 1.6-.5 1.8-4.1.9-3.4-.9-3.2-5.4.2-5.4 1.4 0 2.5-.4 2.5-.9s-1.2-.9-2.7-.9c-1.5 0-3.4-.9-4.4-2.1-1.6-2-1.6-2.5-.2-6.6.9-2.7 1.9-4.2 2.5-3.8.6.3.8.1.5-.4-.4-.6-.2-3.4.3-6.3s.7-5.6.4-6.2c-.7-1.1-2.8 1.7-3.9 5.2-.4 1.4-1.6 3.4-2.6 4.5s-2.8 4.3-4 7c-2 4.6-3.1 6.1-8.2 11.7-2.3 2.5-3.3 1.7-1.6-1.4 1.2-2.2 1.1-2.2-2.2.5-1.9 1.5-4.5 3.3-5.9 4-1.4.6-3.3 1.8-4.2 2.6-.9.8-2.4 1.6-3.2 1.7-.8.1-4.4 1.4-7.9 2.8-8.7 3.5-11.2 3.4-12.9-.4-.7-1.6-1.7-3-2.3-3-.5 0-.3-.5.5-1.1 1.2-.8.8-.9-1.5-.6-1.6.2-3.7.7-4.7 1.1-1.1.5-1.8.1-2.3-1.3-.3-1.2-1.3-2.1-2.2-2.1-.9 0-1.3.6-.9 1.5.3.8 0 1.5-.6 1.5-2.1 0-9.8-3.2-9.8-4.1 0-.4 3.3-.6 7.3-.4l7.2.5-4-1.4c-2.2-.8-5.1-1.5-6.4-1.5-3.4-.1-15.5-12.3-13.8-14 .8-.8.7-1.1-.5-1.1-1.8 0-6.8-4.4-6.8-6 0-.6-1.2-2.2-2.7-3.6-1.7-1.4-2.1-2.2-1-1.8.9.3 1.7.2 1.7-.4 0-1.4-10-2.3-19.2-1.8-4.3.2-7.8.1-7.8-.3 0-1-6.1-.8-7.8.2-.7.5-.9 1.3-.6 1.9.5.7-.4.9-2.7.4-1.9-.4-4.2-.7-5.1-.7-1 0-1.8-.4-1.8-1 0-1.1-5.5-1-9 .1-1.4.4-2 .8-1.4.9.7.1 1.5.8 1.8 1.7.4 1.1.1 1.4-1.2 1-2.4-.8-15.9 5.4-21.9 10-6.5 4.9-12.3 10.6-12.3 12 0 .6-.9 1.9-2.1 3-3.9 3.5-18.2 26.6-18.5 29.9-.1 1.5-1.3 4.7-2.9 7.7-.8 1.5-1 3-.6 3.2.9.6-1.6 11.7-3.8 16.6-1.2 2.7-1.5 7.3-1.6 19.7 0 12.4-.3 16.3-1.2 16.3-.7 0-1.2-.5-1.1-1.2.2-.7-.6-1.3-1.7-1.5-1.1-.1-3.8-.7-6-1.2-4.7-1.2-12.5-1.4-14.2-.3-.7.5 1.8 1.3 6 2.1 12.9 2.2 20 4.8 19.3 6.7-.3.8-.2 1.3.2 1.3 2-.3 3.3.2 2.7 1.1-.3.5 0 1 .9 1 2.7 0 10.7 10.5 15.5 20.5 5.1 10.7 8.5 21 9.6 29 .5 3.9.9 4.6 1.7 3.2.7-1.3.2-4.8-1.7-12.2-4.7-18.7-12.1-33.9-20.7-42.3-5.4-5.4-5.9-6.4-6.8-11.9-.6-3.3-.9-7.3-.8-8.9.2-5.2 4.8-31.5 5.7-33.2.5-.9 1.7-4.9 2.6-8.7 2.1-8.5 8.2-21 13-26.9 1.9-2.4 3.5-4.9 3.5-5.5 0-1.3 1.9-4 7.4-10.7 3.7-4.5 11.7-9.8 19.6-13 11.6-4.7 34.8-3.1 42.7 2.8 4.5 3.5 16.3 16.7 16.3 18.4 0 .4.8 1.3 1.8 2 1.6 1.2 1.5 1.3-.5 1.5-3.3.2-3.4.2-8.5 3.5-4.5 2.8-9.2 9.4-10.1 14-.2 1-.6 2.6-.9 3.4-1.1 2.8-4.8 20.5-6.3 30-.9 5.2-2.3 12.6-3 16.5-1.3 6.2-2.5 14.9-4.1 29.5-.2 2.5-1.5 9.2-2.8 15-1.4 5.8-3 13.2-3.6 16.5-.7 3.3-1.6 6.5-2.1 7-1.6 2.1-10.9 29.9-10.9 32.7 0 3.6 1.6 6.8 3.4 6.8.8 0 1.8 1.8 2.4 4 .5 2.3.6 4 .1 4s-.9.4-.9 1c0 .5.5 1 1.2 1 .6 0 3.8 2.8 6.9 6.2l5.8 6.3-1.9-5.4c-1.1-3-3-6.5-4.2-7.8-2.3-2.5-3.4-9.3-1.4-9.3.6 0 .5-.4-.3-.9-1.6-1.1-.6-5.1 1.4-5.1.8 0 1.8-.8 2.4-1.8.9-1.5 1.1-1.3 2.1 1.5 1.4 3.9 2.8 4.1 5.9 1.1l2.4-2.1-.6 3.9c-1.2 7.6-1.3 9.4-.5 9.4.4 0 .8.7.8 1.5s-.7 1.5-1.5 1.5c-1.9 0-1.9 1.9 0 2.6 2.4.9 1.7 2.3-.7 1.7-2.2-.6-2.1-.5.4 1.6 1.4 1.1 3.1 2.1 3.6 2.1.9 0 2.6 3 2 3.5-.2.2-2.3.8-4.8 1.4-4.2 1-4.1 1 2.3.5 5.4-.5 6.8-.3 7.3.9.3.9 2 2.3 3.7 3.2 1.8.8 3.9 2 4.7 2.5.8.5 4.7 2.3 8.5 4 8 3.7 12.8 6.1 13.5 6.9.3.3 2.2 1.9 4.2 3.4 4.7 3.5 12.5 10.5 15.2 13.6 1.2 1.4 3.6 4.1 5.4 6 1.8 2 4.5 5.1 6 6.9 1.5 1.8 3.9 4.8 5.4 6.6 1.5 1.7 3 4.4 3.3 5.8.4 1.4 1.8 3.6 3.1 4.9 2.5 2.4 6.9 14.4 5.8 16.1-.3.5.3 1.2 1.4 1.5 4.7 1.2 5.6 9.2 2.7 23.7-1.8 8.4-4.8 13.7-11.4 19.9-6.9 6.5-12.4 15-14.4 22.4-4.6 17-2.6 29.8 6.4 41.8 5.1 6.8 11.9 17.5 11.9 18.7 0 .6 1.6 4.4 3.5 8.4s3.5 8.3 3.5 9.6c.1 7.7 4 18.1 15 40 6.6 12.9 6.8 13.7 7.5 32.7.2 7.3.9 13.8 1.4 14.5 1.4 1.6 1.1 7.6-.4 7.6-1.4 0-12.6 11.8-17.6 18.6-3.9 5.3-12.9 24.2-12.9 27.1 0 1-.7 4.3-1.6 7.3-.8 3-1.7 6.6-2 8-1.4 7.1-8.5 23.5-13.9 31.9-9 14-17.2 25-21 28.1-1 .8-3.3 3.7-5.1 6.5-1.7 2.7-5.5 7.6-8.3 10.8-4.7 5.4-5.5 7-6.3 12.2-.2 1.2-2.2 3-5 4.5-5.8 3-7.8 7-7.8 15.1 0 5.7-.1 6.1-3.2 7.7-1.7.9-4.1 2.7-5.2 3.8-1.2 1.2-4.3 4.5-7.1 7.4-2.7 2.9-6.8 6.4-9 7.8-4.6 2.9-9.5 7.2-9.5 8.3 0 1.1 7.7.4 9.2-.8.7-.7 2.7-1.7 4.3-2.3 2.5-.9 1.9-.2-2.8 4.1-3.2 2.8-5.5 5.4-5.2 5.7.3.3 1.8-.6 3.3-2 6.7-6.1 16.2-10.7 16.2-7.8 0 1.6-5.9 7.8-9.7 10.1-3.4 2.1-3.5 2.3-1.6 3.2 1.8.8 4.3 0 10.6-3.1.5-.2-.6 1.9-2.5 4.7-1.8 2.8-4.3 5.4-5.5 5.7-1.3.3-2.3 1-2.3 1.5 0 2 2.4.7 7.4-4.1 2.9-2.8 5.8-5 6.4-5 1.4 0 1.6 2.2.3 3.5-.5.6-1.8 3.7-3 7s-3.4 7.1-4.8 8.4c-4.4 4.1-9.1 12.6-11.8 21.2-4 12.7-5.6 16.8-7.1 18-.8.6-1.4 1.6-1.4 2.2 0 .5.8 0 1.9-1.1 1-1.2 2.3-2.2 2.9-2.2 1.9 0 6.2-5.3 7.7-9.5.7-2.2 1.7-6.1 2-8.7.8-5.9 7.2-16.1 11.9-18.9 1.9-1.1 3.6-2.9 3.9-3.9.4-1.7.1-1.9-1.9-1.4-3 .8-3 .1 0-2.9 1.2-1.3 2.5-3 2.8-3.8.3-.8.9-1 1.4-.6.4.4.3 1.7-.4 2.7-1.7 2.8-.3 2.5 2.9-.6l2.6-2.5-.5 2.8c-.7 4.1 1.2 1.6 2.7-3.4.7-2.8 1.8-4.3 2.8-4.3 1.2 0 1.4.7 1 3.5-.3 1.9-.2 3.5.4 3.5.5 0 .9.7.9 1.6 0 .9-.5 1.2-1.2.8-.8-.5-.9-.2-.5 1 .4 1 1 3.5 1.3 5.7.6 3.9 2.7 5.2 3.7 2.5.4-.9 1.4-1.2 2.6-.9 1.4.4 2.1.1 2.1-.9s.8-1.3 3-1c2.6.4 3 .9 3 3.4 0 1.6-.5 3.9-1.1 5.1-1.2 2.3-12.1 12.8-12.7 12.3-.3-.3 2.6-3.9 6.3-7.9 2.9-3.2 1.1-9.3-2-6.7-.7.6-1.6.5-2.4-.3-1-1-1.1-.6-.6 1.5.6 2.4 0 3.4-4.2 7.5-7.2 7-11.1 12.5-13.7 19-2.6 6.7-2.5 7.8 1.4 9.8 4.5 2.3 6.7 1.9 7.3-1.3 1.2-6.1 8.9-20.2 12.2-22.5 3.7-2.5 7.2-6.6 10.3-12 1.8-3.1 2-4.1 1-6.2-.6-1.4-1.5-2.5-2-2.5-.4 0-.8-1.6-.8-3.6 0-2.2-.6-4.1-1.6-4.8-1.2-.9-1.3-1.7-.5-3.9 1.3-3.4 3.1-2.6 3.1 1.3 0 1.6.5 4.1 1.2 5.7l1.2 2.8.3-2.6c.2-1.4-.3-4.6-1.2-7-1.2-3.1-1.8-9.3-2.2-20.9-.4-14.6-.3-17.3 1.5-23.7 1.2-4 1.8-7.3 1.5-7.3-.3 0 .1-.7.8-1.6 1.6-1.9 3.4-5 4.9-8.2 1.9-4.2 10.5-16.2 12-16.8.8-.3 4.2-3.9 7.5-8.1 3.3-4.3 8.5-10.2 11.6-13.2 3.1-3.1 6.9-7.4 8.5-9.5 4-5.5 8.2-9.8 12.6-13.1 2.1-1.5 5.4-5 7.4-7.9 2.1-2.8 6.3-7.8 9.4-11.1 3.1-3.3 6.7-7.7 8-9.7 1.8-2.8 2.8-3.4 3.7-2.6.7.6 1.3 1.6 1.3 2.2 0 .6.5 2.8 1.1 4.9.8 3 1.4 3.7 3.6 3.7 2.3 0 2.5-.3 1.9-3.2-.4-1.8-1.6-5.1-2.7-7.3-2.5-4.7-2.8-15.4-.5-16.7 1-.5 1.2-2.3 1-6.3-.4-4.9-.2-5.5 1.5-5.5 1 0 2.4-.7 3.1-1.5 1.8-2.1 2.3-1.9 3.8 1.5 1.7 3.8 2.8 3.8 6.3-.1 2.5-2.8 2.8-4 3.3-12.7.9-15.3 2.3-24.5 4.3-28 3.5-6.1 4.3-3.5 3.1 10.3-.5 6.2-1.6 11.8-2.8 14.7-1.6 3.8-1.9 5.7-1.3 9.5.5 2.5 1.4 4.8 2 5 .6.2 3-1.5 5.3-3.8 3.2-3.3 4.3-4 5-2.9.5.8.6 1.9.2 2.4-1.6 2.7-2.8 14.9-2 20.3 1.1 7.3 4.7 18.2 6.6 20.5 1.1 1.4 1.4 3.4.9 8.8-.8 9.9-4.8 30.3-6.3 31.7-.6.6-2.9 1.3-5 1.5-4.7.4-9.8 5.1-9 8.2.3 1.1.1 2.5-.3 3-.5.6-.4 3.4.2 6.2.9 4.5.7 6.1-1.3 12.5-1.2 4.1-2.9 8.3-3.6 9.4-1.4 2.2-8 19.7-9.6 25.5-.5 1.9-2.7 9.1-4.8 16-2.1 6.9-6.2 20.4-9 30-2.9 9.6-6.2 20.6-7.5 24.5-8 23.8-10.5 34.9-9.7 42.7.2 2.7-.1 6.2-.7 8-.9 2.6-.8 3.8 1 7.5 2.4 5 3.7 12.3 2.1 12.3-.6 0-1.6-1.6-2.2-3.5-.6-1.9-1.9-4.1-2.9-4.7-1-.7-2.3-2.2-2.9-3.3-.6-1.1-1.2-1.5-1.2-.8 0 2.4 2.2 6.9 4.9 9.8 1.6 1.6 3.6 4.3 4.4 6 .9 1.6 1.7 2.5 1.7 2 .1-.6.4-1.9.7-3 1.6-6.4 1.4-8-1.7-12.8-3.4-4.9-3.4-5.5-1.1-14.2.6-2.2 1.1-6.3 1.1-9 0-4.7.6-7.7 2.9-15.8.6-1.7 2.1-7.3 3.4-12.2 1.3-5 3.4-11.5 4.7-14.5 1.2-3 3.1-8.4 4.2-12 1.1-3.6 3.1-9.4 4.4-13 1.3-3.6 2.4-7.4 2.4-8.5 0-1 1.1-5.5 2.4-9.9 1.4-4.5 3.9-13.1 5.7-19.1 1.8-6.1 3.7-11.4 4.1-12 .4-.5.8-1.8.8-2.8 0-1 .6-3.1 1.4-4.5 2.3-4.5 7.4-15.5 9.1-19.7 1-2.4 1.7-7.8 1.9-13.2.3-9.8 1.3-12.3 5-12.3 1.1 0 2.6-.4 3.2-.8 2.2-1.5 5.7-8.6 6-12.1.1-2 .9-6.5 1.7-10.1.8-3.6 1.5-10.8 1.6-16 .2-8.6 0-10-2.4-14.2-4.6-8.3-5.7-19.2-3.1-33.1.4-2 .1-2.7-.9-2.7-1.2 0-1.5-1.1-1.1-5.8.4-5.9 2.2-11.2 3.8-11.2.6 0 .7 2.9.3 6.7-.6 6.7-.6 6.8 1.1 3.9 1.2-2.1 1.5-4.3 1.1-8-.7-6.7-.9-7.6-2.6-9.7-1.6-2-2-3.5-2.2-8.9-.2-2.8.7-4.8 3.9-9 5.3-7 7.2-12.7 7.1-21.5-.2-11.4.7-14.5 5.8-18.8 4-3.3 5-3.7 10.3-3.7 3.5 0 8-.8 11.4-2.1 7.2-2.8 6.7-3.3-.8-1-4 1.2-7 1.6-9.7 1.1-7.3-1.4-20.7 5.1-23.3 11.3-.8 1.8-2.8 7.7-4.6 13.2-3.7 11.2-11.2 27.1-16.1 34-3.2 4.5-3.2 4.6-3.8 19.3-.6 14.5-.6 14.7-3 15-1.7.3-2.1 0-1.5-.9 1.4-2.3 1.3-5.8-.1-6.6-1.2-.7-1.1-1.6.2-5.6 1.4-4.2 1.4-5.8.3-11.6l-1.3-6.8 3.2-4.3c1.7-2.4 3.1-4.8 3.1-5.4 0-.5 1.8-4.4 3.9-8.6 3.9-7.5 5.9-13.5 8.1-24 1.5-7.2 2.8-10.6 5.9-15.8 2.1-3.5 4.1-5 10.9-8.3 8.2-4 8.3-4 14-2.8 10.3 2.2 16.9 1.7 24.2-1.9 9.9-4.8 18.9-13.6 32.3-31.3 4.3-5.6 13.7-24.7 13.7-27.8 0-3.2 2.3-11.9 3.9-14.9 1.5-2.8 4.1-17.4 3.3-18.6-.3-.5-.9-2.3-1.3-4-.6-2.7-.7-2.5-.8 1.9-.2 6.8-3.4 21.5-6.5 29.8-3.7 9.7-6.5 14.8-14 26.1-3.6 5.4-6.6 10.2-6.6 10.5 0 .4-1.3 2-3 3.6-2 1.9-3 2.4-3 1.4-.1-1-.3-.9-1.1.4-.5.9-.7 2.2-.4 2.7.3.6.2 1-.4 1-.5 0-1.3 1-1.7 2.2-1.4 4.5-11.6 13.2-18.6 15.9-6.2 2.5-7 2.6-12.1 1.4-2.9-.7-6.5-2-8-2.9-2.8-1.9-4.5-1.4-12.3 3.9-2 1.4-4.5 2.5-5.5 2.5-2.8 0-15.3 12.8-17.6 18-1.1 2.5-2.6 7.4-3.2 11-.7 3.6-2.5 8.7-4 11.5-8.4 15.2-10.7 18.5-12.5 18.5-.7 0-2.1.9-3.1 2-1.8 2-1.8 2-3-.7-2-4.8-3.4-9.6-4.6-16.6-1.3-7.8-.3-11.7 3.1-11.7 2.3 0 2.3.1.9-5.5-.8-3.3-1.7-4.5-3.5-4.9-1.3-.4-2.4-1.2-2.4-1.9 0-.8-.4-.7-1 .3-.9 1.3-1.1 1.3-2 0-.7-1.1-.5-1.6 1-1.8 2.9-.5 2.4-1.8-1.7-4.7-2.1-1.4-3.2-2.5-2.5-2.5.6 0 1.2-.9 1.2-1.9 0-2.5-5.1-8.1-5.7-6.4-.3.7-1.4 1.3-2.5 1.3-1.5 0-1.9-.5-1.5-2 .3-1.1.1-2.3-.5-2.6-.6-.4-.6-.9.2-1.4.8-.5 2.2 0 3.4 1.2 1.7 1.6 2.2 1.7 2.4.4.4-2-2.7-6.6-4.4-6.6-.8 0-1.4-.5-1.4-1.1 0-.6.9-.9 2-.6 2.3.6 2.6-.6.6-2.6-.8-.8-1.8-3.2-2.2-5.3-.4-2.1-1.5-5.6-2.5-7.6-1.1-2.1-1.9-4.9-1.9-6.3 0-1.5-.4-2.4-1-2-.6.3-1 .2-1-.3s1-1.3 2.3-1.7c2.2-.8 2.2-.8-.3-1.2-2.7-.5-5.2-2.3-3.2-2.3.7 0 1.2-.8 1.3-1.8 0-.9.3-1.2.5-.5.8 1.9 4.4-1.8 4.4-4.4 0-1.3-.6-2.3-1.2-2.4-.7 0-.4-.4.7-.9 1.3-.6 1.5-.9.5-.9-1.3-.1-1.3-.2 0-1.1.8-.5 1-1 .4-1-.7 0-1.5-.7-1.8-1.6-.5-1.4-.4-1.5.9-.4 2.1 1.7 2-.8-.2-3.5-1.1-1.4-1.4-1.5-1-.3.7 1.9-2.6 3.1-4.2 1.5-.8-.8-1.1-.8-1.1.1 0 .7-.5 1.2-1 1.2-1.4 0-.7-7.9.9-10.9.7-1.2 1.1-3.2.8-4.2-.3-1-.2-2.1.3-2.4.4-.3 1 .9 1.2 2.6.3 1.6.1 3.2-.4 3.5-.4.3-.8 1.7-.8 3.3 0 2.4.3 2.7 3.8 2.6h3.7l-.1-6.8c-.1-3.7.3-6.7.8-6.7.6 0 .8-.6.5-1.3-.6-1.7 1.7-4.9 3.3-4.5.8.2 1.8-1.4 2.4-4 .6-2.3 1.6-4.6 2.1-5 1.6-1.1 3.6-6.2 2.5-6.2-.6 0-1-.5-1-1 0-.6 1.8-1 3.9-1 3.2 0 4.8.8 8.9 4.5 5.4 4.8 6.5 5.4 5.5 2.9-.5-1.4-.3-1.4 1.6-.3 1.1.8 2.1 1.9 2.1 2.6 0 .7.5 1.3 1 1.3.6 0 1 .7 1 1.5s.4 1.5.9 1.5c1.5 0 9.5 11.3 11.6 16.5 1.2 2.7 3.8 7.9 5.9 11.5 5.5 9.3 6.9 15.3 7.1 31 .1 9 .6 14.3 1.5 16l1.3 2.4 1-2.4c.5-1.4 1.1-3.6 1.3-4.9.2-1.3.8-2.7 1.5-3.1.6-.5.7-1 .2-1.3-1.3-.8-.4-6.6 1.4-9.4.8-1.2 1.2-2.7.8-3.2-.3-.6.3-1.9 1.4-3 1.1-1.1 2.3-3.3 2.6-4.8.6-2.7 3.1-8.8 6.1-14.4.7-1.4 1.1-2.8.9-3.1-.3-.2 1.4-2.4 3.6-4.9 7.2-7.7 7.8-8.5 8.4-11.2.4-1.5 1.2-3 1.8-3.4.6-.4.7-.1.2.8-.7 1.1-.6 1.2.6.3 6.4-4.7 10.9-8.8 10.9-9.9 0-.7.7-1.8 1.5-2.5s1.5-2.2 1.5-3.3c0-1.9-.4-1.7-3.7 1.4-2.1 1.9-5.4 4.3-7.3 5.3-1.9 1.1-5.1 3.3-7.1 5-2 1.7-4.4 3.8-5.5 4.6-1 .9-3.1 3.1-4.7 4.9-2 2.5-3.1 3-4 2.3-.9-.8-1.6-.6-2.5.9-1 1.6-1 1.9.4 1.9 2 0 1.3 2.4-.8 2.8-1.9.4-3.1-4.5-1.3-5.6.7-.4 1.1-2.6 1.1-5.2-.1-3.4-.6-4.7-1.9-5.2-1.3-.5-1.6-1.4-1.2-2.7.3-1.1.2-2.2-.3-2.5-.6-.3-1.3.4-1.6 1.7-.6 2.2-.7 2.2-2.9-.8-1.2-1.6-2.2-3.4-2.2-4 0-.5-.5-1.1-1-1.3-.6-.2-2-1.3-3.3-2.5-3-2.8-4.4-.9-2.9 3.9 1.7 5.5-.4 6.5-5.3 2.5-2.2-1.8-4.5-2.9-5.1-2.6-.6.4-1.9-.1-2.9-1s-2.4-1.4-3-1c-1.2.8-6.5-.3-5.7-1.1.3-.3-1-1.9-2.9-3.6-1.9-1.6-3.1-3.5-2.7-4.1.3-.6.1-.7-.5-.3-.6.4-2.4.1-3.8-.7-2.7-1.4-2.7-1.4-.8-3.4 2.7-2.8 2.7-3.9 0-9.1-1.3-2.6-3.5-6.8-4.8-9.5l-2.3-4.7 3.5-6.6c6.8-12.8 12-15.9 12-7.2 0 2.4-.5 5-1 5.8-.7 1.1-.4 1.6 1.2 2 4.4 1.1 3.6 7.8-1.6 13.3-1.2 1.3-1.5 2.2-.8 2.9 1.3 1.3 3.2.2 3.2-1.7 0-.8 1.1-1.7 2.4-2.1 1.4-.3 2.7-1.2 3-1.9.3-.8 1.8-2.1 3.4-2.9l3-1.5-.8 3.3c-.4 1.9-1.1 4-1.6 4.7-.6 1.1-.4 1.1 1 0 1.6-1.4 7.3-11.9 8.2-15.1 2-8 2.5-11.2 2.5-17.8.1-4.3-.1-8.7-.5-10-1.6-6-2.4-10.2-3.1-17.7-.3-3.3-1-8.7-1.4-12-.9-6.3-.5-15.9.8-18.5.4-.8.5-2.6.1-4l-.6-2.5-1.3 2.3c-.7 1.3-1.5 4.2-1.9 6.5-.4 2.3-1.2 4.1-1.7 3.9-3-.8 1.5-12.8 11.2-30.2 1.1-1.9 2.8-3.7 3.9-3.9 1.8-.3 1.8-.2-.2 2-2.4 2.8-7.8 13.9-7.1 14.6.5.5 1-.2 6.2-8.7 1.5-2.5 2.4-3.6 2.1-2.5-.6 2.1 3.5-2 8.1-8 2.6-3.3 8.5-4.6 8.1-1.7-.3 1.7.4 1.9 3.5.7 1.3-.6 1.7-.1 1.9 2.1.3 4.7.7 8.5 1.7 15.9.5 3.8.8 13.1.6 20.5-.3 13.4-.3 13.4 1.1 8 1.1-4.2 1.4-9.4 1-22.2-.4-10.6-.2-16.9.4-17.3.6-.3 1-1.4 1-2.4 0-3 2.3-4.3 4.8-2.6 1.3 1 2.3 1.2 2.7.5.8-1.4 7.1-1.3 9.8.2 1.2.6 4.5 1.3 7.2 1.4l5 .3-6.5-1.9c-8.8-2.7-13.8-6.5-18.2-14.1l-3.8-6.4.5-9.7c.6-10 .2-11-3.7-11.3-1.1-.1-1.8.6-1.8 1.9 0 8.4-.2 9.6-1 9.1-.6-.4-.7.3-.1 1.7 1.3 3.6-2.1 10.7-4.4 8.8-.8-.7-2-.1-3.9 1.9-1.4 1.5-7 5-12.3 7.6-9.4 4.8-10 4.9-17.8 4.8-7-.2-8.2-.5-9.9-2.5-1-1.3-2.4-2.2-3.1-2-1.9.4-10-8.9-12.4-14.3-2.8-6.2-2.8-19.8-.1-35 1.9-10.8 6.5-25 9.2-28.2.7-.9 1.8-2.7 2.3-3.9 1.5-3.5 17.1-18.9 23.4-23.1 6.1-4.1 5.1-3.1 20.1-17.8 10.3-10.1 11.8-10.8 9.4-5-.8 2-.8 2 2 .2 2.8-1.9 4.4-1.7 3.1.3-.4.7-.9 3.3-1.1 5.8-.2 2.6-.5 5.6-.6 6.7-.5 3.6 1.3 30.9 2.2 34.6 1.4 5 2.1 19.1.9 18.4-.5-.4-.9-.1-.9.4 0 .6.5 1.1 1 1.1.6 0 1 .4 1 1 0 .5-.7.7-1.5.4-1-.4-1.5 0-1.5 1.5 0 1.2.5 2.1 1 2.1.6 0 .4 1.2-.4 2.9-1.5 2.8-1.5 2.9.5 2.4 4.7-1.3 5.6-7.4 3.5-24.3-.3-2.5-.7-5.7-.7-7.2-.1-1.5-.5-2.6-.8-2.4-.3.2-.7-1-.7-2.7-.1-1.8-.3-4.8-.4-6.7-.1-1.9 0-5.8.4-8.5.3-2.8.7-10.6 1-17.5.5-12.5 1.9-21.7 3.9-25.5 1-1.9 1-1.9 1.7 0 .5 1.6.9 1.1 1.5-2 .5-2.2.7-4.4.6-4.9-.1-.4.4-1.5 1.1-2.4 1.1-1.3 1.1-1.5-.2-.8-1.2.6-1.1.4.1-.6.9-.7 1.4-1.9 1.2-2.6-.3-.6.1-1.2.7-1.2.7 0 1-.6.7-1.3-.6-1.6 2.1-7.7 4.2-9.3.8-.6 1.1-1.6.7-2.2-.4-.7 1.8-5.4 4.9-10.5 3.7-6.2 5.3-10 4.9-11.1-.5-1.3-.2-1.7 1.2-1.4 1.5.2 1.9-.3 2-2.4.1-1.5.7-3.4 1.4-4.3.7-.8 1-1.5.6-1.5-.6 0 5.5-12 8.9-17.8.6-.9 2.5-4.4 4.4-7.7 5.4-9.5 14.2-22.7 17.7-26.5 10.1-11 19.3-30.7 19.5-42 .1-4.9.2-5.2 1-2.5 1 3.3-.6 34.3-2 39.1-1.6 5.4-7.1 19.7-8.6 22.3-1.7 3-6.7 15.1-9.5 22.9-1.1 2.9-2.4 8.8-3 13.2-1 7.1-.9 8.4 1 13.7 7.5 20.9 8.8 47 3 59.8-1.1 2.4-2 4.8-2 5.2 0 .5-2.6 3.8-5.7 7.4-3.2 3.5-7.1 8-8.7 9.9l-2.8 3.5 2.2-3.8c1.2-2 1.8-3.7 1.3-3.7-1.1 0-7.7 10.4-10.3 16.4-2.5 5.5-6.3 18.6-5.6 19.3.7.7 10.1-13.4 11.2-16.9.3-1 1.2-1.8 2-1.8s1.7-.7 2-1.5c.4-.8 1.2-1.5 2-1.5s1.4-.8 1.4-1.8c.1-.9.9.4 1.9 3 4.4 11.2 5.3 36.8 2 54.7-1 5.3-1.8 10.3-1.8 11.1-.1 3.1 1.8-1.5 3.6-9.1 2.3-9.5 2.7-48.6.5-51.2-.7-.8-1.2-2.1-1.1-2.9.3-1.5-.7-5-2.7-9.5-1.3-2.9-1.3-3.6 0-6.1.8-1.6 2.3-3.5 3.2-4.3 3.6-3 9.6-13.6 12-21.5 2.2-7.5 2.4-9.3 1.8-19.1-.3-5.9-1-11.6-1.5-12.5-.5-.9-.5-1.9-.1-2.2.5-.3 1.4.5 2.1 1.7.7 1.2 3.6 3.8 6.4 5.8 3.7 2.5 5.1 4.1 5 5.6-.1 1.1.7 2.9 1.9 3.9 1.8 1.6 2 1.6 1.5.2-.8-2.4.3-2.9 2.6-1.3 1.5 1 2.5 1.1 3.9.4 1.1-.6 2.7-.8 3.5-.5.9.4 2.3-.1 3.2-1.1 1.6-1.6 1.5-1.9-1.1-4.5-2.6-2.5-3.6-4.8-2.2-4.8.9 0 3 2.4 3.7 4.3.4 1 1.5 1.7 2.4 1.6 2.6-.4 6 1 6.7 2.6.3.8-.9 2.2-3.2 3.5-2 1.2-4.2 3.1-5 4.1-1.6 2.3-4 2.4-6.6.4-1.1-.8-2.7-1.5-3.5-1.5-1.2 0-1.1.4.5 2.1 3.2 3.1 7.9 2.8 11.7-.8 4-3.8 6.8-5.3 10.1-5.3 1.4 0 2.6-.4 2.6-1 0-1.5 5.9 0 12 3.1 5.1 2.6 8.2 3.3 13.6 3 1.1-.1 6.2-2.6 11.3-5.6 10.4-6.1 11-6.2 26-2.8 11.4 2.6 18.5 8.5 23.1 19.3 3.7 8.5 5.3 11 7.6 11.6 3.5.9 4.2-.3 1-1.6-1.5-.5-2.4-1.4-2.1-2 .3-.5-.1-1-1-1-1.1 0-1.5-.5-1.1-1.5.3-.8.1-1.5-.5-1.5s-.8-.9-.4-2c.4-1.2-.7-4.6-2.9-9-3.4-6.9-3.9-11.6-1.5-13.1 1.3-.8 0-3.9-1.6-3.9-.8 0-1.7.5-2.1 1.1-.4.8-1.3.1-2.3-1.7l-1.5-2.9-.6 3.1-.5 3.1-6-1.4c-3.3-.7-8.7-1.6-12-1.9-3.3-.3-6.7-.8-7.5-1.1-2.4-1-3.8-.4-10.8 4.4-11.9 8.2-17.6 9.6-22.2 5.8-.8-.7-2.9-1.6-4.7-2-1.9-.4-3.5-1.4-3.8-2.6-.4-1-1-1.9-1.5-1.9s-1.7-1.5-2.6-3.2c-1.5-2.8-1.5-4.1-.5-9.1 1.7-8 4.4-14 9.6-20.8 4.3-5.6 6.2-10.6 3.2-8.1-1.7 1.4-3.3.3-5.5-3.9-1-1.9-3.5-6.6-5.6-10.4-3.6-6.8-7.1-18.7-6.1-21.2.2-.7-.1-1.5-.7-1.9-.6-.4-.8-2.5-.4-5.4 1.2-8.7 2.3-10.7 8.4-14.2 5.1-2.9 12.1-8.2 19.6-14.8 3.9-3.4 9.7-11.4 13.4-18.3 3.8-7 5.3-13.9 9.1-39.4 1.5-9.9 1.6-14.3.9-24-.5-6.5-1.3-13-1.8-14.5-.5-1.7-.4-3.9.5-6.5 1.7-4.7 1.9-7.3.4-7.3-1.1 0-1.1-.9.7-22 1.1-12.3 16-35 28.3-42.8 11.7-7.5 25.6-10.9 19.5-4.7-2.4 2.4-1.1 2.8 3 .9 3.4-1.7 3.5-1.9 1.9-3.6-1.8-2-.2-2.5 1.9-.5.9.9 3.3 1.2 7.3 1l6-.4 2.8 4.4c2.9 4.6 5.3 6.9 10 10 3.1 2 3.4 1.5.9-2.1-.9-1.5-1.6-4.1-1.5-5.7.2-3.6-1.5-8.5-3.1-8.5-.6 0-.4-.4.4-1 1.2-.7 1.2-1.2 0-3.4-1.3-2.5-5-3.6-5-1.6s3 6.9 4.7 7.9c1.4.8 1.5 1.2.4 2.5-.9 1.1-1 1.6-.2 1.6.6 0 1.1.9 1.1 2s-.4 2-1 2c-.5 0-1-.6-1-1.3 0-.9-.2-.9-.8.1-.6.9-1.2.6-2-1.3-.6-1.4-1.7-2.5-2.3-2.5-.8 0-.8-.4.1-1.5 1.5-1.8 3.5-2 2.4-.3-.5.7-.3.8.6.3 1-.6.5-1.5-1.8-3.6-3.4-3.1-3.9-4.4-1.9-5.2.9-.4.8-.8-.3-1.6-1.8-1.3-1-2.1 2.6-2.5 1.5-.2 3-.9 3.2-1.6.3-.9-.1-1.1-1.2-.7-.9.4-1.6.1-1.6-.5 0-.7-.5-.6-1.5.2-1.3 1.1-1.4 1-.9-.4.6-1.5 1.7-2 3.7-1.7.4 0 .7-.4.7-1 0-.7.7-1.7 1.7-2.4 1.1-.8 1.4-1.8.8-3.1-.4-1-.7-2.3-.6-2.8.1-.5-.4-1.3-1-1.7-3.2-1.9 6.5-14.9 11-14.9 1 0 2.1-.6 2.4-1.4.7-1.8 8.5-3 10.2-1.6 1 .8 1.7.5 2.9-1.2 2.4-3.4 2-3.8-3.7-3.8-5.2 0-7.9-1.2-11.9-5.2-1-1-2.9-1.8-4.2-1.8-1.3 0-2.6-.7-3-1.5-.3-.8-1.2-1.5-2.1-1.5-.8 0-1.5-.9-1.5-1.9 0-1.8-2.1-2.3-3.6-.8-1.4 1.4-2 .6-1.7-2.1.3-1.8-.3-3.5-1.7-5-1.8-1.9-2-2.8-1.2-5 .6-1.5 1.3-4.8 1.6-7.5.6-4.8 2.3-8.2 6.3-12.7 2.3-2.5 3.1-7 1.3-7-.5 0-1-1-1-2.3 0-1.5-1.1-2.9-3.2-4.2-3.8-2.1-5.1-3.6-7.3-8.3-.9-1.8-2.3-3.6-3-3.9-3.6-1.3-20.6 4.6-23.6 8.3-1.3 1.6-6.5 1.9-7.4.4-.7-1.1-3.3-.9-5.4.4-.7.5-3.5.4-6.5-.2-11.7-2.6-19.4-4.1-24.3-4.7-2.9-.4-5.5-1.1-5.9-1.6-.8-1.4-9.3-1.1-15.9.6-3.3.9-9.4 3.7-13.5 6.3-4.1 2.5-11.5 6.6-16.5 9-7.7 3.8-9.6 4.3-13 3.7-2.2-.3-5.6-.8-7.5-.9-1.9-.2-4.7-.8-6.1-1.4-1.5-.6-3-.8-3.3-.5-.3.4-.6.1-.6-.5 0-1.3-8.6-7.2-10.6-7.2-.8 0-2.5-.5-3.6-1.1-1.2-.6-5.3-1.8-9.2-2.6-3.9-.8-7.5-1.8-8.1-2.2-1.6-1.2-9.4-3.7-28-9-3.8-1.1-12.7-3.1-19.6-4.6-7-1.4-16.4-3.6-21-5-4.6-1.4-9.1-2.5-10-2.5-2.5 0-19.5-5.8-23.7-8-2-1.1-4.4-2-5.3-2-4.5 0-29.2-13-35.1-18.4-1.2-1.1-7.5-6.1-14.2-11.2-6.7-5.1-14.1-10.9-16.6-12.8-10.1-7.9-15.5-11.6-17.2-11.6-1 0-3.5.6-5.5 1.4-5.7 2.2-14.2 3-30.8 2.9-11.3-.1-16.1-.5-19.5-1.8-5.8-2.1-18.4-4.5-23.6-4.5-5.5 0-9.8-1.6-16.6-6.2-6.1-4.1-19.8-20-19.8-22.9 0-1.6-2-6.7-3.9-9.9-1.5-2.6-3.5-7.5-3.3-8.3.1-.4-.4-2.2-1.1-4-.7-1.7-1.4-5-1.6-7.2-.1-2.2-.5-4.2-.9-4.5-.4-.3-.7-2.5-.8-5-.1-2.4-.6-4.6-1.3-4.8-.9-.3-.8-.7.2-1.6 1.2-.9 1.3-2.4.7-7.1-1-8.2-.7-10.8 4.1-32 2.2-10 2.8-10.6 5-5.3 2.6 6.5 14.2 16.7 22.2 19.7 4.9 1.9 13.9 1.2 26.4-2l12.1-3 10.7 3.1c5.9 1.7 11.5 3.5 12.4 4 11.1 5.7 42.1 19 44.3 19 .4 0 5.4 2.2 11 4.9 6.8 3.3 10.5 4.6 10.9 3.9.5-.7 1.6-.1 3.2 1.7l2.4 2.9-.5-3.2c-.3-2.7-.1-3.1 1.2-2.6 2.1.8 2-.5-.1-2.2-1.3-.9-1.4-1.3-.4-1.4.8 0 1.1-.6.7-1.6-.4-1 .3-2.6 2-4.2 2.4-2.5 2.5-2.7.7-4-1-.7-2.8-1-4-.7-1.2.3-2.5.1-2.8-.5-.3-.6-1.7-.7-3-.4-1.3.3-3.2.1-4.2-.5-1.4-.8-.8-1 3.2-1.1 6.8 0 4.1-1.7-4.5-2.6-8.4-1-5-2.2 6.5-2.3 8.3-.1 12.3 1 8.8 2.3-1.7.7-1.7.8 0 1.8 3 1.6 8.4.1 10.7-3.1 1.1-1.6 2-3.4 2-3.9 0-1.4 2.7-2.3 4.8-1.5 2.2.9 3.8 2.9 5.7 7.1 1.5 3.4 1.5 3.4 6.6 2.7 2.8-.4 6.3-1.3 7.7-2.1 1.5-.8 3.4-1.4 4.2-1.4.8 0 2.4-.7 3.4-1.5 2.7-2.1 5.3-2 3.6 0-2.4 2.9.9 1.6 6.3-2.4 9.1-6.8 8.6-6.7 17.4-1.5 9.4 5.7 12.7 8.4 11.4 9.7-1 1-6-1.4-9.7-4.6-1.8-1.5-3.1-1.7-6.8-1.2-2.5.4-5.3 1.3-6.3 2.1-1.6 1.2-1.4 1.3 2.3 1.4 3.1 0 4.6.6 6.7 2.8 1.5 1.5 2.7 3.1 2.7 3.5 0 1.2-2.3.8-3.9-.7-1.1-1-2.1-1.2-3.1-.6-1.8 1.1 6.4 5 15.8 7.4 7.5 1.9 7.2 1.9 7.2.6 0-.6-1-1-2.2-1-1.9 0-13.3-3.8-11.8-4 1.4-.1 14.1 2.9 18.4 4.4 3.2 1.1 6 1.4 8 1 5.6-1.4 6.5-1 9.9 4.1 2.8 4.3 3.9 5.2 8.2 6.2 5.1 1.3 12.4.3 12.6-1.7.5-6.4.1-8-2.8-10.4-1.7-1.4-3.4-2.6-3.7-2.6-.4 0-2-1-3.6-2.2-2.4-1.8-4.6-2.2-12.6-2.5-11-.4-16.6-1.4-17.1-3-.6-1.6 4.2-2.5 14-2.4 10.9.1 15.4-1.5 15.9-5.6.4-3.3-1.2-5-7.3-8l-4.5-2.2-9.9 2c-10.5 2.2-13.7 1.9-17.1-1.2-1.2-1.1-5-3-8.5-4.2-6.8-2.4-7.5-2.3-13.4 1.9-1.7 1.2-4.1 2.5-5.5 2.9-1.4.4-4.4 1.8-6.8 3.2-5.5 3.1-16.3 4.1-26.5 2.3-5.6-.9-7.9-1-9.5-.1-2.5 1.3-15.7-.1-25.2-2.6-3-.9-9.2-1.8-13.7-2.1-5.1-.3-8.1-.9-8-1.6.1-.6-2.9-1.6-6.8-2.3-3.8-.7-10.4-2.4-14.5-3.8-9.1-3-23.4-6.5-26.5-6.5-3.2 0-14.6-5.5-24-11.6-7.6-4.9-16.5-13.1-16.5-15.1 0-.6-2.3-3.1-5.1-5.8-3.6-3.4-6.3-7.3-9-13.1-3.5-7.5-4.6-8.8-9.9-12.4-3.3-2.2-6-3.6-6-3.1zM422.6 294c10.5 3.8 18.9 5.1 19.6 3 .2-.5 1.7-1.2 3.3-1.6 2.7-.5 3.1-.2 4.2 2.5 1.3 3.5 5.4 5.5 9.3 4.7 1.4-.2 3.3-.6 4.2-.8.9-.2 1.7.1 1.7.7.1.6-4.5 1-11.8 1-6.6 0-11.7-.3-11.5-.6.6-1-4.2-2-6-1.3-.9.3-2.2.1-3-.5-.7-.6-1.5-.9-1.8-.6-.3.3-1.1-.1-1.8-1-.7-.8-1.9-1.5-2.7-1.5-.7 0-2.3-.8-3.4-1.9-1.1-1-4.3-2.2-7-2.5-4-.5-5.9-.2-9.7 1.6-6.8 3.2-6.9 3.2-5.2 1.5 2.1-2.3 8.3-6.5 9.6-6.6.5-.1 5.9 1.7 12 3.9zm-213.3-1.3c-.7.2-1.9.2-2.5 0-.7-.3-.2-.5 1.2-.5s1.9.2 1.3.5zm16 2c-.7.2-1.9.2-2.5 0-.7-.3-.2-.5 1.2-.5s1.9.2 1.3.5zm101.4 13.9c-.3.3-1.2.4-1.9.1-.8-.3-.5-.6.6-.6 1.1-.1 1.7.2 1.3.5zM459 316c0 .9-2.3 1.5-4.5 1-.5-.1-2.7-.3-4.8-.4-6.7-.5-5.2-1.6 2.1-1.6 4.1 0 7.2.4 7.2 1zm12.5 5c.3.6-.1.7-.9.4-1.8-.7-2.1-1.4-.7-1.4.6 0 1.3.4 1.6 1zm-6.9 1.3c2.7 1.5 8.4 6.4 8.4 7.1 0 .3-1.8.6-4 .6-3 0-4.2-.5-4.6-1.8-.3-.9-1.1-2.9-1.9-4.5-1.5-3-1.1-3.3 2.1-1.4zm-60.9 137.9c2.2.9 2.4 1.2 1 1.5-2.3.6-8.7-1.6-8.7-2.9 0-1.1 3-.6 7.7 1.4zm54.8 23.9c1.5 1.5-1.3 1-4.5-.6-1.7-.9-3-1.7-3-2 0-.6 6.3 1.6 7.5 2.6zm130.5.5c0 .8-.5 1.2-1 .9-.6-.4-.8-1.1-.5-1.6.9-1.4 1.5-1.1 1.5.7zm7 .4c0 .5-.4 1-1 1-.5 0-1-.5-1-1 0-.6.5-1 1-1 .6 0 1 .4 1 1zm-130.1 1.6c1 .9-3.5.3-4.9-.6-1.1-.8-.7-.9 1.5-.4 1.7.4 3.2.8 3.4 1zm119.1 2c0 .2-.7.4-1.5.4s-1.5-.4-1.5-1c0-.5.7-.7 1.5-.4.8.4 1.5.8 1.5 1zm47.9 1c.2.2.2.6 0 .8-.7.7-8.9-1.5-8.9-2.4 0-.8 8 .6 8.9 1.6zm-156.9.6c1 .6.7.7-1 .2-1.4-.3-3.2-1.1-4-1.6-1-.6-.7-.7 1-.2 1.4.3 3.2 1.1 4 1.6zm104.3-.2c-.4.4-2.4 1-4.3 1.4l-3.5.6 2.9-1.9c2.6-1.8 6.8-1.8 4.9-.1zm88.7 2.9c.5 1.1 1 2.6.9 3.3 0 1-.2 1-.6 0-.2-.6-1-1.2-1.8-1.2-1.6 0-3.7-2.5-2.8-3.3 1.2-1.3 3.2-.7 4.3 1.2zm-96.3 1.5c0 .8-.8 1.1-2 .8-1.4-.4-1.6-.7-.5-1.3 1.9-1.2 2.5-1.1 2.5.5zm-7.7 7.7c0 .5-.7.9-1.5.9s-1.5-.7-1.5-1.5c0-.9.6-1.2 1.5-.9.8.4 1.5 1 1.5 1.5zm55.4 19.1c-.3.4-.9.8-1.5.8-.5 0-.9-.4-.9-.8 0-.5.7-.9 1.5-.9s1.2.4.9.9zM588 539c-.6 1.1-1.9 2-3 2-1 0-4.2 2.6-7.1 5.9-3.1 3.5-5.7 5.7-6.5 5.4-.8-.3-1.4 0-1.4.7 0 .6.5.8 1 .5 1.2-.7 1.2-.3.4 1.9-.3.9-1.1 1.3-1.7.9-.5-.3-.7-.1-.4.4.4.6 0 2.4-.8 4.1-2.4 4.6-3.7 13.7-3.2 21.5.5 7 5.5 27.3 6.5 26.2.3-.2.4-3.4.4-7-.1-4 .3-6.5 1-6.5.6 0 .3-1.1-.6-2.5-1.6-2.5-1.4-4.5.5-4.5.5 0 .9.7.9 1.5s.5 1.5 1 1.5c1.4 0 1.2-3.7-.2-4.3-.8-.3-.6-.6.5-.6 1.1-.1 1.7-.9 1.7-2.6 0-1.4.5-2.5 1-2.5.6 0 1-1.6 1-3.6 0-3.5 1.3-5.6 3.9-6.2 1.1-.2 1.2.6.7 3.5-1.9 10.2-1.9 11.6-.5 11.1.8-.2 1.5-1.9 1.7-3.6.4-3.5 1.1-3.9 3.1-2 1.1 1.1 1.4 1 1.8 0 .3-.6.9-1 1.4-.6.5.3.9-.2.9-1 0-.9-.5-1.6-1.1-1.6-.8 0-1-1.3-.6-3.8 2.2-13 4.9-20.6 4-11.2-.2 3-.9 6-1.4 6.6-1.2 1.4.5 2.9 2.1 1.9.6-.3 2-.3 3.1 0 1.6.6 2 1.3 1.6 3.3-1.6 7.9-4 13.7-7.1 17.4-5.1 5.9-10.3 16.8-11.6 24-.6 3.5-2 8.8-3 11.8-3.7 10.7-5.2 19-4.5 25.9.9 8 3.7 15.1 6.5 15.8 3 .8 2.5 2.4-2.7 7.5-7 6.7-22 14.8-27.6 14.8-2.1 0-2.1 0-.1-1.6 1.8-1.5 1.8-1.5-.6-.9-1.4.3-5.5.9-9.2 1.2-6.2.5-7.2.3-10.8-2.1-2.2-1.4-4.4-2.6-4.8-2.6-.5 0-2.6-1.4-4.7-3-2.1-1.7-4.3-3-5-3-2.5 0-5.9-5-5.8-8.5.1-1.9-.3-3.5-.9-3.5-.5 0-.6-.5-.3-1.1.4-.6-.1-1.6-1.1-2.3-1.6-1.2-1.7-2.8-1.1-19.1.7-18 2.2-26.6 5.7-33 6.2-11.2 8.3-14.5 9.8-15.7 1.5-1.2 1.6-1.1.4.4-.7.9-.9 1.9-.4 2.2.5.3 2.9-1.7 5.3-4.5 2.3-2.7 4.8-4.8 5.5-4.5.7.3 2-.5 3.1-1.6 1.3-1.5 1.5-2.2.6-2.5-.7-.3-1.3-.9-1.3-1.5 0-.7.5-.6 1.4.1 1 .8 2.1.9 4.2.1 1.5-.6 3.4-.8 4.1-.5 1.7.6 1.3 2.2-3 12-1.6 3.8-3.2 8.4-3.4 10.1l-.3 3.1 3.9-3.6c2.4-2.2 4.6-5.6 5.7-8.9 1-2.8 2.2-5.2 2.6-5.2.5 0 2.4-3.3 4.4-7.3 3.6-7.4 3.9-6.9 1.8 3.3-1.2 6 1.1 2.1 3.9-6.7 1.5-4.5 2.7-8.9 2.7-9.6 0-.8 1.6-5.4 3.6-10.3 2.8-7 4.6-9.9 8.5-13.7 2.8-2.6 4.7-5.2 4.4-5.7-.3-.5.4-1.4 1.7-2.1 1.5-.8 2.3-.8 2.6-.1.2.7 1.2.5 3-.4 3.5-1.8 3.5-1.8 2.2.6zm.7 22.2c-.3.7-.5.2-.5-1.2s.2-1.9.5-1.3c.2.7.2 1.9 0 2.5zm-44.7 1.9c0 .5-.7.9-1.5.9-1.5 0-2-1.2-.9-2.3.8-.8 2.4.1 2.4 1.4zm9.5-1.1c-.3.5-1.2 1-1.8 1-.7 0-.6-.4.3-1 1.9-1.2 2.3-1.2 1.5 0zm-4 1.9c-.3.6-1.4 1.1-2.3 1.1-1.3 0-1.3-.2.4-1.4 2.1-1.5 3-1.4 1.9.3zm-10.9.6c-.3.8 0 1.5.6 1.5s-.2 1.3-1.8 3c-1.6 1.6-3.7 3-4.6 3-.9 0-2.3.9-3 1.9-.8 1.1-2.6 2.5-4 3.1-2.5 1.2-5.1 5-5.2 8-.1.8-1.1 1.6-2.3 1.8-1.2.2-2.4 1.3-2.7 2.7-.3 1.3-1.5 2.7-2.6 3-1.1.3-2 1.1-2 1.7 0 .6.6.6 1.5-.2 1.2-1 1.5-1 1.5.4 0 1-.8 1.6-2.1 1.6-1.4 0-1.9.5-1.6 1.3.3.8.1 2-.4 2.8-.7 1.1-.9 1-.9-.4 0-1.7-.1-1.7-1.6-.3-1.5 1.6-1.1 4.1.6 3.1.4-.3.6.4.3 1.5-.7 2.5-3.3 2.6-3.3.2 0-1-.3-2.2-.7-2.6-1.1-1.1-1.2-3.7-.1-3 1.3.8 5-2.7 4.4-4.3-.3-.7-.2-1.5.3-1.7.4-.3.6-2.2.5-4.3-.1-2.1 0-3.2.3-2.6.8 2.2 3.6 1.5 3-.7-.3-1.1-.1-2 .5-2s2.4-1.2 4.1-2.6c2.4-2 3.2-2.2 3.9-1.2.7.9.8.6.5-1-.8-3.5.2-5.2 2.9-5.2 1.3 0 2.4-.5 2.4-1.1 0-.6.9-.8 2-.4 1.7.5 2 .2 2-2.1 0-2.1.3-2.5 1.1-1.7.6.6 1.8.9 2.5.6 2.1-.8 1.7-3.3-.6-3.3-1.1 0-2-.5-2-1 0-.6 1.6-1 3.6-1 2.8 0 3.5.3 3 1.5zm17.4 1c-.7.9-1.5 1.3-1.7 1.1-.7-.7.7-2.6 1.9-2.6.6 0 .6.6-.2 1.5zm-26 2.4c0 .5-.7 1.1-1.5 1.5-1.5.5-2-.5-.8-1.7.9-1 2.3-.9 2.3.2zm-2 10.5c0 .3-.4.8-1 1.1-.5.3-1 .1-1-.4 0-.6.5-1.1 1-1.1.6 0 1 .2 1 .4zm11 1.8c0 .7-.5 2-1 2.8-.8 1.2-1 .9-1-1.3 0-1.5.5-2.7 1-2.7.6 0 1 .6 1 1.2zm-37 22.3c0 .8-.7 1.5-1.5 1.5s-1.5.8-1.5 1.9c0 2.7-2.6 4.6-3.4 2.5-.4-.9-.9-1.4-1.3-1.1-.3.4.2 1.8 1.1 3.1 1.4 2.2 1.4 2.6.1 3.3-1.3.8-1.3 1.2-.2 2.7 1.2 1.6 1.6 1.5 5.5-2.5 3-3.1 4-3.7 3.6-2.2-.6 2.3-8.4 9.1-8.4 7.3 0-2.3-1.9-.3-7.4 7.9-4.8 7-15.8 26.2-20 34.8-1.9 3.9-2.8 2.5-2.2-3.1.5-4.9.3-5.4-1.9-6.4-1.4-.7-2.5-1.5-2.5-2 0-1.8 1.3-2 3.6-.5 2.6 1.7 4.5 1 2.6-.9-.6-.6-.8-1.6-.3-2.2.4-.6 1.1-2.4 1.5-4 .6-2.3.4-2.7-.8-2.3-.8.3-1.6-.2-1.9-1.3-.4-1.8-.3-1.8 2.8-.2 1.8 1 3 2.3 2.8 2.9-.8 2.1.5 1.5 1.7-.8.9-1.7.8-2.3-.6-3.3-1.6-1.2-1.6-1.4.1-4 1.3-1.9 2.1-2.4 2.8-1.7.6.6 1.6 1.1 2.3 1.1 1.4 0 5.6-6.8 4.9-8-.3-.4.2-1 1-1.4 1.1-.4 1.3-1.4.8-3.7-.5-2.7-.4-3.1 1-2.6 2.4.9 3.2-1.1 1.3-3.2-.9-1-1.6-2.1-1.6-2.4 0-.9 2.7-.9 3.3 0 .2.5.2.2.1-.4-.2-.7.6-1.7 1.6-2.3 1.1-.6 2-1.8 2-2.6 0-.9 1.4-2.1 3-2.7 1.7-.6 3-1.5 3-1.9 0-.4.7-.8 1.5-.8s1.5.7 1.5 1.5zm-.4 8.1c-1.8 1.7-2.6 1.8-2.6.1 0-.7.9-1.3 2-1.4 1.8-.2 1.8 0 .6 1.3zM479 623c0 .5-.5 1-1.1 1-.5 0-.7-.5-.4-1 .3-.6.8-1 1.1-1 .2 0 .4.4.4 1zm-4.2 3.5c-1.2 2.6-2.8 2.9-3.6.7-.3-.9 1.8-2.4 4.5-3.1.2-.1-.3 1-.9 2.4zm134.2 26c0 .8-.4 1.5-1 1.5-.5 0-.7-.7-.4-1.5.4-.8.8-1.5 1-1.5.2 0 .4.7.4 1.5zm-7 6.8c0 2.3-.2 2.2-1.9-1-1-1.9-.9-2.2.4-1.7.8.4 1.5 1.5 1.5 2.7zm6.8-.3c.5 1.3.3 1.3-1.1.1-1.2-.9-1.7-1-1.7-.2 0 .7-.5.9-1 .6-1.5-.9-.1-2.7 1.8-2.3.8.2 1.8 1 2 1.8zm-143.5 7.3c-.4.6-.8 2.1-.8 3.1 0 2.8-1.8 3-3.4.4-1-1.7-1.1-2.3-.2-2.6.7-.2 1.7-1.6 2.2-3.1.9-2.3 1.1-2.4 2-.8.6.9.7 2.3.2 3zM449 671c0 .5-.5 1-1.1 1-.5 0-.7-.5-.4-1 .3-.6.8-1 1.1-1 .2 0 .4.4.4 1zm138 3.7c.8 1.6 1.5 3.2 1.6 3.8 0 .5.5 1.9 1 3 2.2 4.9.5 29.1-2.4 35.7-1.1 2.3-2.5 6.2-3.2 8.6-.6 2.4-2 5.9-3 7.7-1.4 2.4-1.6 3.5-.7 3.8.8.3.4 1.3-1.1 2.9-1.2 1.4-3.7 6-5.6 10.4-1.8 4.3-5.2 12.3-7.5 17.8-3.8 8.6-4.2 10.4-3.6 14.5.4 2.5 1.1 5.4 1.6 6.3 1.1 2.1 4 2.3 5.7.6 1.5-1.5 1.6-.3.2 2.3-.6 1-1.7 1.9-2.4 1.9-.8 0-1.6.7-2 1.5-.3.8-1 1.5-1.6 1.5-.7 0-.7-.7 0-2.3 1-2 .9-2-.9.3-1.1 1.4-2.1 2.9-2.1 3.5 0 .5.5.3 1.1-.5.8-1.1.9-.8.4 1.5-.4 1.6-1.3 6.2-2 10.2-.7 4-2 7.9-2.9 8.8-.9.9-1.6 2-1.6 2.4 0 .4-2.2 2.3-4.9 4.1-7.2 5-7.2 5-4 17.5 1.6 6.1 2.8 11.2 2.9 11.4 0 .2-.7-.2-1.5-.9s-1.5-1.7-1.5-2.2c0-.5-1.1-2.1-2.5-3.6s-3.1-4.7-3.9-7.2c-.8-2.5-2.6-7.8-4.1-11.8-2.4-6.7-2.5-7.8-1.6-14.5.6-4 2.4-11.9 4-17.7 2.7-9.7 4.9-20.4 4.9-24 0-.8.4-3.9.8-6.8.6-4.4.4-5.2-1-5.2-.9 0-1.6.7-1.6 1.5 0 .9-.6 1.2-1.5.9-.8-.4-1.5-1-1.5-1.6 0-.5.6-.6 1.3-.3.6.4.4 0-.6-.8-1.8-1.5-.7-3.4 1.3-2.2 1.7 1-1.1-5.3-3.4-7.9-1.6-1.6-2.6-4.3-3-7.9-.5-3.5-1.4-6.1-2.7-7.3-1-.9-1.9-2.4-1.8-3.3 0-1.2.3-1.1.9.4.7 1.6.9 1.7.9.3.1-1 .8-1.5 1.9-1.3 1 .1 1.6.9 1.4 2.1-.2 1.6-.1 1.7.7.4.8-1.2 1.1-.7 1.2 2 0 2.6.2 3 .8 1.6.4-1 .2-3.4-.3-5.2-.8-2.6-1.5-3.2-2.8-2.8-1 .3-1.8.1-1.8-.5s.9-1.1 2-1.1 2-.7 2-1.6c0-.8.5-1.2 1-.9.6.4.8 1 .5 1.5-.9 1.5 1.4 5 2.9 4.4.8-.3 1.9-2.9 2.4-5.7.5-2.9 1.2-5.9 1.6-6.8.4-.9-.3-2.6-1.9-4.3-2.8-3-3.4-5.9-1-5 .8.4 2.2.1 3-.6 1.2-1 1.5-.9 1.5.4 0 .9-.4 1.6-.9 1.6s-.8 1.1-.8 2.5c0 2.9 1.8 3.3 3.8.8.8-1 .9-1.4.2-1-2.2 1.4-2.4-1.2-.2-3.4 2.1-2.1 2.3-2.1 3.5-.5.6.9 1.5 1.3 1.8.8.3-.6-.1-1.3-1-1.6-.9-.4-1.4-1.3-1-2.2.3-.8.2-1.2-.4-.9-.6.3-1 .1-1-.4 0-1.6 1.9-1.3 3.6.4 1.1 1.1 1.2 1.5.3 1.5-.7 0-.9.3-.5.7 1 1 6.7-5.7 5.9-7-.3-.6-.2-.7.4-.4.5.3 3.3-.8 6.3-2.5 3.7-2.1 4.9-3.2 4-3.8-.7-.5-1.8-.7-2.4-.6-.6.2-.8.1-.3-.1.4-.3.6-.8.4-1.1-.2-.4.4-1.5 1.5-2.5 1.4-1.3 1.8-1.4 1.8-.3 0 .8-.6 1.7-1.2 1.9-.8.3-.6.6.5.6.9.1 1.7.6 1.7 1.2 0 .8.5.7 1.6-.2 1.4-1.1 1.4-1.3 0-2.1-2.3-1.3-1.9-3.3.9-5.2 1.4-.9 3.3-3.4 4.3-5.4 1.7-4 4.1-7.2 5.2-7.2.4 0 1.3 1.2 2 2.7zM460.5 676c-.2 1.1 0 2.2.5 2.5.9.6.2 4.4-1.2 6.1-.5.7-.7 1.8-.6 2.5.2.8-.3 1.3-.9 1.2-.8-.2-1.1.6-.7 2.5.6 3.8-.9 6-3 4.3-2.7-2.3-1.7-7.6 2.1-11.8.9-1 1.2-1 1.6.5.4 1.5.5 1.5.6 0 0-.9-.9-2.4-2-3.2l-2.1-1.4 2.1-1.4c1.1-.7 2.1-2.1 2.1-3.1s.4-1.6.9-1.2c.6.3.8 1.4.6 2.5zm-13.6 2.1c-1.2 4.2-2.1 8-2.2 9.6 0 .7-.4 1.3-.8 1.3-1.5 0-1.6-2.6-.3-5.9.8-1.8 1.4-4.1 1.4-5 0-1.6 2-4.4 2.7-3.8.1.2-.2 1.9-.8 3.8zm-.9 12.3c0 .3-.4.8-1 1.1-.5.3-1 .1-1-.4 0-.6.5-1.1 1-1.1.6 0 1 .2 1 .4zm68.5 4.6c-1.1 1.7-2.3.1-1.8-2.1.5-1.9.7-1.9 1.5-.5.5.9.6 2.1.3 2.6zm50.9-1.2c.2.4-.2 1.6-1 2.7-.8 1-1.4 1.7-1.5 1.4 0-.2-.2-1.4-.5-2.7-.4-2.1 1.8-3.2 3-1.4zm-105.7 2.4c-.3.8-.6.5-.6-.6-.1-1.1.2-1.7.5-1.3.3.3.4 1.2.1 1.9zm99.4 1c-1.3.4-2.6.6-3.1.3-.4-.3-1.1.2-1.4 1.1-.3.8-1 1.3-1.5.9-1.9-1.1.1-3.4 3.2-3.7 4.2-.4 5.7.3 2.8 1.4zm-35.4-.6c-.3.3-1.2.4-1.9.1-.8-.3-.5-.6.6-.6 1.1-.1 1.7.2 1.3.5zm27.7 1.6c-.3 1.3-1.1 2.4-1.5 2.6-.5.2-.9 1.2-.9 2.3 0 2.8-2.6 2.3-4.9-1l-2.1-2.9 3-.7c1.6-.4 3-1.1 3-1.6s.9-.9 2.1-.9c1.7 0 1.9.4 1.3 2.2zm-36.4-.4c0 .4 1.4 1.6 3.1 2.6 1.7 1 2.9 2.3 2.6 2.9-.2.7.2 2.5.9 4.2 1.1 2.6 1.3 2.7 1.4.7 0-3 1.8-2.8 3.3.5.6 1.6 1.8 3.3 2.5 3.8 1.7 1.3 2.8 13 1.3 14-.6.3-.9 1.1-.6 1.6.4.5.1.9-.4.9-.6 0-1.1-.8-1.2-1.8 0-1-.3-1.2-.6-.5-.2.7-.8 1.3-1.3 1.3-.9 0-9.5-14.7-9.5-16.4 0-.6-.6-2.1-1.3-3.4-1.6-2.8-2.4-11.2-1.1-11.2.5 0 .9.4.9.8zm25 7.2c0 .5-.5 1-1.1 1-.5 0-.7-.5-.4-1 .3-.6.8-1 1.1-1 .2 0 .4.4.4 1zm-82.3 2.2c-.3.8-.6.5-.6-.6-.1-1.1.2-1.7.5-1.3.3.3.4 1.2.1 1.9zm81.3 1.7c0 .5-.7 1.4-1.6 2.2-1.3 1-1.7 1-2.5-.2-1.4-2.3-1.1-2.9 1.6-2.9 1.4 0 2.5.4 2.5.9zm-5 2.2c0 .7 1.2 2.3 2.6 3.6 3.2 3 2.9 3.5-1.2 1.8-3.3-1.4-5.5-6.5-2.8-6.5.8 0 1.4.5 1.4 1.1zm7.7 7.6c-.3 1-.5.2-.5-1.7s.2-2.7.5-1.8c.2 1 .2 2.6 0 3.5zm-5.7 1.8c0 .8-.6 1.5-1.3 1.5-.8 0-1.4-.7-1.4-1.5s.6-1.5 1.4-1.5c.7 0 1.3.7 1.3 1.5zm-9 15.5c0 1.3-.1 1.3-1 0-.5-.8-1-2.2-1-3 0-1.3.1-1.3 1 0 .5.8 1 2.2 1 3zm9.4 16.6c-.2 4.5-1.1 5.4-1.2 1.2-.1-2.7.4-4.8 1.1-4.8.1 0 .2 1.6.1 3.6zm-.7 9.6c-.3.8-.6.5-.6-.6-.1-1.1.2-1.7.5-1.3.3.3.4 1.2.1 1.9zm4.4 2.2c1.4-.8 1.1 5.1-.5 8l-1.4 2.7-.7-3.8c-.4-2.1-1.2-4.1-1.8-4.5-.8-.5-.6-1.2.8-2.2 1.1-.8 2.2-1 2.3-.5.2.5.8.7 1.3.3zm-106.9 57.8c-.3 3.7.2 7.2 1.7 11.5 1.2 3.4 2.1 6.8 2.1 7.5 0 .7 1.3 4 2.8 7.3 2.5 5.4 2.8 6.9 2.5 14.5-.6 13.3 1 17.9 4.7 13.5.7-.8 1.7-1.5 2.2-1.5 1.4 0-.2 11.7-2.4 18-1.1 3-2.5 7.5-3.2 10-1.6 5.4-4.6 10.8-9.4 16.9-4.9 6.2-20 20.8-23.5 22.7-3.6 1.9-6 4-16.3 14.1-4.7 4.6-8.9 8.3-9.4 8.3-.6 0-1-.9-1-2 0-1.3.7-2 2-2 1.9 0 2.1-.4 2.4-3.9.1-.7 1.4-2.3 2.9-3.5 2.7-2.2 3-5.6.3-5.6-.6 0-1.7-.9-2.4-2-1.3-2.2-.3-2.7 1.5-.9.9.9 1.3.3 1.7-2.2.3-1.9.5-4.1.4-4.9 0-.8.3-2.4.7-3.5.6-1.7.5-1.7-.9.3-1 1.2-1.4 2.7-1.1 3.2.3.6-.3 1-1.4 1-2.6 0-2.6.1.4-5.6 1.4-2.6 2.5-5.2 2.5-5.8 0-.6 1.7-3.7 3.7-6.9 3.1-5 3.9-5.6 4.8-4.3.7.9 1.5 1.3 1.8 1 .3-.4 0-1.3-.8-2-1.8-1.8-.9-4.4 1.6-4.4 1.1 0 1.9-.7 1.9-1.8 0-1.5-.2-1.5-1.1-.2-.9 1.2-.9 1.1-.3-.5.4-1.1 1.2-3.5 1.8-5.3.7-2 1.6-3 2.4-2.7 1.4.5 4-4.8 4.8-9.5.3-1.4 1.1-4.2 2-6.3 1-2.6 1.2-5.1.7-7.5-.4-2.1-.6-4.2-.4-4.7.1-.5-.1-.7-.5-.3-1.2 1.3-6.5-8.8-7-13.4-.2-1.5-.4-3.1-.5-3.5-.1-.4-.1-1.7 0-2.8.1-1.5.4-1.6 1.3-.7 1.4 1.4 2.8 1.6 2.8.4 0-.5-1-1.4-2.2-2l-2.3-1.1 2.2-.7c1.8-.5 2.2-1.1 1.7-3-.5-1.9-.1-2.6 1.8-3.3 2.6-1 5.8-5.1 5.8-7.4 0-.7 1.3-2.6 2.8-4.3 1.5-1.6 4.5-5.3 6.7-8.2 2.1-2.8 4.2-5.2 4.5-5.2.4 0 .5 2.4.2 5.2zm93.1 17.5c-.6.7-1.8 1-2.6.7-1.1-.4-1.2-1.3-.4-4.3l1.1-3.9 1.5 3.2c1.3 2.4 1.4 3.4.4 4.3zM357 837.9c0 .5-1.2 1.4-2.7 1.9-1.6.6-2.2 1.1-1.4 1.1 1.1.1 1 .5-.5 1.6-1 .8-2.3 1.4-2.9 1.5-.5 0-.3-.5.5-1 1.3-.8 1.3-1 .1-1-.8 0 0-1.1 1.9-2.5 3.6-2.6 5-3.1 5-1.6zm-76.6 4.7c.5 1.4.4 1.5-.9.4-1.7-1.4-1.9-2-.6-2 .5 0 1.2.7 1.5 1.6zm128.6.9c-.7.9-1.5 1.3-1.7 1.1-.7-.7.7-2.6 1.9-2.6.6 0 .6.6-.2 1.5zm118.4.1c.3.8 1 1.2 1.6.9.5-.3 1 .3 1 1.4 0 1.2.5 2.1 1 2.1.6 0 1 .4 1 1 0 1.8-2.2 1-2.7-1-.4-1.6-.8-1.8-1.9-.9-.8.6-1.4.8-1.4.3s-.3-1.9-.6-3.2c-.7-2.5 1.1-3.1 2-.6zm-185.8 4c-3.2 1.4-6.8 2.3-8 2.1-1.9-.3-1.8-.5.9-1.7 3-1.3 8.7-2.7 11.5-2.8.8-.1-1.1 1-4.4 2.4zm62.3 2.6c-.8 4.7.2 10.8 2.6 15.4.8 1.6 1.5 3.2 1.5 3.7 0 .4 1.1 2.5 2.5 4.7 2.8 4.4 3.2 8.6 1.1 11.6-1.7 2.3-6.6 12.1-9.2 18.1-1 2.4-2.2 4.3-2.7 4.3-.4 0-.6.8-.2 1.9.4 1.4-.1 2-2 2.5-1.5.4-2.5 1.2-2.2 1.9.2.6-1.8 5.5-4.4 10.7-4 8-5.7 13-9.4 27-.2.8-1 3.3-1.8 5.5s-2 8-2.8 12.8l-1.3 8.8-1.3-5.3c-2-8.6-1.6-14.9 1.3-21.2 1.4-3.1 2.9-5.6 3.4-5.6s1.8-2.9 3-6.4c1.1-3.5 3.7-9.5 5.5-13.3 1.9-3.7 3.5-7.6 3.5-8.5 0-.9.4-1.9.9-2.3.5-.3 1.7-3.1 2.6-6.3.9-3.1 2.1-6.2 2.6-6.8 2-2.4 5.1-13.2 5.5-18.7.4-5.1.1-6.1-1.8-7.8-1.6-1.4-1.9-2.2-1.1-2.5 1-.4.9-.9-.3-2.1-1-1-1.3-2.5-.9-4.4.5-2.1.3-2.9-.7-3-.7 0-.5-.4.6-.8 1.7-.7 1.7-.8.2-2.4-1-.9-1.4-1.7-.9-1.7.4 0 .8-1.7.8-3.8.1-3.4 3.7-10.2 5.6-10.2.3 0 .3 1.9-.2 4.2zm-7.9-.8c0 .7-.7 2.9-1.5 4.9-1.1 2.7-2.2 3.7-4.7 4.2-3.5.8-7.1 3.1-12.9 8.6-4.3 4.1-9 13.8-11.4 23.4-.9 3.8-2.2 8-2.7 9.2-.8 1.6-.7 3.5.2 6.7.7 2.5 1 5.6.7 6.8-.4 1.2-.3 2.7.2 3.2.4.6 1.6 4 2.6 7.6.9 3.6 2.6 9 3.6 12 2.6 7.9 3.3 14.4 1.9 16.9-1.1 2.1-1.3 2-3.5-2.6-1.3-2.6-2.9-6.7-3.5-9.1-.6-2.3-1.5-4.2-2-4.2-.6 0-1-1.6-1-3.5s-.4-3.5-.8-3.5c-.8 0-3.1-5.1-3.8-8.5-1.3-6.1.2-17.2 3.6-25.8 1.6-4.3 3-9.1 3-10.6 0-5.9 4.5-16.4 9.2-21.3 3.6-3.9 3.8-4.2 3.8-6.1 0-1.4 6.6-5.1 13-7.2 4-1.3 4.1-1.4 1-1-2.7.4-3 .3-1.5-.4 3-1.4 6.5-1.3 6.5.3zm135 7.4c1.3 1.1 1.2 1.2-.7.7-1.8-.5-2.2-.3-1.6 1 .5 1.5.3 1.5-1.6.4-1.1-.8-2.1-2.2-2.1-3.2 0-1.1.5-1.5 1.1-1.1.8.4.9-.1.4-1.7l-.7-2.4 1.8 2.5c1 1.4 2.5 3.1 3.4 3.8zm11.4-2.1c2.9 3.7 4.7 9.1 4 12-.5 1.9.2 3.1 3.3 6.1 4 3.6 4 3.8 3.4 9.1-.6 5.2-.7 5.4-2.3 3.7-1-1-1.8-2.6-1.8-3.7 0-1-.5-1.9-1.1-1.9-.6 0-.9-.6-.6-1.4.3-.8-.1-1.7-.9-2-.8-.3-1.4-1.3-1.4-2.2 0-1-.7-2.5-1.5-3.4-2-2.3-3-11.1-1.3-12.2 1-.6.7-1-1-1.4-1.8-.5-2-.9-1.1-2 .8-1 .8-1.4 0-1.4-.6 0-1.1-.5-1.1-1 0-1.7 1.1-1.1 3.4 1.7zM372 855.9c0 .6-.5 1.3-1.1 1.7-4.2 2.5-13.3 22.8-15.5 34.3-.1.8-1 3.7-1.9 6.5-.9 2.8-2.1 7.1-2.6 9.6-.4 2.5-1.4 6.9-2.1 9.7-.9 3.9-.9 6.7-.2 10.3.6 2.9.7 5 .2 5-.5 0-1.6.7-2.4 1.5-.9.9-1.1 1.5-.4 1.5.6 0 .8.5.5 1-.5.8-1.1.7-2.1-.1-1.7-1.4-1.8-3.9-.1-3.5.6.1.9.1.4-.2-1.5-.8-3.7-6.2-3.8-9.4-.2-3-.2-3.1-.6-.6-.2 1.6-1 2.8-1.8 2.8-1.4 0-3.1-3.7-2.1-4.7.3-.3-.5-2.4-1.6-4.7-1.2-2.2-2.3-4.6-2.4-5.2-.1-.6-.5-2.5-.8-4.1-.6-2.4-.3-3.2 1.1-3.7 1.1-.4 2.2-.1 2.9.8 1.5 2.1 2.5 2 1.7 0-1.3-3.3-.8-8.9 1-10.9s1.9-3.5.2-3.8c-.6-.1-1.1.8-1.3 2.1-.2 1.3-.9 2.1-1.5 1.9-2-.6-1.9-2.5.3-4.7 1.6-1.6 1.9-2.5 1.1-3.4-.8-1-.7-1.7.4-2.6 1.1-.9 1.5-.9 1.5-.1 0 .7.5.9 1 .6.6-.3 1-1.7 1-3s.8-3 1.8-3.7c1.1-.7 2.4-2.3 3.1-3.5.6-1.3 2.1-2.8 3.2-3.4 1.7-.9 2.5-.7 4.2 1.2 2.1 2.2 2.2 2.2 2.6.4.2-1.1-.2-2.1-.8-2.3-1.5-.5-1.4-2.2.2-2.2 1.7 0 7.7-5.3 7.7-6.9 0-1.3 5.8-5.1 7.8-5.1.6 0 1.2.4 1.2.9zm18.4 5.5c-.3.7-1.7 1.9-3.2 2.7-1.5.8-3.4 2.3-4.2 3.4-.8 1.1-2.6 3.2-4.1 4.7-1.4 1.5-3.9 5.6-5.4 9.2-1.5 3.6-3.1 6.6-3.6 6.6-1 0 2.4-11 4.6-14.6 2.8-4.5 11.9-12.9 14.3-13.1 1.3-.1 1.9.3 1.6 1.1zm141.1-.4c.3.5.1 1-.4 1-.6 0-1.1-.5-1.1-1 0-.6.2-1 .4-1 .3 0 .8.4 1.1 1zm-4.5 4.2c0 .6.3.8.6.5 1.2-1.1 4.4 1.3 4.4 3.3 0 1.1.5 2 1.1 2 .5 0 .7.4.4 1-.3.5-.1 1 .5 1s.8.5.5 1c-.4.6.7 3.2 2.4 5.9 3.6 5.6 4.1 8.7 1.2 7.2-1-.6-2.3-2.3-2.9-3.9-.5-1.5-1.6-3.5-2.3-4.3-1.8-1.8-3.9-6.5-3.9-8.7 0-.9-.9-2.3-2-3-2.1-1.3-2.7-3.2-1-3.2.6 0 1 .5 1 1.2zm115.9 30c.1.5-.5.8-1.3.8-.9 0-1.2-.8-.8-2.7.5-2.5.6-2.5 1.3-.8.4 1.1.8 2.3.8 2.7zM321 893c0 .5-.5 1-1.1 1-.5 0-.7-.5-.4-1 .3-.6.8-1 1.1-1 .2 0 .4.4.4 1zm60.3 3c-.6 2.4-2.3 3.7-2.3 1.8 0-1.2 1.8-3.8 2.6-3.8.1 0 0 .9-.3 2zm264.7-.5c0 .8-.4 1.5-1 1.5-.5 0-.7-.7-.4-1.5.4-.8.8-1.5 1-1.5.2 0 .4.7.4 1.5zM333 900c0 2-.2 2.2-1 1-.5-.8-1-2.6-1-4 0-2 .2-2.2 1-1 .5.8 1 2.6 1 4zm78-4c0 .5-.4 1-1 1-.5 0-1-.5-1-1 0-.6.5-1 1-1 .6 0 1 .4 1 1zm121.5 1c.3.5.1 1-.4 1-.6 0-1.1-.5-1.1-1 0-.6.2-1 .4-1 .3 0 .8.4 1.1 1zm-144.9 6.8c-1.1 1-1.4-.3-.7-3.8l.6-3.5.3 3.3c.2 1.9.1 3.6-.2 4zm-79.6.7c0 1.4-.4 2.5-1 2.5-1.1 0-1.4-3.3-.3-4.3 1.1-1.1 1.3-.8 1.3 1.8zm69-1.1c0 .3-.4.8-1 1.1-.5.3-1 .1-1-.4 0-.6.5-1.1 1-1.1.6 0 1 .2 1 .4zm9.7 6.8c-.3.8-.6.5-.6-.6-.1-1.1.2-1.7.5-1.3.3.3.4 1.2.1 1.9zm-82.7-.8c0 .3-.4.8-1 1.1-.5.3-1 .1-1-.4 0-.6.5-1.1 1-1.1.6 0 1 .2 1 .4zm141.1 4.3c-1.2 2-1.4 1.4-.5-1.2.4-.9.9-1.4 1.1-1.1.3.2 0 1.3-.6 2.3zM303 913c0 .5-.5 1-1.1 1-.5 0-.7-.5-.4-1 .3-.6.8-1 1.1-1 .2 0 .4.4.4 1zm-3.3 7.2c-.3.8-.6.5-.6-.6-.1-1.1.2-1.7.5-1.3.3.3.4 1.2.1 1.9zm55.3 20.9c0 1.1.5 1.9 1 1.9.6 0 1 .7 1 1.5s.9 2.3 2 3.2c1.1 1 2 2.1 2 2.5 0 .4 1.6 4.2 3.6 8.4 2.8 6 3.8 9.6 4.5 17.2.6 5.2.8 10.1.5 10.9-.3.8-.2 1.2.3.9.8-.5 2.3 2 3.5 5.6.3 1-.3 5-1.4 9-1 4-1.8 9.1-1.8 11.3.1 2.2-.3 8.8-.7 14.7-.6 8.4-1.1 10.8-2.3 10.8-.8 0-1.2.6-.8 1.5.7 2-.3 4.5-1.9 4.5-.7 0-2-1.1-2.8-2.4-1.2-1.7-2.2-2.2-4.1-1.9-1.4.3-2.3.9-2 1.4 1.3 2.1-1.1.6-3.7-2.2-1.6-1.8-3-4.9-3.4-7.3-.4-2.3-1.8-5.3-3.3-6.9-2-2.1-2.5-3.6-2.3-6.5.2-2 .3-5.1.2-6.7-.1-8 0-11.3.4-15 .7-6 1.6-9.9 2.6-11.1.5-.7 1-2.8 1.1-4.8.1-2.2.8-4.1 1.7-4.6 1-.6 1.1-1 .4-1-1.8 0-1.6-2.9.3-3.7.8-.3 1.3-1.2.9-2.1-.3-.8.3-3 1.4-4.8 1.2-2 1.6-3.6 1-3.9-.5-.4-.7-1-.4-1.5.3-.5-.3-1.3-1.2-1.9-1.6-.9-1.6-1.2-.3-2 .8-.6 1.1-1.3.7-1.7-.4-.4.1-1.3 1.1-2 .9-.7 1.2-1.4.6-1.4-.7 0-1.1-2.6-1.2-7 0-6 .2-6.9 1.4-5.9.8.6 1.4 2 1.4 3zm30.4 17.4c.3.8.1 1.5-.4 1.5-.6 0-1-.7-1-1.5s.2-1.5.4-1.5.6.7 1 1.5zm-103.8 4c.7 2.9-.3 9.4-1.8 11.2-.7.9-.7 1.3.1 1.3.6 0 1.1.5 1.1 1.1 0 .5-.5.7-1.2.3-.7-.5-.8-.3-.3.6.4.7.2 1.5-.4 1.9-.8.6-.8 1.6 0 4 .8 2.3.8 3.6.1 4.3-.6.6-.8 1.7-.5 2.4.3.8 0 1.4-.6 1.4s-1.1-.5-1.1-1c0-.6-.9-1-2-1-3 0-6.1-3.2-5-5 .5-.8 1-2.5 1-3.8 0-1.2.5-2.2 1-2.2.6 0 1-.7 1-1.6 0-.8.5-2.5 1.1-3.6 1.1-2.1 1.2-2.1 2.5.8l1.3 2.9-.4-4.2c-.3-3.2-.1-4.1.9-3.7 1.8.7 3-2.6 1.5-4-.9-.8-1-.7-.6.6.4 1 .2 1.8-.2 1.8-1.5 0-1.8-2.2-.7-4.7 1.4-3 2.4-2.9 3.2.2zM383 970c0 .5-.7 1-1.6 1-.8 0-1.2-.5-.9-1 .3-.6 1-1 1.6-1 .5 0 .9.4.9 1zm-63.5 23.3c.8 1.3 2.6 2.9 4 3.5 2.7 1.3 4.3 5.8 2.7 7.4-.7.7-.8 1.7-.2 2.8.5.9 1 7.7 1.1 15.1.2 11.9.5 14 2.7 18.7 1.3 2.8 4 6.9 5.8 8.9 1.9 2 3.4 4.1 3.4 4.5 0 1.6.3 2.3 1.6 4.3 1.4 1.9 2.1 15.5.8 15.5-1.4 0-4.3-4.3-5-7.3-1.2-5.6-4.8-9.7-13.4-15.4-4.7-3.1-9.7-6.5-11.1-7.7-1.5-1.2-3.8-3-5.3-4-1.4-1-2.6-2.3-2.6-2.7 0-.5-1.3-3-3-5.7-3.2-5.2-5.4-13.4-4.8-17.9l.4-2.8 1.1 2.5 1.1 2.5.7-3c.4-1.7 1.1-3.5 1.5-4 .4-.6 1.1-2.6 1.5-4.5 1-4.6 4.9-9.6 8.6-10.9 2.5-.9 3.3-.7 4.9.9 1.1 1.1 2 1.6 2 1.1s-.7-1.7-1.6-2.5c-1.4-1.4-1.4-1.6 0-1.6.9 0 2.2 1.1 3.1 2.3zm-52.5.7c4.1 0 17.2 16.2 15.5 19-.3.6 0 1 .9 1s1.7 1.4 2.1 4c.7 4.2 0 6.4-1.7 5.4-.7-.5-.9-.1-.5.9.7 1.9.6 2-1.6 1.1-.9-.3-1.2-1.4-.9-3 .4-2.1-.1-2.7-2.7-3.7-1.8-.6-3-1.8-2.8-2.6.1-.9-.6-1.7-1.7-1.9-1-.2-4.2-1.7-7-3.2-4.3-2.4-5.2-3.4-5.9-6.6-.4-2.1-1.2-4.3-1.7-4.9-1.4-1.6 2.7-6.8 4.7-6.1.8.3 2.3.6 3.3.6zm15 0c0 .5-.4 1-.9 1-.6 0-1.3-.5-1.6-1-.3-.6.1-1 .9-1 .9 0 1.6.4 1.6 1zm6 35c.8.5 1.1 1 .5 1-.5 0-1.7-.5-2.5-1s-1-1-.5-1c.6 0 1.7.5 2.5 1zm147 13.4c0 .3-.4.8-1 1.1-.5.3-1 .1-1-.4 0-.6.5-1.1 1-1.1.6 0 1 .2 1 .4zm-157 4.6c0 .5-.2 1-.4 1-.3 0-.8-.5-1.1-1-.3-.6-.1-1 .4-1 .6 0 1.1.4 1.1 1zm160.5 6c.3.5.1 1-.4 1-.6 0-1.1-.5-1.1-1 0-.6.2-1 .4-1 .3 0 .8.4 1.1 1zm-43.5 22c0 .5-.4 1-1 1-.5 0-1-.5-1-1 0-.6.5-1 1-1 .6 0 1 .4 1 1zm0 13c0 .5.6 1 1.4 1 .9 0 1.2.7.9 2-.6 2.4-1.3 2.5-3.8.6-1.1-.8-1.6-1.9-1.2-3 .7-1.7 2.7-2.2 2.7-.6zm-47.4 20.6c-.4 1.4-.9 2.4-1.2 2.1-.3-.2-.2-1.7.2-3.1.3-1.5.9-2.5 1.1-2.2.3.3.2 1.7-.1 3.2zm2.4 20.6c0 1.6-.3 1.9-1.1 1.1-.6-.6-.8-1.6-.5-2.2 1.1-1.7 1.6-1.3 1.6 1.1zm19.4 66.6c.3.5-.1.9-.9.9s-1.5-.4-1.5-.9c0-.4.4-.8.9-.8.6 0 1.2.4 1.5.8zM355 1249c0 .5-.7 1-1.6 1-.8 0-1.2-.5-.9-1 .3-.6 1-1 1.6-1 .5 0 .9.4.9 1zm-3 15c0 1.2-2.9 2-3.5 1-.9-1.5.4-3 2-2.3.8.3 1.5.9 1.5 1.3zm-7.6 2.2c.4 1.7.2 2.8-.4 2.8-.5 0-1-1.4-1-3.2 0-3.6.4-3.5 1.4.4zm10.9 7.2c.6 1.5-.1 2.6-1.5 2.6-.4 0-.8-.9-.8-2 0-2.3 1.5-2.7 2.3-.6zm.8 9.9c-1.3 1.3-2.6.3-1.6-1.2.3-.6 1.1-.8 1.7-.5.6.4.6 1-.1 1.7zm9.4 19.7c.3.5.1 1-.4 1-.6 0-1.1-.5-1.1-1 0-.6.2-1 .4-1 .3 0 .8.4 1.1 1zm45.9 41.2c-.7 2.3-2.1 3.8-3.7 3.8-.5 0 .1-1.4 1.3-3 2.5-3.6 3.4-3.8 2.4-.8zm-38.2 5c-.9.9-1.2.7-1.2-1.2s.3-2.1 1.2-1.2c.9.9.9 1.5 0 2.4zm-.5 71.4c.4 1.2-2.7 4.9-11.1 13.1-6.5 6.3-12.1 11.2-12.4 10.9-.3-.3.2-1.4 1-2.3.9-1 2.5-3.6 3.6-5.8 3-6 13-16.5 14.9-15.8 1.1.4 1.4.2.9-.5-.4-.7-.1-1.2.9-1.2.8 0 1.8.7 2.2 1.6zM323 1443c-2.1 4.2-3 4.9-3 2.6 0-1.3 3.7-6.6 4.6-6.6.2 0-.5 1.8-1.6 4zm0 31.5c0 1-4.4 6.5-5.2 6.5-1.1 0 .2-3.2 2.1-5.2 1.6-1.7 3.1-2.3 3.1-1.3zm-6 7.9c0 .3-.4.8-1 1.1-.5.3-1 .1-1-.4 0-.6.5-1.1 1-1.1.6 0 1 .2 1 .4zm-15 16.2c0 .3-.7 1.2-1.5 2.1-2 1.9-3.2 1-1.4-1.1 1.4-1.5 2.9-2.1 2.9-1zm-10 15.6c0 .6-1.1 3.4-2.4 6.2-1.3 2.8-2.9 6.3-3.5 7.8-1.7 4.3-3.5 3.5-2.8-1.2.5-4.2 4.1-12 6.1-13.2 1.6-1.1 2.6-1 2.6.4zm-22.1 6c-.7 1.3-1.2 2.4-1.1 2.5.1.2-.1.3-.5.3-.5 0-.8-.3-.8-.8 0-.4-.3-1.2-.7-1.8-.9-1.4 0-2.4 2.4-2.4 1.6 0 1.7.3.7 2.2zm-16.4 35.8c-.3.5-1.3 1-2.1 1s-1.2-.5-.9-1c.3-.6 1.3-1 2.1-1s1.2.4.9 1zm27.5 2.5c0 .8-.2 1.5-.4 1.5s-.6-.7-1-1.5c-.3-.8-.1-1.5.4-1.5.6 0 1 .7 1 1.5zm-14 64.5c0 1.3-.5 1.8-1.5 1.4-1.1-.5-1.2-.9-.2-2 1.6-1.8 1.7-1.7 1.7.6zm-5 2.9c0 .5-.7 1.2-1.6 1.5-1.4.5-1.5.4-.4-.9 1.4-1.7 2-1.9 2-.6z"/><path d="M519 656.4c0 1.5 5.8 2.8 6.6 1.4.3-.4-.4-.8-1.5-.8-1.2 0-2.1-.5-2.1-1 0-.6-.7-1-1.5-1s-1.5.6-1.5 1.4zM550.5 710c-.3.5-.1 1 .4 1 .6 0 1.1-.5 1.1-1 0-.6-.2-1-.4-1-.3 0-.8.4-1.1 1zM539.7 734c-.3 1.1-.1 2.3.4 2.6.5.3.9-.6.9-2 0-3.1-.6-3.4-1.3-.6zM537.6 740.5c-.3.8-.1 1.5.4 1.5 1.3 0 2.2-1.8 1.1-2.4-.5-.3-1.1.1-1.5.9zM537 744.5c-.7.9-.8 1.5-.2 1.5.5 0 1.2-.7 1.6-1.5.3-.8.4-1.5.2-1.5s-.9.7-1.6 1.5zM455.5 687.1c-1.1 1.6-.1 1.9 1.3.3.7-.8.8-1.4.3-1.4s-1.3.5-1.6 1.1zM407.6 903.6c-.4.9-.4 1.9-.1 2.2.2.3.7-.3 1.1-1.2.4-.9.4-1.9.1-2.2-.2-.3-.7.3-1.1 1.2zM362.1 922.6c0 1.1.3 1.4.6.6.3-.7.2-1.6-.1-1.9-.3-.4-.6.2-.5 1.3zM338 913.9c0 .6.5 1.3 1 1.6.6.3 1-.1 1-.9 0-.9-.4-1.6-1-1.6-.5 0-1 .4-1 .9zM311.8 1032.7c-.5 2.1 1.1 6.3 2.4 6.3.5 0 1.8-.5 2.9-1.1 1.9-1 1.9-1.1-.3-3.9-2.6-3.3-4.5-3.8-5-1.3zM264 1008.1c0 .5.5.7 1 .4.6-.3 1-.8 1-1.1 0-.2-.4-.4-1-.4-.5 0-1 .5-1 1.1zM154.5 252c-.3.5-.1 1 .4 1 .6 0 1.1-.5 1.1-1 0-.6-.2-1-.4-1-.3 0-.8.4-1.1 1zM386.8 315.7c-2.1.9-3.8 2-3.8 2.4 0 .5-.6.9-1.4.9-.8 0-1.8.5-2.1 1-.4.7 1.2.8 4.7.5 2.9-.3 5.9-.2 6.6.3.7.5 2.4 4 3.7 7.8 3.4 9.3 10.9 15.7 16.2 13.7 2.1-.8 1.5-2.2-.7-1.6-4.5 1.2-6.9-.5-10-7.2-3.9-8.3-3.9-8.9.6-8.1 1.9.4 6 .2 9-.4 6.8-1.4 19.3.4 20.1 2.9 2.2 7.1 7.9 15.7 12.4 18.8 1.2.9 4.5 2.2 7.3 2.9 2.8.6 5.9 1.5 6.9 1.9 1.1.5 1.7.3 1.7-.5 0-.7.8-1.9 1.8-2.7 1.3-1.1 1.4-1.6.4-2-.9-.3-1-.9-.2-1.8 1.9-2.3 0-4.4-4.6-5.1-2.4-.3-4.7-1-5-1.5-.3-.5-1.3-.9-2.3-.9-1.3 0-1.7.7-1.5 2.9.1 1.6.5 3.5.9 4.2.5.6-1 .2-3.1-1-4.6-2.7-9.6-10.3-9.2-14 .4-3.2-2.4-4.7-10.2-5.6-3-.3-5.6-1-5.8-1.6-.2-.5-1.2-.9-2.3-.9-1 0-1.9-.4-1.9-.9 0-1.6-5.4-2-7.7-.5-3.2 2-4.5 1.8-7.5-1.6-1.6-1.8-3.2-2.8-4.1-2.4-.8.3-1.8.1-2.2-.5-.8-1.4-2.1-1.3-6.7.6zm70 31.9c1 1-6.1-.5-7.1-1.5-.6-.6.6-.6 2.8-.1 2 .4 4 1.2 4.3 1.6z"/><path d="M365.8 322.4c-1.6.5-3 1.8-3.3 2.7-.3 1-2.7 3-5.3 4.5-3.7 2.2-5.9 2.8-10.2 2.7-4.4-.1-5 .1-3.1.8 1.4.6 5.9.8 10 .7 7.2-.3 7.7-.5 8.9-3.1 1.1-2.3 1.9-2.7 5.5-2.7 8.7.1 12.6 2.6 20 13 3.9 5.3 8.1 7 17.7 7.4 7.1.3 11-1.1 14.8-5.1 2.3-2.5 2.9-3.9 1.3-2.8-.5.3-1.2.1-1.6-.5-.3-.5-.1-1 .6-1 .8 0 .8-.4-.1-1.5-.7-.8-2.7-1.5-4.4-1.4-2.8.1-2.9.2-.7.8 2.1.6 2.2.8.7 2-.9.7-1.6 1.9-1.6 2.7 0 4.2-6.6 5.5-15 3-3.8-1.1-5-2.1-7.6-6.3-1.6-2.8-3.8-5.8-4.7-6.7-1.1-1.1-1.5-2.6-1.1-4.1.4-1.7 0-2.7-1.8-3.8-2.8-1.8-15.3-2.7-19-1.3zM190.6 386.8c-.3.6-.1 1.4.5 1.7 1.4.9 2 .2 1-1.4-.6-.8-1.1-.9-1.5-.3zM231 411c0 .5.5 1 1.1 1 .5 0 .7-.5.4-1-.3-.6-.8-1-1.1-1-.2 0-.4.4-.4 1zM261.3 441.2c-.2 1.6.1 1.8 1 .9.7-.7.8-1.4.1-2.1-.6-.6-1-.2-1.1 1.2zM254.6 443.9c-.3.5.1 1.1.9 1.5.8.3 1.5.1 1.5-.4 0-1.3-1.8-2.2-2.4-1.1zM259.9 449.1c.9 2.3 2.1 3.7 2.9 3.4.6-.2 1.2.3 1.3 1.3 0 1.4.2 1.4.9-.3 1.3-3 1.2-4.5-.4-4.5-.8 0-1.3-.8-1.2-1.7.1-1.2-.7-1.8-2.5-1.9l-2.7-.3 1.7 4zM349 480c1 3.3 1 3.6 1 5 0 1 3.9 3.4 4.6 2.8.2-.3-.7-2-2.1-3.8-1.4-1.9-2.5-4.2-2.5-5.2s-.4-1.8-.9-1.8c-.6 0-.6 1.2-.1 3zM487.6 488.4c.3.9 1.1 1.6 1.6 1.6 1.3 0 .5-2.3-1-2.8-.7-.2-1 .2-.6 1.2zM355.1 491.2c1.7 3.4 1.9 3.4 1.9.5 0-1.8-.5-2.7-1.5-2.7-1.3 0-1.4.4-.4 2.2zM387.5 498c.4.6 1.1.8 1.6.5 1.4-.9 1.1-1.5-.7-1.5-.8 0-1.2.5-.9 1zM360 501.5c0 .8.2 1.5.4 1.5s.6-.7 1-1.5c.3-.8.1-1.5-.4-1.5-.6 0-1 .7-1 1.5zM361.2 506.1c.2.7 1 1.5 1.7 1.7.8.3 1.2-.1.9-.9-.2-.7-1-1.5-1.7-1.7-.8-.3-1.2.1-.9.9zM618.4 506.2c-.4.6-.3.8.4.4.6-.3 1.3-.2 1.7.4 1 1.7 4.5 1.2 3.9-.5-.7-1.8-5-2-6-.3zM626 509c0 .5 1 1 2.3 1 1.3 0 2.8.5 3.5 1.2.8.8 1.2.8 1.2.1 0-.6-1.4-1.6-3.1-2.2-3.9-1.3-3.9-1.3-3.9-.1zM607.2 510.9c-1.1.7-1 1 .3 1.5 2.6 1 3.5.7 3.5-.9 0-1.7-1.8-1.9-3.8-.6zM553.7 512.7c-1.2 1.1-.8 2.3.8 2.3.8 0 1.5-.7 1.5-1.5 0-1.6-1.2-2-2.3-.8zM602.5 513c-.3.5-.1 1 .4 1 .6 0 1.1-.5 1.1-1 0-.6-.2-1-.4-1-.3 0-.8.4-1.1 1zM605.1 514.6c0 1.1.3 1.4.6.6.3-.7.2-1.6-.1-1.9-.3-.4-.6.2-.5 1.3zM595 515c0 .5.5 1 1 1 .6 0 1-.5 1-1 0-.6-.4-1-1-1-.5 0-1 .4-1 1zM365.9 516.8c-.1 1.2-.2 2.7-.3 3.4-.1.6.4 1.3 1 1.5 1.8.6 2.5-4 .9-5.7-1.3-1.3-1.5-1.2-1.6.8zM513 519.5c1.9 1.9 3.6 3.5 3.9 3.5.3 0-1-1.6-2.9-3.5s-3.6-3.5-3.9-3.5c-.3 0 1 1.6 2.9 3.5zM607 517.1c0 .5.5.7 1 .4.6-.3 1-.8 1-1.1 0-.2-.4-.4-1-.4-.5 0-1 .5-1 1.1zM637.4 518.2c-.3.4.2.8 1 .8s1.7-.4 2-.8c.3-.5-.2-.9-1-.9s-1.7.4-2 .9zM352.6 519.3c.3 1 .9 1.5 1.2 1.2.3-.3 0-1.1-.7-1.8-1-.9-1.1-.8-.5.6zM567.6 520.6c-.4 1-.1 2.1.6 2.5 1.6 1 2.5-1.8 1-3.3-.6-.6-1.2-.3-1.6.8zM596.6 520.9c-1.7.6-1.7.8-.4 1.4 1 .3 1.9 0 2.2-.9.3-.8.4-1.4.3-1.3-.1 0-1.1.4-2.1.8zM552.5 527c-.3.5.1 1 1 1s1.3-.5 1-1c-.3-.6-.8-1-1-1-.2 0-.7.4-1 1zM585.6 529.9c-.3.5.1 1.1.9 1.4.9.4 1.2.1.8-.9-.6-1.6-1-1.7-1.7-.5zM367 531.4c0 .9.5 1.6 1 1.6.6 0 1-.4 1-.9 0-.6-.4-1.3-1-1.6-.5-.3-1 .1-1 .9zM539 533.1c0 .5.5.7 1 .4.6-.3 1-.8 1-1.1 0-.2-.4-.4-1-.4-.5 0-1 .5-1 1.1zM744.1 540.2c-2.3 1.8-6.7 5.4-9.7 8-3 2.7-5.8 4.8-6.2 4.8-.5 0-.9.7-.9 1.5s.2 1.5.3 1.5c1.1 0 5.4-2.5 5.4-3.1 0-.8 13.3-10.9 14.4-10.9.3 0 2.8 1.4 5.6 3.1 3.1 1.9 5 3.8 5 4.9 0 1.1.8 2.7 1.9 3.7 3.7 3.6 4.2 5.7 2.5 10.7-1.2 3.5-1.3 5.3-.5 7.6.5 1.7.8 3.7.5 4.5-.4.8-.1 1.5.6 1.5.9 0 1.1-1.7.8-6.3-.4-4.8-.1-7.1 1.3-9.9 1.1-2.1 1.9-4.4 1.9-5.2 0-2.9-2.3-6.6-4.2-6.6-1.3 0-2-1-2.5-3.1-.4-2.1-1.4-3.4-3.2-4-1.4-.6-3.6-2.1-4.9-3.5-1.3-1.3-2.7-2.4-3.1-2.4-.5 0-2.8 1.5-5 3.2zM512.4 548.8c-5.1 3.1-11.1 7-13.4 8.7-5 3.5-6.1 4.2-11.1 7.2-2 1.2-4.7 3.7-6 5.5l-2.3 3.3 2.5-2.1c1.3-1.2 7.6-5.2 13.9-8.9 6.3-3.7 11.7-7.1 11.8-7.6.2-.5.8-.9 1.3-.9 1.3 0 13.9-9.3 13.9-10.3 0-1.4-1.5-.6-10.6 5.1zM718 550.6c0 .3.9 2.6 2 5.2s3.1 8.4 4.5 12.8c1.4 4.5 3.1 8.7 3.9 9.3.7.6 2.1 3 3.2 5.3 2.8 6.4 9.7 14 18.2 20 4.3 3.1 4.9 3.3 3.5 1.4-1-1.4-2.7-3-3.8-3.6-1.1-.6-3-2.6-4.3-4.4-1.3-1.8-4.3-5.5-6.8-8.2-4.5-4.7-9.4-13.3-9.4-16.4 0-.8-.7-3.4-1.5-5.8-.9-2.4-1.7-5.7-1.9-7.4-.1-1.6-.7-3.3-1.3-3.6-.5-.4-1.5-1.7-2.2-3-1-1.9-4.1-3.2-4.1-1.6zM524 553.3c0 .7.9 1.3 1.9 1.4 1.4.1 1.8-.3 1.4-1.3-.6-1.7-3.3-1.9-3.3-.1zM519.6 558.6c-.8 2 0 3.2 1.4 1.8.5-.5.5-1.5.1-2.2-.6-1.1-1-1-1.5.4zM626.8 566.7c.7.3 1.6.2 1.9-.1.4-.3-.2-.6-1.3-.5-1.1 0-1.4.3-.6.6zM630 567.1c0 .5.5.7 1 .4.6-.3 1-.8 1-1.1 0-.2-.4-.4-1-.4-.5 0-1 .5-1 1.1zM516 568.6c0 .8.5 1.2 1 .9.6-.4.8-1.1.5-1.6-.9-1.4-1.5-1.1-1.5.7zM664.8 569.7c.7.3 1.6.2 1.9-.1.4-.3-.2-.6-1.3-.5-1.1 0-1.4.3-.6.6zM771.9 593.6c1.7 2.2 3.6 5.8 4.2 7.8.6 2.1 1.2 3.6 1.5 3.4.2-.3-.2-2.5-.9-4.9-.8-2.4-1.2-4.9-1-5.5.2-.6-.4-1.7-1.4-2.5-1.5-1.1-1.6-1.1-.5.1 2.5 2.9 1.1 3.3-2 .4l-3.1-2.9 3.2 4.1zM620.5 609c-.3.5-.2 1 .4 1 .5 0 1.3-.5 1.6-1 .3-.6.2-1-.4-1-.5 0-1.3.4-1.6 1zM762.4 612.7c3.6 3.7 4.1 5.1 3.7 10.8-.2 3.1-3 15.7-6.2 28.3-1.1 4-1.9 8.1-1.9 9.2 0 1.1-1.4 4.5-3.1 7.6l-3.1 5.5-6.7-.3c-3.6-.1-8.3.1-10.5.5-3.9.7-10.7 3.5-11.6 4.8-1.3 1.7-7.3 1.9-14 .3-4.9-1.1-9.3-1.4-13.2-1-3.1.3-8.1.1-11-.4-9.4-1.8-19.6 2.2-29.1 11.4-3.5 3.3-6.5 10.1-5.2 11.4.4.4 1 .1 1.2-.6.3-.7 1.5-1.8 2.7-2.3 1.1-.5 3.5-1.8 5.1-2.9 5.4-3.6 8.9-4.9 9.7-3.7.5.8 1 .7 2-.1.8-.6 3.2-1.4 5.3-1.6 2.2-.3 4.4-1.1 5-1.9.5-.7 1.8-1.6 2.8-2 .9-.3 1.7-1.1 1.7-1.7 0-.5.8-1 1.8-1 1.5 0 1.5.2.2 1.1-1.1.8-.5.9 2.5.4l4-.6-9.5 9.5c-5.2 5.3-10.2 9.9-11.2 10.2-.9.3-4.3 4.1-7.5 8.6s-8.5 11.7-11.9 16.2c-10.9 14.6-20.3 27.1-21.3 28.2-.5.6-2.6 4.2-4.6 8-2 3.8-4.1 7.3-4.5 7.9-1.3 1.7-7.9 18.2-9.1 22.7-1.7 6.8-6.8 29.7-8.3 37.3-.8 3.8-1.7 11.3-2.1 16.5-.6 8.7-.9 9.7-3.3 11.7l-2.7 2.1-.6-2.6c-.4-1.5-1.2-3.8-1.8-5.2-.9-2.2-1-2-.5 1.5.4 2.2 1.1 4.8 1.5 5.7.6 1 .5 1.9-.1 2.3-1.5.9-5.2 6.5-4.3 6.5.4 0 3.7-2.4 7.3-5.3 8.7-7 12.4-8.3 26.5-9.6 6.6-.6 12.7-1.2 13.5-1.3 2.9-.4 15.5 1.3 17.3 2.3 2 1.1 7.3.3 8.3-1.2 1.1-1.8 10.4-5.9 13.4-5.9 2.5 0 3.7 1 7.4 6 4.9 6.6 9.2 17.8 7.6 19.4-.5.5-1 2.4-1 4.1 0 4.4-2.8 12.2-6 17-1.5 2.2-3.9 6.3-5.3 9.1-3.2 6.4-9.1 11.5-16.5 14.5-6.8 2.7-7.9 3.4-5.7 4.3 1 .4 1.4.2.9-.5-.4-.7 0-.9 1.3-.5s4.1-.4 7.6-2.3c3-1.6 5.8-2.6 6.2-2.3.4.4.5.2.4-.3-.2-.6 1-3 2.5-5.5 16.1-26.3 18.1-31.2 17.7-43-.1-3.5-1.1-7.4-2.8-10.8-1.4-2.9-2.2-5.6-1.9-6 .4-.3 3.4-.6 6.6-.7 3.3 0 5.5-.2 5-.3-.6-.2-.8-.8-.4-1.3.8-1.4-8-1.1-9.5.3-1.5 1.4-1.5 1.1 1.4-7.7 1-2.8 1.9-5.6 2.1-6.3.7-2.2 5.7-1 7.1 1.8 1 2 1.3 2.2 1.8.8 1.3-3.2.1-6.2-2.8-7.2-2.4-.9-3.1-.6-5.6 1.9-1.5 1.7-3.8 5.8-5.1 9.2-2.4 6.7-3 7.2-5.4 4.8-2-2.1-10.9-1.9-15.4.2-2.1.9-5.5 3-7.7 4.6-3.3 2.3-4.1 2.6-5 1.4-1.1-1.6-15.1-3.8-20.5-3.2-17 1.8-17.2 1.7-16.5-.7.4-1.3 1.8-4.2 3.1-6.5s2.4-5.4 2.4-7c.1-2.9 2.3-5.9 7.8-10.6 2.9-2.3 4.3-2.7 9.5-2.7 7.9 0 13.2 1.5 15.2 4.2 1.4 2.1 1.3 2.4-1.5 5.3-3.4 3.5-8.3 14-7.7 16.4.4 1.3.5 1.3.6-.2 0-1 1.2-3 2.6-4.5 1.4-1.5 2.5-3.2 2.5-3.8 0-.6.9-1.9 2-2.9s2-2.4 2-3.1c0-3.1 5.2-4.9 14-4.8 7.8.1 8.9.4 13.1 3.3 5.4 3.6 5.5 3.6 6.3 1.6.3-.9-.4-2.5-1.7-3.8l-2.2-2.2 2.8-.3c3.1-.4 3.7-2.2.6-2.2-1.1 0-2.9-.5-3.9-1-1.3-.7-3.4-.7-6.5 0-5.9 1.3-8.5.2-5.6-2.4 2.1-1.9 13.2-3.9 28.7-5.1 7.4-.6 9.7-.4 12.2.9 3.9 2 4.8 2 3.2.1-.7-.8-.9-1.5-.5-1.5.9 0 10.5 7.7 12.3 9.9 1.1 1.3 1.2 1.3 1.2-.2 0-.9.6-1.7 1.3-1.7.6-.1 0-.6-1.5-1.3-1.5-.7-3.8-2.7-5.1-4.4-2.3-3.1-8.9-8.3-10.5-8.3-.4 0-2.2-1.5-4-3.4-3.2-3.4-3.2-3.5-1-3.9 1.3-.3.7-.4-1.4-.4-2 .1-4.2-.4-5-1.1-.8-.6-3.4-1.4-5.8-1.8-2.5-.4-5.8-1.4-7.5-2.2-4.4-2.2-13-4.2-26.3-5.9-3.5-.4-4.1-.8-3.1-1.9.9-1.2.5-1.4-2.4-1.4-2.1 0-4.4-.8-5.8-2.1l-2.4-2.1 2.5.7c1.4.3 4.6 1.2 7.3 1.9 2.6.7 5 1 5.3.5.2-.4-1.5-1.3-3.8-1.9-9.5-2.5-11.8-3.4-13.5-4.9-3.1-2.8-10.4-6.1-13.4-6.1-2.5 0-2.9-.4-2.9-2.9 0-1.6-.4-3.1-.9-3.3-.4-.2-1.1-1.3-1.5-2.4-.5-1.7.1-2.8 3.1-5.1 7.6-5.7 8-5.8 29.4-5.5l19.9.2 9.2 4c5 2.2 10.3 5 11.6 6.3 1.3 1.2 2.4 2.1 2.5 1.9.5-.8 5 1.7 13.4 7.5 5.1 3.5 9.9 6.3 10.6 6.3 1.7 0 5.1 2.5 19.4 14.2 12 9.8 19.4 16.8 17.8 16.8-.5 0 .7 1.7 2.7 3.7 3.2 3.3 10.8 17.6 10.8 20.4 0 1.5 8.5 21.3 12.5 29.1 5.9 11.4 10.6 18 18.6 25.9 9.9 9.8 16.9 13.9 23.5 13.8l4.9-.1-4.6-.8c-7.5-1.3-12-4.8-24.3-19-10.1-11.7-11.7-13.9-14.6-21.5-1.3-3.3-2.7-6.4-3.2-6.9-.4-.6-.8-1.8-.8-2.8 0-1-.6-2.1-1.4-2.4-.8-.3-1.9-1.7-2.4-3.2-.6-1.5-1.4-3.6-1.8-4.7-.4-1.1-.8-2.2-.9-2.5 0-.3-1-2.3-2.2-4.5-1.1-2.2-2.1-4.4-2.1-4.8 0-1.6-5.7-14.2-6.7-14.9-.5-.4-.6-.8-.1-.8 1.1 0-7-7.6-8.9-8.4-.9-.3-1.9-1.4-2.3-2.5-.7-1.9-5.5-5.9-9.9-8.2-1.3-.7-2.5-1.9-2.8-2.8-.4-.9-3-3.6-6-6.1-3-2.5-5.5-5-5.5-5.6 0-.6-.9-1.5-2-2-1-.5-5.3-4.2-9.4-8.2-6.8-6.6-7.2-7.2-4.8-7.2 7.3 0 29.3 9.2 44.2 18.5 7.9 5 15.2 12.4 21.6 22 6.7 10.1 12.7 21.3 13.7 25.6.9 3.9 11.3 33.2 12.7 35.9 1.6 2.9 9.2 14.6 12 18.2 1.1 1.4 2 3.1 2 3.7 0 .6 1.1 1.6 2.5 2.1s2.5 1.4 2.5 1.9c0 1.7 8.1 4.1 14.1 4.1 5.6 0 6.7-.4 13.3-4.7 8-5.3 11.5-8.3 9.8-8.3-.6 0-1.4.5-1.7 1-.4.6-2.8 2.1-5.4 3.4-2.6 1.4-5.3 3.2-6 4-2.4 2.9-18.1 1.5-18.1-1.6 0-.4 1.5-.8 3.4-.8 4.4 0 8.1-1.6 14.9-6.5 8.9-6.4 6.7-7.2-2.5-.9-2.6 1.7-4.4 3.4-4.1 3.8.4.3-1.9.6-5.1.6-3.4 0-5.5.4-5.1 1 .9 1.5-4.3 2.4-6 1-.9-.7-2.5-1.3-3.7-1.4-1.2 0-2.8-1.3-3.7-2.8-.9-1.4-4.2-6.9-7.3-12-3.2-5.1-5.8-10.1-5.8-11 0-.9-.7-2.9-1.4-4.5-.8-1.5-2.2-5.3-3.1-8.3-2.6-8.8-11.3-29.6-14.8-35.6-5.4-9.4-9.3-15-13.2-19.2-6.6-7.2-10.2-10.3-13.7-11.9-2.1-.9-3.8-2-3.8-2.4 0-.9-12.5-6.9-14.3-6.9-.8 0-2.2-.9-3.2-2s-2.2-2-2.8-2c-.9 0-2.3-.6-11-4.4-3.6-1.7-6.7-2.6-18.7-5.9-7.8-2.1-15.9-2.8-18.1-1.6-1.9 1-5.7-.3-7-2.4-1.3-1.9-9.7-2.9-25.4-3.1-16.5-.2-17.4-.1-29.9 5-2.3.9-3.5 2.6 12.9-19 6.6-8.7 13-17.2 14.1-18.8 2.3-3.1 4.1-5 3.1-3.2-.4.7-.1 1.6.6 2.2 3.3 2.7 21.1 3.3 24.9.8 2.2-1.5 2.5-1.4 5.2 1.4 1.5 1.7 3.5 3 4.3 3 .9 0 3.5 1.1 5.8 2.4 2.3 1.4 7.1 3.2 10.8 4.2 6.2 1.5 6.9 1.5 11.9-.1 8.2-2.7 13.4-6.9 15.8-12.7.8-1.8 2.2-2.8 4.4-3.2 4.5-.9 10.9-7.2 12.8-12.7 1.6-4.5.3-4.6-1.5 0-1.6 4-7.1 9.1-9.8 9.1-.8 0-2 .5-2.7 1.2-1.6 1.6-1.5 1.2.9-5.2 1.9-4.9 4.6-16 5.3-21.5.1-1.1.6-3.2 1-4.7s.3-3.5-.3-4.6c-.9-1.7-.5-2.1 2.9-3.2 6.8-2.2 7.4-1.3 6.6 9.2-.4 5.1-.4 9-.1 8.7.8-.9 1.5-4.5 2.1-11.4.3-3.3 1.3-7.3 2.3-8.8 1.5-2.3 1.6-3.6.7-7.6-.8-4.3-.7-5.2 1.2-7.5 1.1-1.5 3.1-5.7 4.3-9.4 1.2-3.7 3.3-9.1 4.6-12.1 4.3-9.8 3.9-22.7-.9-25.2-1.8-1-2-.9-1.3.7 3.7 9.1 4.5 17.6 2 22.4-.8 1.6-2.9 6.8-4.6 11.5-2.3 6.3-3.8 9-5.8 10.2-1.4.9-4.6 3.3-7 5.2-4.2 3.3-4.4 3.4-3.8 1 .3-1.3 1.3-6.2 2.2-10.9 2.7-14.4 3.6-18.3 5.7-24.6 1.9-6 1.9-6.3.2-9.9-1.1-2.4-2.9-4.2-5-5.1-4.9-2-5-1.8-1 2.3zm5.4 51.9c1.5 1.5 1.4 1.8-.3 3-1 .8-2.4 1.4-3.1 1.4-.6 0-2.3.9-3.8 2.1-2.5 1.9-2.6 2-2.6.2 0-2.3 1.6-4.4 5-6.7 3-2 2.8-2 4.8 0zm-23.1 12.8c2.2.3 5.5.1 7.2-.4 3.7-1 3.8-.4 1.6 11.2-2.6 13.9-4.8 21.2-8.1 27.9-2.8 5.6-4 6.9-7.7 8.7-2.5 1.2-5.7 2.4-7.2 2.8-3.3.8-14.1-1.4-15.6-3.2-.6-.8-2.1-1.4-3.4-1.4-3.6 0-8.5-2.1-8.5-3.6 0-.8-1.4-2.1-3.1-2.8-3-1.2-3-1.3-.9-1.9 1.9-.5 2.2-1 1.7-3.7-.9-4.5 1.2-11.9 3.2-11.3 1.1.3 1.2.2.4-.4-2.1-1.5-.4-6.5 3.3-10.1 1.9-1.8 3.4-3.7 3.4-4.1 0-.5 2-1.1 4.4-1.4 2.5-.4 7.5-2.3 11.3-4.3 5.2-2.7 7.6-3.5 10.3-3.1 1.9.3 5.4.7 7.7 1.1zM702 682c0 .5-.8 1-1.7 1-1.5 0-1.6-.2-.3-1 1.9-1.2 2-1.2 2 0zm.1 6.6c-2.4 3.1-5.6 12.7-6.6 20.1-1.1 8.4-1.8 8.8-13 8.5-11.5-.3-13.7-1.5-10.4-5.6 1.1-1.4 2.9-2.6 4-2.6s1.7-.5 1.4-1c-.3-.6.1-1 1-1s1.4-.4 1.1-.9c-.4-.5.4-.7 1.6-.4 1.9.4 2 .3.8-.6-1.4-1-.7-1.6 1.3-1.2.5.1.6-.3.2-.9-.3-.5 1-2.7 3-4.9 2-2.1 4.2-4.6 4.8-5.5 1.1-1.5 10.2-6.4 12-6.5.5-.1-.1 1.1-1.2 2.5zm-46 104.1c2.8.5 3 .7 1.4 1.4-2.9 1.1-11.7 1.1-11 0 .3-.5 2.2-.8 4.3-.5 2.8.3 3.2.2 1.7-.5-2.4-1.2-.9-1.3 3.6-.4zm-17.4.9c-.3.3-1.2.4-1.9.1-.8-.3-.5-.6.6-.6 1.1-.1 1.7.2 1.3.5zm71.3 14c1.2 1.2.8 1.4-3.3 1.4-5 0-5.4-.3-3.4-2.5 1.3-1.6 4.4-1 6.7 1.1zM622.5 823c1.7 1.6 3.8 3 4.8 3.2 1.7.3 1.7.5-.5 3.8-1.3 1.9-2.9 5.7-3.6 8.5-.7 2.7-2.3 7-3.6 9.5-1.9 3.7-2.9 4.6-5.4 4.8-1.7.2-3.6 1-4.2 1.8-1.6 1.8-4.7 2-3.3.1.5-.6 1-4.6 1.2-8.7.2-6.8 3.1-23.6 4.5-25.8 1-1.7 7.1 0 10.1 2.8z"/><path d="M712.1 698.2c1 1.9 2.9 1.6 2.9-.5 0-.7-.9-1.3-1.9-1.3-1.6 0-1.8.4-1 1.8zM612 616.1c0 .5.5.7 1 .4.6-.3 1-.8 1-1.1 0-.2-.4-.4-1-.4-.5 0-1 .5-1 1.1zM605.3 625.8c-1.3.2-2.3.8-2.3 1.3 0 2.2 2.2 4.9 4 4.9 1.7 0 1.9-.5 1.3-3.3-.3-1.7-.6-3.2-.7-3.2-.1-.1-1.1.1-2.3.3zM610.5 630c-.3.5-.2 1 .4 1 .5 0 1.3-.5 1.6-1 .3-.6.2-1-.4-1-.5 0-1.3.4-1.6 1zM406.5 661c-.3.5.1 1 .9 1s1.8-.5 2.1-1c.3-.6-.1-1-.9-1s-1.8.4-2.1 1zM164.1 664.6c0 1.1.3 1.4.6.6.3-.7.2-1.6-.1-1.9-.3-.4-.6.2-.5 1.3zM176.5 681.8c-.6.4-1.1 3.6-1.2 7.2-.1 3.6.1 5.7.4 4.7.2-.9.8-1.7 1.3-1.7 1.3 0 3.4-7.5 2.7-9.4-.7-1.7-1.6-2-3.2-.8zM388 681.9c0 .5.5 1.3 1 1.6.6.3 1 .2 1-.4 0-.5-.4-1.3-1-1.6-.5-.3-1-.2-1 .4zM380.1 689.7c-2.3.9-5.1 3.7-5.1 5 0 2 1.8 1.5 2.5-.6.3-1.1 1.6-2.1 2.7-2.3 1.2-.2 2.3-.9 2.6-1.6.4-1.3-.4-1.4-2.7-.5zM765.2 695.5c0 1.6.2 2.2.5 1.2.2-.9.2-2.3 0-3-.3-.6-.5.1-.5 1.8zM367.3 699.7c-.7.3-1.3.9-1.3 1.4 0 1.2 3.7 1.2 4.4 0 .7-1.1-1.4-2-3.1-1.4zM363.3 703.7c-1.8.7-1.6 2.3.2 2.3.8 0 1.5-.7 1.5-1.5s-.1-1.5-.2-1.4c-.2 0-.9.3-1.5.6zM161.2 728.5c0 1.6.2 2.2.5 1.2.2-.9.2-2.3 0-3-.3-.6-.5.1-.5 1.8zM453.5 736c.3.5.8 1 1.1 1 .2 0 .4-.5.4-1 0-.6-.5-1-1.1-1-.5 0-.7.4-.4 1zM442.7 738.6c-1.2 1.3-.7 2 1.3 2 1.1 0 1.9-.5 1.7-1-.4-1.3-2.1-1.8-3-1zM307.3 739.7c.9.2 2.5.2 3.5 0 .9-.3.1-.5-1.8-.5-1.9 0-2.7.2-1.7.5zM162 742.9c0 3-2.1 5.4-2.8 3.3-.7-2.1-3.3-4.2-5.3-4.2-3.5 0-3.5 4.4.1 10 1.8 2.7 3.6 5 4.1 5 .9 0 1.3-2.1 1-4.7-.1-.7.7-2.1 1.9-3.3 1.8-1.8 3-9 1.5-9-.3 0-.5 1.3-.5 2.9zM445.1 744.9c-1 .6-1 1-.1 1.6 1.3.8 2.4.1 1.9-1.4-.3-.6-1-.7-1.8-.2zM443.3 753.5c-.9 1-1 2.1-.4 3.7.8 2 1 2.1 1.6.6.4-.9.5-2.5.3-3.6-.2-1.7-.5-1.8-1.5-.7zM240.8 763.7c-1 .2-1.8.9-1.8 1.4 0 1.3 1.4 1.1 2.8-.3.9-.9 1.2-.7 1.2 1 0 1.2.6 2.2 1.4 2.2 1.9 0 2.7-2.5 1.3-3.9-1.1-1.1-1.9-1.2-4.9-.4zM239 770.1c0 .5.5.7 1 .4.6-.3 1-.8 1-1.1 0-.2-.4-.4-1-.4-.5 0-1 .5-1 1.1zM652 779.6c0 .8.5 1.2 1 .9.6-.3 1-1 1-1.6 0-.5-.4-.9-1-.9-.5 0-1 .7-1 1.6zM226.5 784c-.3.5.3 1 1.4 1 1.2 0 2.1-.5 2.1-1 0-.6-.6-1-1.4-1-.8 0-1.8.4-2.1 1zM257.3 799.5c0 .8.4 1.2.9.9.4-.3.8-.9.8-1.5 0-.5-.4-.9-.8-.9-.5 0-.9.7-.9 1.5zM263 800.7c.1 1.8 1.8 3.5 2.4 2.4.4-.6.1-1.1-.6-1.1-.9 0-.9-.3.2-1 1.3-.8 1.2-1-.2-1-1 0-1.8.3-1.8.7zM243.5 803c.4.6 1.1.8 1.6.5 1.4-.9 1.1-1.5-.7-1.5-.8 0-1.2.5-.9 1zM274 803c0 .5.5 1 1 1 .6 0 1-.5 1-1 0-.6-.4-1-1-1-.5 0-1 .4-1 1zM237.5 805c.3.5 1 1 1.6 1 .5 0 .9-.5.9-1 0-.6-.7-1-1.6-1-.8 0-1.2.4-.9 1zM192.3 820.8c-7.8 7.3-14.5 15.5-19.8 24.2-4.7 7.9-5.6 11.7-1.2 5.5 2-2.8 4.6-6.5 5.9-8.3 5.5-7.8 13.3-17.8 15.7-20.1 3.5-3.5 7.6-8.1 7-8.1-.2 0-3.6 3.1-7.6 6.8zM286 816c0 .5.5 1 1.1 1 .5 0 .7-.5.4-1-.3-.6-.8-1-1.1-1-.2 0-.4.4-.4 1zM379 829c0 .5.4 1 .9 1 .6 0 1.3-.5 1.6-1 .3-.6-.1-1-.9-1-.9 0-1.6.4-1.6 1zM748.5 842.5c6.1 6 13.6 14.1 16.7 18 6.6 8.1 12.8 14.4 12.8 12.8 0-2.2-1.2-4.3-2.1-3.7-1.2.7-4.1-1.5-3.4-2.7.3-.4-.3-1.7-1.5-2.9-1.1-1.1-2-2.3-2-2.8 0-.4-1-1.2-2.2-1.7-1.3-.6-2.3-1.8-2.3-2.7 0-1.7-13.4-17.2-14.2-16.4-.7.6-5.3-3.6-4.8-4.3.2-.4-1.6-1.6-3.9-2.6-3.8-1.8-3.1-.9 6.9 9zM598.6 848.2c-.8 6.8-.2 10.8 1.4 10.8 1.6 0 1.7-1.5.5-9.5l-1.1-8-.8 6.7zM591.1 850.1c-.2 2.9 1.1 7.9 2 7.9.5 0 .9-.8.9-1.8-.1-2.3-2.8-8.1-2.9-6.1zM660 852.5c-.7.9-.8 1.5-.2 1.5.5 0 1.2-.7 1.6-1.5.3-.8.4-1.5.2-1.5s-.9.7-1.6 1.5zM703.3 855.3c.4 1 1 5 1.4 8.9.3 4.1.9 6.4 1.4 5.6.8-1.5-1.3-14.4-2.6-15.6-.5-.4-.5.1-.2 1.1zM156.4 869.3c-2.1 2.5-2.4 4.8-.7 6.5 1.5 1.6 1.6 1.5 1.1-1-.3-1.5-.1-2.5.3-2.2.5.3.9-.6.9-2 0-2.9-.1-3-1.6-1.3zM779.1 874.7c-.1 1.3 9.8 11.3 11.2 11.3.5 0-.9-1.8-3.2-4-2.2-2.2-4.1-4.4-4.1-5 0-.5-.6-1-1.4-1-.8 0-1.7-.6-1.9-1.3-.4-.8-.6-.8-.6 0zM150 878.9c0 .6.4 1.2.8 1.5.5.3.9-.1.9-.9s-.4-1.5-.9-1.5c-.4 0-.8.4-.8.9zM156.4 879.1c-.6.8-2.7 5.7-4.8 10.9-4.7 11.9-5.6 13.9-7.7 17.1-2.3 3.2-3.5 7.9-2.1 7.9 1.6 0 4.7-5.8 8.5-16 2-5.2 4.5-11.7 5.7-14.3 2.1-4.8 2.4-8.2.4-5.6zM463 884.1c0 1.1.5 1.7 1 1.4.6-.3 1-1.3 1-2.1s-.4-1.4-1-1.4c-.5 0-1 .9-1 2.1zM869.8 883.7c.7.3 1.6.2 1.9-.1.4-.3-.2-.6-1.3-.5-1.1 0-1.4.3-.6.6zM702 884.9c0 .5-2 3.4-4.6 6.5-2.5 3.1-4.1 5.6-3.6 5.6 1.2 0 9.2-10 9.2-11.6 0-.8-.2-1.4-.5-1.4s-.5.4-.5.9zM527 895c0 .5.5 1 1.1 1 .5 0 .7-.5.4-1-.3-.6-.8-1-1.1-1-.2 0-.4.4-.4 1zM142.7 897.4c-1 .8-1.7 1.8-1.5 2.2.1.5-.4 3-1.2 5.6-1.3 4.3-2.4 5.4-5.2 4.9-1.4-.2-.9 1.7.5 2.2 2.1.8 3.3-.4 6.1-6.3 2.2-4.5 4-10.1 3.3-10-.1 0-1 .7-2 1.4zM691 900.6c-2.5 6.6-4.6 9.9-8.4 13.5-4.3 4.2-4.4 6.1-.2 3.4 2.7-1.8 11.4-18 10.3-19.1-.4-.4-1.1.6-1.7 2.2zM807.5 899c.3.5 1.1 1 1.6 1 .6 0 .7-.5.4-1-.3-.6-1.1-1-1.6-1-.6 0-.7.4-.4 1zM126.6 906.8c-.7 1.2 2.2 3.8 3.1 2.8.4-.3 0-1.4-.9-2.2-.9-1-1.8-1.2-2.2-.6zM132.5 916c-.3.5-1.5 1-2.6 1-1 0-1.9.4-1.9 1 0 1.3.3 1.3 3.5-.2 1.4-.6 2.5-1.5 2.5-2 0-1.1-.7-1-1.5.2zM152.8 922.7c.7.3 1.6.2 1.9-.1.4-.3-.2-.6-1.3-.5-1.1 0-1.4.3-.6.6zM442 929c0 .5.5 1 1 1 .6 0 1-.5 1-1 0-.6-.4-1-1-1-.5 0-1 .4-1 1zM438.5 934c-.3.5.1 1 .9 1 .9 0 1.6-.5 1.6-1 0-.6-.4-1-.9-1-.6 0-1.3.4-1.6 1zM124.1 936.9c-.1 1-1 1.2-3.1.7-3.1-.6-4.1.7-1.6 2.1.7.4 1.5 1.3 1.7 2 .8 2.2 4.1-1.3 3.6-3.9-.2-1.3-.5-1.7-.6-.9zM440.1 970.7c0 .5.4 1.7.9 2.8.8 1.8.9 1.7.9-.8.1-1.5-.3-2.7-.9-2.7-.5 0-1 .3-.9.7zM443.6 974.8c-.2.4-.1 1.4.5 2.2.7 1.2.9 1 .9-.8 0-2.3-.5-2.8-1.4-1.4zM444 981.6c0 .8.5 1.2 1 .9.6-.4.8-1.1.5-1.6-.9-1.4-1.5-1.1-1.5.7zM172 990c0 .5.5 1 1 1 .6 0 1-.5 1-1 0-.6-.4-1-1-1-.5 0-1 .4-1 1zM516.4 1001.2c7.1 6.4 13.5 17.9 17 30.8 2.3 8.2 2.8 12.7 3.6 32.5 1.3 29.3 3.1 39.1 10.1 54 3.2 6.8 12.4 15.4 22.1 20.6 9.4 5.1 12.1 8.5 11.2 13.9-.9 5.1-2.1 6.9-8.2 12.9-5.5 5.4-5.4 5.5.7 1.4 3.5-2.4 9.1-10.3 9.1-12.8 0-.8.3-1.5.8-1.5 1.1 0 3.1-5 2.6-6.5-.9-2.2-6.6-6.2-10.1-6.9-1.7-.4-3.7-1.4-4.4-2.2-.6-.8-1.7-1.4-2.3-1.4-1.7 0-13.7-8.9-16.1-11.9-1.1-1.4-2.9-4.6-4.1-7.1-3.1-6.8-8.3-34.3-9-48-.1-3-.5-6.2-.8-7-.8-2.2-1.2-16-.5-16.3 1.3-.4-1.1-13-4.2-22-4.6-13.8-13-25.3-19.6-26.7l-3.5-.8 5.6 5zM192.6 1004.7c-.3 1.6-.8 4.8-1.1 7.3-.3 2.5-.7 5.2-1 6-.2.8-.7 4.9-1 9-.3 4.1-1.2 9.9-2 12.8-.9 2.9-1.2 5.8-.8 6.5 1.3 2.1 6.4-22.4 7.8-37.1.5-4.7.3-7.2-.3-7.2s-1.3 1.2-1.6 2.7zM240.7 1021.9c-1.8.6-1.7.8.3 3.1 1.9 2.2 2 2.3 1.1.3-.9-1.8-.8-2.2.7-2.5.9-.2 1.3-.6.7-.9-.5-.4-1.8-.4-2.8 0zM390.5 1036.4c-1.8 1.3-1.8 1.4.3 2.5 2 1.1 2.2.9 2.2-1.4 0-2.9 0-2.9-2.5-1.1zM502.1 1039.3c-1.2 6.7-5.1 18.9-8.1 25.2-25.3 53.2-27.6 57.6-34.2 65.1-3.2 3.6-5.8 6.1-5.9 5.7-.4-3.4.5-11 2.1-17.3 4.1-16.6 4.6-28.2 1.8-37-2.1-6.4-4.8-11.1-3.4-6 3.6 13.9 3.5 21.1-.8 39.5-4.5 19-4.8 30.3-.6 23.7.9-1.4 1-1 .5 1.8-.3 1.9-.8 5.5-1.1 8l-.5 4.5 1.7-3.8c.9-2 2.2-3.7 3-3.7.8 0 1.1-.6.7-1.7-.4-1.1-.3-1.4.5-.9.8.5 1.2-.3 1.2-2.3 0-2.1.5-3.1 1.5-3.1.8 0 1.5.6 1.6 1.2 0 .7.4.4.8-.7.6-1.5.3-2.3-1-3-1.8-1-1.8-1.1.1-2.5 1-.7 1.7-1.7 1.4-2.2-.3-.4 0-.8.6-.8s.8 1.1.5 2.7c-.5 2.7-.5 2.7.6.5.7-1.2 1.5-2.2 1.9-2.2 1 0 2 3.7 2 7.5 0 4.1 3.4 14.8 6 19.3 2.9 4.8 4 8.8 2.9 9.9-.5.5-1.1 4.5-1.4 8.9-.2 4.9-1.1 9.7-2.4 12.6-1.1 2.5-1.7 4.9-1.3 5.2.3.4 2-.8 3.8-2.5l3.3-3.1 3.4 6.9 3.5 6.9-.8 22c-.5 12-1.4 23.5-1.9 25.4-.5 1.9-1.2 5.9-1.5 8.9-.7 7.3 1.1 5.4 2.5-2.5.5-3.2 1.2-6.8 1.4-7.9 2.1-9.7 2.7-16 1.7-19.3-1-3-.9-4.1.5-6.2 3.2-4.8 1.1-30.9-2.4-29.6-1.4.6-6.3-6.7-6.3-9.4 0-1.1.4-2 .9-2 .4 0 .4-1.9-.1-4.3-1.4-6.7-1.5-8.1-.5-9.4 1.4-2-.2-9.9-2.4-11.9-1.1-1-1.7-2.5-1.4-3.4.3-1 0-2-.8-2.3-2-.7-4.1-15.9-3.5-25.3.5-8.5 1.2-10.4 11.5-32.7 7.3-15.6 8.3-16.9 8.3-10.2.1 2.8.7 7.8 1.4 11.2.7 3.5 1.1 6.3.9 6.3-.3 0-.1.6.5 1.3.6.7 1.4 3.3 1.8 5.7.4 2.5 1.8 7 3.1 10 4.9 10.9 5.3 11.8 5.3 12.6 0 1.4 6.2 13.9 7.9 15.9 1 1.1 2.5 4.1 3.5 6.6.9 2.6 2.5 5.4 3.5 6.4 1.9 1.6 1.9 1.7 0 6-2.9 6.4-5.4 21.1-3.9 22 1.2.7 2.3-3.1 2.4-8.5.1-2.5.8-6.5 1.5-8.9 1.4-5 8.6-14.6 11-14.7 3.4-.2 7-1.7 8.7-3.5 2.2-2.4 6.2-2.4 9.4.1 3.1 2.5 4 2.5 4 .2 0-2.8-3.2-5.2-6.9-5.2-1.7 0-4.9-.9-6.9-1.9-2.1-1.1-4.9-1.7-6.3-1.4-2.2.4-2.5.1-2.4-2.4.1-3.3-3.5-10.6-7.5-14.8-3-3.2-7.9-11-11.8-19-1.3-2.8-3.5-6.3-4.9-7.9l-2.4-2.9 2.1-2.2c2-2.1 2-2.3.4-6.1-3.2-7.6-4.5-20.6-2.9-29.9.3-2.2.6-4.7.6-5.5-.1-2.3-1.8-12.6-2-11.7zm22.4 95.7c.4.6 1.1.7 1.7.4.7-.4.8-.2.4.5-.6.9-1.2.9-2.4-.1-1-.7-1.9-1.4-2.1-1.5-.2-.2.1-.3.7-.3s1.4.5 1.7 1zM185.4 1052.2c.3 1.8.9 10.6 1.2 19.7.4 9.2.9 17.1 1.3 17.8.9 1.6.6-35.7-.3-38.5-1.1-3.5-2.9-2.7-2.2 1zM189.2 1095.5c0 1.6.2 2.2.5 1.2.2-.9.2-2.3 0-3-.3-.6-.5.1-.5 1.8zM191.6 1106.5c.8 3.7 1.4 4.5 1.4 1.9 0-1-.5-2.6-1-3.4-.8-1.1-.9-.7-.4 1.5zM193.2 1113c0 1.4.2 1.9.5 1.2.2-.6.2-1.8 0-2.5-.3-.6-.5-.1-.5 1.3zM185 1117c0 .5.5 1 1.1 1 .5 0 .7-.5.4-1-.3-.6-.8-1-1.1-1-.2 0-.4.4-.4 1zM188.1 1119.9c-.8.6-1.1 1.6-.6 3.1.4 1.2 1.1 5.8 1.6 10.3.5 4.5 1.2 9.9 1.5 12.1.5 2.7.3 3.7-.5 3.2-1.4-.9-1.4-.8.6 7.2.9 3.7 2.2 7.1 2.9 7.5 1.1.6 1.2 3 .8 10.5-.7 12.4-.6 14.4.6 15.6.7.7.8-.5.4-3.4-.5-4-.2-4.9 2.4-8.2 2.2-2.8 3-4.9 3-7.9.1-2.3.3-4.3.6-4.6.3-.3-.6-2.7-1.9-5.4-1.4-2.6-3.1-8.1-3.9-12.1-2-10-4-21.8-4.1-24.5-.1-2.9-1.6-4.4-3.4-3.4zM438.6 1123.6c-.4 1.4-.5 2.8-.3 3.1.3.2.8-.8 1.1-2.3.4-1.4.5-2.8.3-3.1-.3-.2-.8.8-1.1 2.3zM199 1139.3c0 3 6.4 19.5 8.9 22.6 1.4 1.9 3.1 4.4 3.8 5.5 1.2 2 1.2 2 1.3.2 0-1.1-.6-2.7-1.3-3.5-.8-.9-2.6-4.8-4.1-8.6-3.3-8.3-7.6-17.5-8.2-17.5-.2 0-.4.6-.4 1.3zM432.6 1149.5c-.7 2 1.4 5.5 3.3 5.5 1.2 0 1.2-.3.3-1.2-.7-.7-1.2-2-1.2-2.9 0-2.4-1.6-3.3-2.4-1.4zM212 1180c-.7 1.4-2.8 3.8-4.7 5.3-4.5 3.8-6.2 7.4-7.8 16.5-1.1 6.5-1.1 8.2.1 10.7 1.4 3 1.4 2.9.8-1.8-.6-5.3 1-14.5 3-17.2 1.1-1.6 1.3-1.4 1.3 1.4 0 1.7.8 4 1.7 5 1 1.1 1.8 3 1.7 4.3-.5 17.3-.8 19.1-2.4 20.3-2.3 1.7-2.1 3.7.6 6.3 2.4 2.2 6.2 3.3 4 1.1-1.3-1.3.6-7.1 2.2-6.5 1.1.4 1.1 1-.1 4-.5 1.3-.4 1.7.3 1.3.6-.4 1.4-1.9 1.8-3.4.3-1.6 1.7-4.5 3.1-6.5 2.6-4.1 2.9-5.9 1.3-8.9-1.5-3-2.9-1.3-1.6 2.1.9 2.4.8 3.2-.8 4.9-2.7 3-3.3 2.6-4.1-2.5-.5-3.7-.3-5.1 1.3-7.2 2.8-3.9 3.4-6 1.8-6.6-.8-.3-1.6-2.6-1.9-5.3-.4-2.6-1.1-6.8-1.6-9.2-1.1-4.5-.4-6 2.7-6.1 1.4 0 3.5 7.9 3.6 13.2.1 4.4.4 4.7 1.7 1.3 1.1-3-2.6-16.5-4.6-16.5-.7 0-1.4-.6-1.6-1.2-.3-.8-1-.3-1.8 1.2zM556.6 1184.7c-.6 1.4-.5 1.5.5.6.7-.7 1-1.5.7-1.8-.3-.3-.9.2-1.2 1.2z"/><path d="M486.1 1188.6c0 1.1.3 1.4.6.6.3-.7.2-1.6-.1-1.9-.3-.4-.6.2-.5 1.3zM551.8 1193.2c-2.9 5.6-3.9 8.7-6.2 19.3-.5 2.6-.4 2.5 1.4-1 1.1-2.2 2-4.8 2-5.7 0-.9.6-2.1 1.4-2.5.7-.4 2-2.4 2.9-4.3 1.7-3.7 3.3-12 2.3-12-.3 0-2 2.8-3.8 6.2zM470 1198c0 .5.5 1 1 1 .6 0 1-.5 1-1 0-.6-.4-1-1-1-.5 0-1 .4-1 1zM182.7 1199.4c-.4 1-.5 2.1-.2 2.4.9.9 1.7-.6 1.3-2.5-.3-1.7-.4-1.7-1.1.1zM415.5 1204c.3.5.8 1 1.1 1 .2 0 .4-.5.4-1 0-.6-.5-1-1.1-1-.5 0-.7.4-.4 1zM540.3 1224.2c-.5.7-2.9 5.3-5.3 10.3-2.4 4.9-6.1 11.8-8.3 15.2-2.1 3.5-3.7 6.7-3.5 7.3.3 1 7.7-9.8 9.5-14 .9-2.2 8-17.4 9-19.3.7-1.2-.4-.8-1.4.5zM495.5 1290.8c-3.6 4.6-3.9 5.5-1.7 4.1 1.9-1.2 4.7-5.8 4-6.4-.2-.2-1.2.9-2.3 2.3zM474.1 1292.4c-3.7 3.9-13.6 10.3-18.4 12-2.5.8-6.1 2.6-8.2 4-2.1 1.5-4.4 2.6-5.1 2.6-1.6 0-6.6 10.2-13.5 27.8-.5 1.3-.9 3.7-.9 5.3 0 2.2-1 4.1-3.4 6.5-2.3 2.3-3.2 4-2.9 5.4.5 1.8.7 1.7 2.7-1 1.1-1.6 3.4-4.5 4.9-6.4 2.1-2.5 3.2-5.7 4.4-11.8 2.8-15 5.7-17.6 5.1-4.6-.3 5.8-1 9.7-2.6 13-1.2 2.6-2.2 5.1-2.2 5.7 0 .5-.5 1.1-1.1 1.3-1.3.4-1.4 2.9-.7 14.2.4 6.1.9 8.2 2.4 9.3 2.6 1.9 5.2 1.6 6.4-.6 1.3-2.5 1.3-5.1 0-5.1-.5 0-1 .7-1 1.5s-.4 1.5-1 1.5c-.5 0-1-1.1-1-2.4 0-1.3-1-3-2.2-3.9-2-1.3-2.3-2.2-2.1-7.2.2-3.6.9-6.5 1.8-7.5 4.8-5.3 5.8-9.1 5.9-22.1.2-13.7 1-16.2 6.4-19.6 1.5-1 2.9-2 3.2-2.4.3-.3 2.1-1.1 4.2-1.8 8-2.6 22.8-12.5 22.8-15.2 0-1.6-1.6-1-3.9 1.5zM483.5 1303c-.3.5-.1 1 .4 1 .6 0 1.1-.5 1.1-1 0-.6-.2-1-.4-1-.3 0-.8.4-1.1 1zM473.5 1310c-.3.6.1.7.9.4 1.8-.7 2.1-1.4.7-1.4-.6 0-1.3.4-1.6 1z"/><path d="M457.6 1313.8c-.4.8-2.2 2.2-4 3.3l-3.1 1.9 3.3-.3c3.9-.5 5.5-1.8 5-4.3-.3-1.5-.5-1.6-1.2-.6zM466.3 1317.5c-.9 2.5.4 2.9 1.7.6.7-1.5.7-2.1 0-2.1-.6 0-1.3.7-1.7 1.5zM455 1323.7c0 2.2.2 2.5 1 1.3 1.3-2 1.3-4 0-4-.5 0-1 1.2-1 2.7zM446.6 1333c-1 5.4-3 12-4.7 15.4-3.2 6.5-3.3 8.3-.2 3.9 4-5.6 8.6-21.7 7.4-25.9-.7-2.5-1-1.4-2.5 6.6zM463.7 1326.2c-.3.9-.2 3.2.3 5.1.4 2 .6 3.8.4 4-.3.2-.7 4-1 8.3-.6 7.7-.6 7.9 1.2 6.1 1.6-1.5 1.9-3.2 1.8-11-.1-9.3-1.5-15.6-2.7-12.5zM456.7 1334.9c.4 4.4.2 6.6-.8 7.9-4.4 5.4-4.9 8.6-1.6 10.3 1.2.7 2.8 1.9 3.5 2.8 1.1 1.4 1.3 1.4 2.7-.3 1.7-2.2 2-4 .6-3.1-2 1.2-2.3-1.7-2-16.8.1-2.3-.5-4.5-1.4-5.4-1.4-1.4-1.5-.9-1 4.6zM439.2 1360.7c.6 2.7 1 5.6 1 6.5-.1 1 .6 1.8 1.4 1.8 1.6 0 1.9-3.6.4-4.5-.6-.4-.8-1.5-.5-2.5.6-2-1-6-2.4-6-.5 0-.4 2.1.1 4.7zM379.2 1420.1c.2.7 1 1.5 1.7 1.7.8.3 1.2-.1.9-.9-.2-.7-1-1.5-1.7-1.7-.8-.3-1.2.1-.9.9zM374.4 1448.5c.2 1.6.7 3.7 1 4.5.4.9-1.5 3.9-5 7.7-5.8 6.6-15 24.4-17.2 33.3-3.7 14.9-4.7 49.6-1.7 58.4 1.1 3 1.5 8.3 1.4 17.7 0 12.8-.2 13.7-3.4 21.4-1.8 4.5-3.8 10.7-4.4 13.8-.6 3.1-2.6 8.6-4.4 12.1-1.9 3.5-3.8 7.7-4.1 9.2-.4 1.6-2.4 6-4.3 9.9-1.9 3.8-4.6 9.9-6 13.5-1.4 3.6-3.1 7.3-4 8.2-.8.9-1.2 2.1-.9 2.7.4.5.1 1.3-.5 1.7-.8.5-.9.3-.4-.6.6-.9.4-1.1-.4-.6-.7.5-1 1-.7 1.3.3.3-.4 1.7-1.4 3.1-1.1 1.3-2 2.9-2 3.5 0 .5-2 2.8-4.5 5.2l-4.5 4.2 3.6 6.9c1.9 3.8 4 7 4.4 7.2.5.2.6 1.1.3 1.9-.5 1.2-.2 1.5 1 1 2.2-.8 2.3 2.4.2 8.3-2.9 8.2-.8 9.3 2.6 1.4 1.4-3.1 2.1-7.6 2.5-16.3.5-11.9-.2-14.6-2.5-10.2-.6 1-2.4 2.1-4.2 2.3-2.4.4-3.3 0-3.9-1.6-1.1-2.7 3.2-7 6.1-6.1 1.4.5 2.2 0 2.8-1.7.5-1.3.7-2.6.4-3.1-.8-1.3.8-4.7 2.1-4.7.8 0 1.6 1.7 2 3.9.3 2.1 1.5 4.9 2.6 6.2l2.1 2.4-.7-5c-.3-2.8-.8-5.7-1-6.7-.3-1.1.5-2 2.7-3 3.6-1.5 7.5-8.2 10-17.3.9-3.3 2-7 2.4-8.3 1.1-3.4-1.1-2.7-2.5.9-.7 1.7-1.8 3.6-2.4 4.2-.6.7-2.7 3.2-4.5 5.7-1.9 2.5-3.9 4.9-4.4 5.5-1.9 2 .5-4.2 5.3-13.5 2.6-5.2 5.3-11.4 5.9-13.8.7-2.3 1.5-4.2 2-4.2.4 0 .8-.6.8-1.3 0-.6 1.2-3.8 2.6-7 1.5-3.2 2.7-7.1 2.7-8.8 0-3.7 2.8-10.1 4.1-9.3.5.3.6-.3.2-1.2-.4-1.2-.3-1.5.6-1 .8.5 1.1.3 1-.5-.4-2.2 2.3-13.2 3.6-14.9.7-.8 1.3-4.2 1.4-7.5.2-3.3.5-7.4.8-9 .3-1.7.6-5.7.7-9 .1-3.3.5-6.5.9-7.2.4-.6.7-3.8.6-7.1-.1-3.3.1-6.5.5-7 1-1.6 3.7-32.8 3-34.6-.3-.9-.2-1.6.3-1.6.8 0 2.3-4.3 3.9-11.3.4-1.8 1.3-2.7 2.5-2.7 1 0 2-.5 2-1 .1-.6.2-1.5.3-2.1.2-2.1 3.8-3.8 6.9-3.2 2.1.4 2.8.3 2.3-.5s0-1.2 1.3-1.2c2.3 0 3.4-2.8 2.5-6.4-.5-2-.1-3.1 1.3-4.4 3-2.6 9.3-13.1 8.3-13.7-.5-.3-1.2.1-1.7.8-1.4 2.4-10.3 9.7-11.8 9.7-1.1 0-1.3-.8-.8-3 .3-1.9.1-3-.6-3-.6 0-1.1-1.5-1.1-3.3-.1-2.6-.2-2.9-1.1-1.5-.5 1-1.6 1.8-2.4 1.8-.8 0-1.9-.8-2.5-1.8-.9-1.4-1-1.2-.6 1.3zM316 1685.6c0 .8-.5 1.2-1 .9-.6-.4-.8-1.1-.5-1.6.9-1.4 1.5-1.1 1.5.7zM222.1 1567.6c-1.7 1.4-3.1 3.4-3.1 4.3 0 3.9 6.7 7.9 8.5 5.1.3-.6-.4-1-1.7-1l-2.3-.1 2.1-1.7c1.2-1 2.7-2.9 3.4-4.2 1.1-2 1-2.5-.6-3.7-2.4-1.8-2.8-1.7-6.3 1.3zM234.8 1576.7c-.8 1-3.6 5.6-6.1 10.3-2.5 4.7-7.3 12.1-10.6 16.4-3.3 4.4-5.9 8.2-5.9 8.5.1.3-.2 1.3-.5 2.1-.4.8-.1 3.5.7 6 1.1 4 1.7 4.5 4.4 4.8 2.5.3 3.8-.3 5.7-2.5 2.5-2.8 2.7-4.9 1-10.9-.5-1.7.6-3.4 5.5-8 5.7-5.5 11.8-14 10.7-15-.2-.3-1.9 1.8-3.6 4.5-1.8 2.7-4.4 5.7-5.8 6.6-2.5 1.7-2.6 1.7-2.1-.6 1.6-7.4 3.6-12.6 5.5-14.8 1.3-1.5 3.2-3.6 4.3-4.9 1.1-1.2 2-2.7 2-3.2 0-1.7-3.6-1.1-5.2.7zm-12.8 31.8c-.5.6-.8 3.6-.7 6.7.1 3.7-.3 6.1-1.2 7-1.1 1.1-1.2.7-.9-2.7.6-4.4-.7-8.9-2.1-8-1.6.9-2.3-1.4-.9-2.8 1.5-1.7 7.2-1.9 5.8-.2zM264.9 1590.5c-.3 2.2-1.2 3.4-3.6 4.5-1.8.8-4 2.4-5 3.5-2.2 2.3-9.3 15.4-9.3 17 0 .6-1.3 2.6-2.8 4.5-4.7 5.7-6 9.2-1.7 4.5 2-2.2 4.3-5.6 5.2-7.5 4-9.1 9.6-17.2 12.6-18.5 3.9-1.6 6.8-6.2 5.7-9-.7-1.7-.8-1.6-1.1 1zM235.7 1633.8c-.5 2.5-1.2 3-5.4 3.8l-4.8.9.2 4.9c.1 2.7.6 5.3 1.2 5.9.8.8 1.1.8 1.1-.1 0-.7 1-.9 2.9-.6 2.7.6 3.1.3 4.5-3 .8-2 1.3-4.3.9-5.1-.3-.9 0-2.9.7-4.6.9-2 1-3.3.3-4-.7-.7-1.2-.1-1.6 1.9zM341.6 1686.6c-.3 2.6-1.1 5.3-1.8 6.1-1.6 2-1.2 6.5 1.2 13.8 2.5 7.5 2.4 6.4 1.5 23.2-.6 12.1-.4 13.6 1.4 17.9 2.5 5.6 2.6 6.4.6 6.4-1 0-1.5-1-1.5-2.8 0-1.6-.7-3.7-1.5-4.8-1.3-1.6-1.6-1.7-2.5-.4-1.2 1.9-4 .4-5.7-3.1-.9-1.9-.7-3.8.7-9.4 1.4-5.6 1.7-9.8 1.4-20.8-.3-7.7 0-15.5.6-17.6.5-2.1.7-5.2.4-6.9l-.6-3.1-2.4 3.2c-5.9 7.9-7.1 17.3-3.4 25.6 2.1 4.4 2.6 8.1 1.2 8.1-.4 0-1.6-1.9-2.7-4.3-2.1-4.8-4.1-5.5-8.7-3.1l-2.9 1.5 3 5.4c1.7 3 3.1 6.2 3.1 7 0 2.1.8 1.9 4.6-1 4.8-3.7 5.6-3.3 4.8 2.2-.3 2.7-1 5.6-1.5 6.5-.5.9-.9 2.5-.9 3.6 0 2.8 3.7 10.9 7.4 16.2 1.7 2.4 3.4 4.9 3.8 5.4.9 1.4 4.8-2.2 4.8-4.6 0-1.4.8-1.8 3.4-1.8 2.5 0 4-.7 5.5-2.7 3.3-4.1 3.5-6.8 1.2-11.6-1.8-3.7-2-5.5-1.5-10.3.9-8.4 1.9-9.3 2.1-1.9.1 4.9.7 7.2 2.7 10.2 2 3.1 2.5 5.2 2.7 11 .2 6.3.5 7.5 3 10.3 2.3 2.5 3.2 2.9 4.8 2.1 2.7-1.5 3.6-3.9 3.7-10.6 0-3.3.4-7.9.9-10.2.6-3.4.4-4.7-1.2-7-6.4-9.1-10.1-20.7-10.4-33-.3-11.2-1.9-9.2-1.9 2.4s1.6 18.9 4.8 22.5c.8 1 1.2 1.8.8 1.8-1 0 3 7.4 4.8 8.9 2.8 2.3 1.9 5.7-1.9 8.1-2.2 1.4-3.5 2.9-3.5 4.3 0 1.2-.4 2.8-.9 3.5-.5.8-.8-1.2-.9-5-.1-4.6-.8-7.6-2.7-11.3-2.2-4.3-2.4-5.8-1.9-11.1.4-3.9.2-7.5-.6-10-.7-2.1-1.2-6.6-1.1-10 .2-6.8-1.9-12.7-5.6-15.7-1.2-1-2.5-2.6-2.8-3.7-1.2-3.8-2.5-2-1.9 2.7.5 4.4.4 4.7-1 2.9-.8-1-1.3-2.3-1-2.8.6-.9-1.7-6.8-2.7-6.8-.3 0-.9 2.1-1.3 4.6zm8.5 11.5c1.4 2.1 2.3 5 2.5 8.7.6 9.5.5 24.8-.2 27.6-.4 1.8.1 3.9 2 7.1 1.5 2.5 2.4 5 2.1 5.6-1 1.5-3.5-.9-2.8-2.6.5-1.4-2.6-2.7-7.1-2.9-1.6-.1-2.2-.9-2.4-3.5-.3-3 .7-6.7 6.4-24.8 1.4-4.3 1.1-6.6-1.1-9.3-1.3-1.5-3-9-2.1-9 .2 0 1.5 1.4 2.7 3.1zm-24.7 20.1c1.4 5.6-.4 6.2-2.2.8-.9-2.4-.8-3 .2-3 .8 0 1.6 1 2 2.2zm27.8 29.3c1.2 2.6.4 4.6-1.1 2.9-.5-.5-1.2-1.9-1.6-3.2-.9-3.1 1.2-2.9 2.7.3zm-10.5 6.7c1.2 2.5 1.2 2.8-.2 2.8-1.9 0-3.7-4.3-2.8-6.7.5-1.4.8-1.4 1.1-.2.3.7 1.1 2.6 1.9 4.1zm28.3 1.4c0 2.7-.4 4.3-1 3.9-.5-.3-1-2.4-1-4.6 0-2.1.5-3.9 1-3.9.6 0 1 2.1 1 4.6z"/></svg>