<?xml version="1.0" standalone="no"?>
<!DOCTYPE svg PUBLIC "-//W3C//DTD SVG 20010904//EN"
 "http://www.w3.org/TR/2001/REC-SVG-20010904/DTD/svg10.dtd">
<svg version="1.0" xmlns="http://www.w3.org/2000/svg"
 width="1088.000000pt" height="1920.000000pt" viewBox="0 0 1088.000000 1920.000000"
 preserveAspectRatio="xMidYMid meet">

<g transform="translate(0.000000,1920.000000) scale(0.100000,-0.100000)"
fill="#000000" stroke="none">
<path d="M1842 17093 c-10 -4 -8 -8 5 -18 17 -12 16 -14 -12 -20 -58 -13 -117
-50 -152 -95 -65 -84 -123 -138 -172 -160 -55 -25 -91 -76 -91 -129 0 -37 -69
-171 -88 -171 -15 0 -7 -36 13 -60 36 -41 88 -274 100 -440 3 -47 11 -114 17
-150 6 -36 10 -77 9 -93 -1 -15 6 -41 14 -58 9 -16 15 -38 14 -47 -2 -9 0 -27
5 -39 4 -12 8 -30 10 -40 17 -83 34 -120 83 -181 59 -72 196 -161 413 -267 52
-26 111 -56 130 -68 64 -38 175 -113 203 -138 119 -101 123 -106 151 -188 15
-44 42 -103 59 -130 36 -56 133 -184 166 -218 25 -27 23 -28 -21 -9 -112 47
-168 56 -368 57 -189 2 -263 16 -351 69 -63 39 -97 51 -84 30 3 -5 3 -10 -1
-10 -16 0 -154 70 -154 78 0 5 -35 30 -77 56 -138 84 -215 147 -248 204 -10
16 -32 36 -49 43 -22 10 -31 21 -32 39 0 14 -12 44 -27 67 -15 24 -27 47 -27
52 0 5 -6 14 -14 20 -8 7 -17 23 -20 36 -17 67 -240 355 -275 355 -16 0 -89
78 -97 102 -13 42 -44 59 -99 53 -27 -2 -68 -6 -90 -8 -67 -6 -88 -17 -147
-77 -32 -32 -83 -71 -115 -87 -33 -17 -63 -40 -69 -54 -49 -103 -54 -122 -54
-195 0 -68 3 -81 30 -121 60 -89 119 -258 135 -386 11 -90 9 -165 -9 -352 -11
-119 -46 -299 -71 -365 -7 -19 -17 -78 -22 -130 l-9 -95 51 -52 c61 -61 183
-164 239 -202 23 -14 68 -35 101 -45 86 -26 178 -68 212 -97 62 -52 139 -176
239 -384 15 -33 31 -62 34 -65 12 -10 82 -183 87 -216 4 -24 0 -40 -16 -59
-19 -25 -19 -29 -5 -56 12 -24 13 -40 5 -87 -6 -31 -10 -97 -9 -145 1 -81 3
-91 34 -140 54 -84 66 -116 60 -156 -9 -53 5 -69 45 -54 18 7 34 11 36 9 3 -2
-1 -23 -7 -47 -17 -62 2 -115 47 -134 18 -8 33 -19 33 -25 0 -25 18 2 24 37
31 174 38 226 37 281 -1 34 3 62 8 62 17 0 30 -67 21 -107 -16 -76 -20 -123
-11 -123 5 0 11 17 14 38 3 20 10 58 15 84 7 37 4 69 -15 154 -13 58 -22 109
-19 112 10 9 39 -23 57 -62 13 -29 16 -54 12 -88 -5 -46 -4 -50 31 -83 37 -35
82 -47 84 -22 0 6 4 35 7 63 7 50 7 52 -22 66 -29 14 -29 14 -25 -9 2 -13 -1
-23 -7 -23 -6 0 -11 -7 -11 -16 0 -8 -4 -12 -10 -9 -5 3 -10 1 -10 -6 0 -7 -3
-9 -6 -6 -4 4 -2 13 4 20 7 8 9 16 6 20 -3 3 -7 38 -9 79 -4 74 -6 90 -19 120
-4 9 -5 21 -2 26 3 5 -8 22 -24 37 -17 16 -30 34 -30 41 0 7 -5 16 -11 20 -9
5 -10 -1 -5 -20 10 -40 -10 -23 -24 20 -7 19 -14 33 -17 30 -3 -3 -14 -1 -25
5 -13 7 -16 14 -10 22 5 7 12 28 16 48 6 32 2 43 -32 85 -21 27 -47 74 -59
104 -12 30 -25 64 -29 75 -10 27 79 -72 138 -153 27 -35 53 -82 59 -104 12
-48 22 -44 21 9 -1 46 -40 125 -74 152 -32 26 -149 174 -164 209 -6 15 -21 38
-33 51 -11 13 -21 30 -21 37 0 7 -9 31 -21 53 -11 22 -23 55 -26 73 -2 18 -11
47 -18 63 -7 17 -21 52 -31 80 -9 27 -35 84 -56 125 -21 41 -38 80 -38 86 0 6
-7 17 -15 24 -8 7 -15 20 -15 30 0 20 -61 90 -78 90 -7 0 -12 9 -12 19 0 19
-88 101 -108 101 -5 0 -15 6 -21 14 -6 7 -48 19 -94 26 -138 22 -193 57 -218
140 -7 21 -9 53 -5 72 5 30 84 163 104 178 4 3 13 21 19 40 7 19 26 73 43 120
17 47 37 105 45 130 20 60 28 206 18 307 l-9 81 31 -20 c16 -12 90 -84 164
-160 74 -76 138 -138 143 -138 5 0 44 -31 86 -69 42 -39 120 -102 172 -141 52
-40 113 -89 135 -110 133 -126 340 -243 504 -286 75 -20 119 -25 216 -25 139
-1 183 -12 232 -58 18 -17 43 -31 55 -31 18 0 29 -13 53 -63 16 -34 59 -102
94 -150 56 -76 73 -92 128 -119 35 -17 63 -32 63 -33 0 -1 -14 -30 -31 -65
-31 -61 -32 -64 -26 -174 7 -128 16 -162 86 -311 29 -61 58 -123 66 -140 7
-16 25 -55 40 -85 34 -71 55 -152 55 -215 0 -27 4 -66 10 -85 12 -41 15 -269
5 -324 -4 -21 -17 -62 -27 -90 -11 -28 -21 -59 -22 -69 -3 -28 -71 -85 -114
-96 -20 -6 -81 -22 -135 -36 -55 -15 -139 -47 -195 -75 -53 -28 -105 -50 -114
-50 -18 0 -199 -100 -265 -147 -54 -38 -230 -172 -257 -195 -138 -122 -686
-683 -686 -703 0 -7 -7 -18 -16 -26 -9 -7 -44 -57 -79 -110 -35 -54 -70 -101
-78 -106 -7 -4 -25 -30 -38 -58 -32 -67 -103 -136 -161 -158 -26 -10 -49 -26
-52 -35 -9 -29 -10 -206 -1 -232 4 -14 14 -32 21 -41 8 -9 18 -49 22 -90 6
-59 11 -76 27 -84 33 -17 114 -104 134 -143 11 -20 30 -48 44 -61 15 -13 23
-29 20 -38 -3 -8 -2 -18 3 -22 5 -3 26 -27 47 -54 40 -49 57 -58 57 -31 0 13
3 14 15 4 8 -6 17 -22 21 -33 4 -12 39 -57 78 -99 39 -42 85 -103 101 -135 17
-32 42 -78 56 -103 14 -25 28 -54 31 -65 4 -11 21 -56 38 -100 17 -44 33 -87
34 -95 1 -8 5 -22 8 -30 26 -64 69 -210 73 -248 2 -26 14 -87 26 -137 34 -145
54 -388 54 -655 l0 -125 -35 -50 c-19 -27 -39 -53 -45 -57 -5 -4 -6 -8 -1 -8
5 0 18 7 28 17 11 9 18 11 18 5 0 -7 -3 -12 -7 -12 -5 0 -19 -9 -32 -19 -16
-13 -21 -23 -15 -32 16 -27 13 -83 -6 -117 -26 -43 -25 -66 2 -84 22 -14 22
-16 5 -41 -22 -33 -22 -95 0 -164 17 -53 14 -89 -12 -168 -5 -16 3 -27 34 -50
32 -24 38 -35 35 -55 -4 -17 2 -32 16 -47 23 -25 52 -31 44 -9 -3 8 -1 17 5
21 11 6 15 -7 11 -34 -1 -10 6 -12 23 -7 23 5 26 3 32 -37 9 -48 18 -57 63
-57 21 0 32 5 32 15 0 9 -6 12 -15 9 -20 -8 -45 13 -45 37 0 30 19 32 31 2
l11 -28 10 28 c6 16 17 27 28 27 41 0 68 22 80 66 14 50 8 87 -20 117 -31 33
-33 14 -4 -41 20 -39 24 -54 15 -69 -9 -16 -10 -15 -11 11 0 21 -4 27 -16 22
-9 -3 -17 -6 -20 -6 -2 0 1 -12 6 -26 12 -31 12 -34 2 -34 -8 0 -24 33 -61
130 -21 54 -26 81 -25 155 1 73 0 81 -6 44 -5 -26 -13 -56 -19 -67 -12 -23 -5
-93 14 -137 7 -16 16 -49 19 -72 5 -37 4 -43 -12 -43 -10 0 -22 -4 -27 -9 -6
-4 -22 -11 -37 -15 -24 -6 -28 -3 -28 16 0 13 5 41 11 63 23 87 35 172 28 197
-16 62 -21 149 -9 163 12 15 6 35 -6 22 -7 -7 -23 -68 -32 -122 l-7 -40 -17
45 c-21 53 -24 86 -14 120 8 25 8 25 -22 -5 l-31 -30 14 -65 c12 -58 12 -129
-2 -170 -9 -28 -33 21 -33 67 0 24 -9 71 -21 105 -20 60 -19 108 2 108 6 0 7
5 4 11 -4 5 14 30 39 54 32 32 50 59 61 96 17 60 20 103 5 94 -6 -4 -8 -10 -5
-15 7 -11 -23 -90 -41 -110 -10 -10 -14 -11 -14 -2 0 8 -5 10 -12 6 -8 -5 -9
-2 -3 12 4 10 9 37 11 59 2 22 6 46 9 53 3 7 0 10 -5 7 -20 -12 -9 17 19 53
18 24 29 49 29 71 1 19 5 37 10 40 5 3 11 28 14 54 5 38 3 47 -8 43 -14 -5
-19 5 -8 17 3 3 6 36 6 74 -1 37 -1 121 -2 186 -1 115 3 143 20 132 5 -3 12
-1 15 5 4 6 1 9 -7 8 -8 -2 -12 6 -10 22 1 19 0 21 -7 10 -15 -23 -25 13 -14
47 6 18 5 47 -3 83 -8 39 -12 47 -13 26 -1 -22 -4 -27 -12 -19 -10 10 -11 56
-8 343 0 25 -2 78 -5 119 -3 46 -1 82 6 95 7 12 13 30 14 41 1 11 7 40 14 65
16 64 15 115 -4 141 -9 13 -16 37 -16 54 0 31 -13 59 -27 61 -4 0 -19 5 -32
11 l-25 10 23 6 c38 9 19 32 -24 30 -37 -3 -38 -2 -20 17 14 16 16 23 7 32 -7
7 -12 21 -12 32 0 11 -16 36 -35 55 -20 20 -46 47 -58 59 -12 13 -41 32 -64
43 -23 10 -46 25 -50 32 -4 7 -21 21 -36 30 -23 15 -26 21 -16 33 9 11 9 18 1
26 -6 6 -8 16 -6 23 3 7 -2 15 -10 18 -12 5 -15 0 -12 -23 5 -46 -16 -36 -42
20 -12 27 -31 55 -41 62 -10 7 -19 18 -20 23 0 6 -19 10 -41 9 -27 0 -40 4
-40 13 0 7 -9 13 -19 13 -32 0 -74 45 -66 70 4 14 12 19 23 16 9 -3 24 -1 32
4 12 8 12 10 -5 11 l-20 0 20 9 c17 7 17 9 2 9 -9 1 -16 6 -15 13 2 6 -8 14
-22 18 -24 6 -25 10 -25 81 -1 90 2 102 27 96 24 -7 70 17 80 40 3 10 7 31 7
46 1 15 8 30 16 33 8 4 15 12 15 19 0 20 23 24 38 6 11 -14 12 -13 10 9 -2 19
2 26 20 28 14 2 22 10 22 23 0 10 5 19 10 19 6 0 10 6 10 14 0 8 14 19 30 25
36 12 58 32 53 47 -2 7 3 19 12 27 8 9 15 25 15 36 0 15 6 20 21 18 28 -3 35
16 14 37 -9 9 -12 16 -6 16 6 0 11 9 11 19 0 11 7 26 15 35 8 8 15 22 15 30 0
9 7 16 15 16 13 0 14 -4 5 -20 -9 -16 -8 -20 6 -20 12 0 15 -6 10 -26 -10 -40
11 -20 34 33 21 47 20 73 -1 73 -6 0 -9 -7 -6 -14 4 -10 1 -13 -9 -9 -17 6
-19 44 -2 40 7 -1 15 18 21 50 7 42 12 52 30 55 16 2 21 9 19 24 -3 22 25 41
68 46 19 2 24 8 22 23 -2 11 -9 23 -15 27 -7 5 -4 8 9 8 12 0 25 10 32 25 6
14 20 25 29 26 11 0 13 2 5 6 -18 7 4 33 29 33 11 0 19 6 19 13 0 8 10 22 21
33 12 10 36 42 54 69 18 28 46 65 63 84 17 18 28 39 25 47 -3 8 1 14 11 14 8
0 20 10 27 21 9 18 17 20 52 15 27 -4 37 -3 28 3 -11 7 -9 10 8 16 11 3 26 3
33 -1 8 -5 9 -2 5 10 -4 11 -3 15 4 11 5 -4 20 4 33 17 12 12 39 36 59 52 31
24 35 32 25 45 -7 9 -9 13 -4 9 8 -7 46 26 46 42 0 5 8 14 18 19 12 8 14 13 5
19 -15 9 -5 25 24 41 26 13 57 15 49 2 -3 -5 4 -11 16 -14 27 -7 38 0 14 9
-15 6 -15 7 1 21 10 8 12 11 4 7 -9 -5 -12 -3 -7 4 10 17 24 15 52 -7 19 -15
32 -17 58 -11 39 9 56 18 56 30 0 5 -16 2 -35 -6 -28 -11 -39 -12 -55 -2 -24
15 -35 39 -14 31 7 -3 14 -1 14 4 0 5 6 10 13 11 6 0 28 4 48 7 29 6 37 4 45
-13 9 -20 9 -20 76 1 38 12 76 29 86 37 26 21 42 23 42 4 0 -12 6 -11 29 8 16
13 34 33 40 46 9 19 8 22 -8 22 -11 0 -21 -4 -23 -9 -1 -5 -20 -6 -41 -2 -36
6 -37 7 -23 26 13 16 17 17 25 6 6 -10 21 -12 56 -7 33 5 45 4 40 -3 -10 -17
21 -13 35 4 7 8 21 15 31 15 27 0 24 20 -3 22 -34 2 -44 1 -75 -6 -24 -6 -26
-5 -13 7 17 15 126 47 164 47 28 0 43 -15 24 -23 -7 -3 4 -6 25 -6 20 -1 37
-6 37 -12 0 -6 11 -8 28 -5 73 16 255 6 268 -15 10 -18 51 -10 57 11 4 15 -2
24 -21 34 -15 7 -33 11 -40 9 -7 -3 -18 0 -25 5 -7 5 -25 10 -41 10 -16 0 -32
6 -37 14 -6 11 -30 14 -99 13 -75 0 -88 2 -73 12 9 7 33 13 52 13 23 0 31 3
23 8 -15 10 89 82 117 82 9 0 21 4 27 9 5 5 19 4 34 -2 l25 -11 -29 -4 c-25
-3 -28 -7 -24 -33 4 -25 2 -29 -16 -24 -12 3 -15 2 -8 -1 6 -3 12 -12 12 -20
0 -12 -5 -12 -34 0 -18 7 -46 11 -62 8 -26 -5 -24 -6 26 -23 77 -26 98 -24
110 7 8 19 6 29 -5 41 -9 8 -13 18 -10 22 4 3 17 -7 30 -22 26 -34 58 -33 63
1 2 16 8 22 18 18 8 -3 14 -1 14 5 0 5 14 15 32 21 l31 11 -23 19 c-17 14 -20
22 -12 30 8 8 13 7 18 -5 8 -21 44 -22 44 -2 0 26 -48 30 -74 6 -23 -22 -46
-28 -46 -11 0 5 13 16 30 25 30 15 32 38 4 49 -22 8 -17 23 11 30 14 4 24 13
23 20 -4 16 91 126 108 126 7 0 16 5 20 12 5 7 2 9 -7 4 -8 -4 -6 -1 4 7 9 8
17 19 17 25 0 15 40 82 50 82 4 0 16 17 25 37 10 20 25 45 35 55 9 10 30 44
46 74 16 31 35 59 42 61 6 3 12 11 12 18 0 6 11 25 25 41 43 49 87 155 115
274 23 100 23 100 6 100 -12 0 -14 4 -7 18 15 30 32 105 37 167 3 33 7 69 8
80 2 11 -5 32 -15 47 -11 15 -19 44 -20 70 0 23 -4 63 -8 88 -7 38 -9 28 -11
-60 -1 -58 -2 -108 -1 -112 4 -29 -121 45 -162 96 -44 53 -64 97 -72 159 -3
26 -10 47 -14 47 -14 0 -20 80 -11 137 5 30 21 78 35 108 14 30 25 61 25 69 0
25 20 19 21 -6 0 -18 3 -15 13 12 13 37 7 79 -19 130 -36 69 -228 300 -249
300 -6 0 -24 13 -41 29 -135 131 -448 263 -712 301 -100 15 -133 8 -43 -8 296
-55 495 -152 647 -317 90 -97 157 -198 235 -355 28 -59 32 -74 32 -155 0 -119
-34 -283 -55 -269 -5 3 -7 14 -4 25 4 11 2 19 -4 19 -6 0 -11 -9 -11 -19 0
-35 -18 -32 -36 5 -20 43 -25 81 -12 107 6 11 6 23 0 30 -5 7 -13 32 -16 57
-7 53 -31 84 -46 60 -8 -13 -10 -12 -10 3 0 9 -7 17 -15 17 -17 0 -20 -16 -5
-25 14 -9 8 -95 -7 -95 -6 0 -15 14 -18 31 -5 23 -9 28 -16 18 -13 -21 -42 1
-50 37 -10 44 -44 114 -78 162 -17 23 -31 45 -31 49 -1 5 -14 23 -30 42 -16
19 -28 37 -26 40 2 3 -6 7 -18 7 -12 1 -36 16 -53 33 -17 17 -38 31 -46 31 -9
0 -35 15 -59 33 -24 18 -62 42 -84 54 -23 12 -63 44 -89 72 -26 28 -56 51 -66
51 -10 0 -22 6 -26 14 -4 7 -18 18 -30 25 -12 6 -25 21 -29 33 -12 39 -88 137
-106 138 -23 0 -23 -16 2 -47 11 -14 20 -34 20 -43 0 -10 14 -49 32 -87 36
-79 44 -113 26 -113 -9 0 -10 -3 -2 -8 6 -4 14 -14 17 -22 3 -9 6 -6 6 9 1 23
3 22 29 -15 16 -21 32 -47 35 -57 5 -15 2 -16 -21 -11 -31 8 -82 51 -82 71 0
7 -5 13 -12 13 -9 0 -9 3 0 12 18 18 16 59 -3 52 -9 -4 -15 0 -15 10 0 9 -7
16 -16 16 -9 0 -25 9 -34 20 -10 12 -22 19 -26 18 -5 -2 -33 20 -62 47 -36 34
-52 56 -48 68 2 10 -2 35 -11 55 -10 24 -13 51 -9 79 3 24 1 55 -6 70 -6 16
-14 44 -17 63 -5 30 -11 35 -41 41 -52 9 -214 68 -218 79 -2 5 -23 18 -46 29
-29 12 -45 27 -49 43 -4 14 -19 30 -34 37 -51 23 -123 74 -123 87 0 6 -12 17
-27 23 -38 15 -123 69 -170 108 -22 18 -54 62 -73 99 -19 37 -41 69 -47 71 -7
3 -13 13 -13 23 0 11 -4 21 -9 24 -10 7 -21 66 -11 66 3 0 12 -21 19 -47 11
-43 14 -46 25 -30 12 15 15 11 30 -40 9 -32 23 -69 31 -83 l14 -25 1 28 c0 40
14 26 51 -51 17 -37 34 -61 37 -54 2 8 -1 19 -7 25 -14 14 -15 50 0 42 11 -8
-9 32 -28 52 -6 7 -17 35 -24 63 -7 27 -16 50 -21 50 -4 0 -5 7 -2 15 4 8 2
15 -3 15 -6 0 -15 19 -22 43 -7 23 -29 78 -49 122 -24 53 -35 93 -34 120 1 29
-1 35 -7 20 -16 -38 -30 75 -35 285 -6 196 -15 275 -39 330 -10 23 -12 20 -17
-30 -3 -33 -8 -50 -13 -42 -13 19 -25 14 -35 -15 l-10 -28 -1 35 c-1 19 -15
68 -31 109 -39 94 -39 142 -3 171 18 14 30 17 36 11 7 -7 21 -4 44 10 18 11
45 19 60 17 24 -3 28 -7 25 -32 -3 -18 0 -26 7 -22 6 4 11 15 11 25 0 15 10
19 50 23 60 6 68 12 48 35 -9 10 -23 42 -32 70 -17 50 -17 54 0 82 21 36 96
71 158 74 l43 2 -25 33 c-25 33 -28 34 -50 25z m-1012 -1548 c7 -8 18 -15 24
-15 22 -1 137 -118 196 -200 33 -46 60 -86 60 -90 0 -4 16 -27 35 -51 19 -24
35 -47 35 -52 0 -4 18 -33 39 -65 22 -31 37 -60 34 -65 -3 -5 3 -15 13 -22 11
-9 14 -14 6 -15 -21 0 24 -70 78 -121 27 -25 47 -49 43 -53 -3 -3 0 -6 7 -6 8
0 25 -11 39 -24 56 -52 255 -187 333 -225 185 -91 409 -161 476 -148 15 3 49
0 76 -6 38 -9 51 -8 54 1 10 31 196 2 259 -40 25 -17 41 -33 36 -37 -4 -3 -8
-12 -8 -18 0 -7 -4 -13 -10 -14 -44 -4 -61 -54 -25 -77 21 -13 28 -42 10 -42
-5 0 -10 5 -10 10 0 6 -6 10 -13 10 -20 0 -38 22 -27 35 6 7 -4 11 -33 11 -23
1 -55 5 -70 9 -15 4 -27 4 -26 -1 1 -5 1 -20 0 -33 -1 -22 -3 -23 -58 -17 -32
4 -82 12 -111 17 -40 8 -57 8 -67 -1 -12 -10 -16 -9 -21 4 -4 11 -19 16 -49
16 -24 0 -46 4 -49 9 -4 6 31 7 84 4 49 -2 90 -2 90 0 0 14 -13 37 -22 37 -5
0 -6 -5 -2 -11 5 -8 -5 -10 -32 -5 -54 8 -54 8 -96 0 -33 -6 -38 -4 -39 12 -1
18 -2 18 -6 1 -4 -15 -11 -17 -31 -12 -15 4 -34 13 -43 21 -8 8 -24 14 -34 14
-10 0 -24 8 -32 18 -10 12 -16 14 -19 5 -10 -22 -38 -14 -59 16 -14 22 -23 27
-35 21 -20 -11 -162 59 -202 98 -53 54 -87 82 -97 82 -6 0 -11 6 -11 14 0 7
-9 16 -20 19 -11 3 -28 19 -37 36 -10 17 -26 34 -35 37 -10 3 -17 8 -16 12 3
9 -44 59 -80 86 -16 11 -51 48 -77 81 -27 33 -54 64 -62 68 -7 4 -13 13 -13
18 0 6 -6 16 -12 23 -7 7 -31 34 -53 61 -48 56 -64 73 -96 101 -13 11 -44 43
-68 71 -43 51 -69 67 -103 64 -9 -1 -39 4 -65 12 -29 9 -65 12 -92 8 l-43 -6
22 -20 c32 -29 50 -69 50 -110 0 -70 31 -189 55 -215 13 -14 28 -45 34 -70 14
-59 14 -60 -4 -60 -11 0 -13 -13 -10 -64 4 -56 2 -66 -14 -71 -12 -4 -22 -23
-30 -63 -7 -31 -20 -70 -28 -87 -8 -16 -16 -38 -18 -47 -2 -9 -10 -29 -19 -45
-26 -48 -19 2 15 110 26 83 29 100 17 114 -8 11 -9 14 -1 10 13 -8 18 7 26 71
2 22 -1 32 -10 32 -7 0 -13 10 -13 21 0 17 3 19 13 10 12 -9 13 -2 10 42 -2
34 -9 56 -20 65 -9 6 -19 24 -21 40 -7 60 -88 182 -111 167 -5 -2 -14 7 -22
21 -7 14 -25 34 -40 45 -24 17 -109 165 -109 189 0 6 9 19 21 31 27 27 18 34
-20 14 -29 -14 -31 -14 -28 2 4 30 18 45 37 40 9 -2 28 2 41 9 13 7 35 13 47
14 13 0 37 8 52 17 28 16 30 16 67 -10 38 -27 83 -36 83 -18 0 5 9 13 20 16
31 10 13 25 -20 18 -19 -3 -30 -1 -30 5 0 7 -14 19 -31 28 l-31 16 23 16 c26
18 101 40 140 41 15 1 32 -6 39 -14z m928 -20 c-3 -3 -9 2 -12 12 -6 14 -5 15
5 6 7 -7 10 -15 7 -18z m-864 -337 c-3 -5 -12 -4 -20 3 -19 16 -18 18 6 12 11
-3 17 -9 14 -15z m-529 -58 c3 -5 1 -10 -4 -10 -6 0 -11 5 -11 10 0 6 2 10 4
10 3 0 8 -4 11 -10z m2340 -655 c16 -13 27 -26 25 -28 -10 -9 -49 13 -60 32
-14 27 -2 26 35 -4z m-2077 -225 c-7 -10 -14 -17 -17 -15 -4 4 18 35 25 35 2
0 -1 -9 -8 -20z m-37 -53 c-10 -9 -11 -8 -5 6 3 10 9 15 12 12 3 -3 0 -11 -7
-18z m1914 13 c3 -5 1 -10 -4 -10 -6 0 -11 5 -11 10 0 6 2 10 4 10 3 0 8 -4
11 -10z m-1939 -224 c6 -13 8 -30 4 -36 -9 -14 -15 -6 -24 33 -8 33 5 35 20 3z
m3039 -86 c-6 -9 -9 -9 -16 1 -10 17 0 34 13 21 6 -6 7 -16 3 -22z m-3131
-125 l7 -70 -21 24 c-11 13 -20 34 -20 48 0 13 -5 33 -11 44 -8 15 -7 24 2 35
21 25 36 -4 43 -81z m3131 63 c0 -13 -4 -29 -9 -37 -6 -9 -4 -18 7 -26 19 -13
24 -95 7 -95 -13 0 -37 48 -45 93 -7 34 -5 37 16 37 23 1 23 1 6 14 -18 14
-18 15 0 25 10 6 18 11 18 11 1 0 1 -10 0 -22z m-45 -8 c0 -13 -7 -20 -19 -20
-22 0 -35 15 -26 30 12 19 45 11 45 -10z m-2725 -24 c19 -8 42 -21 49 -28 7
-8 43 -38 79 -67 37 -30 69 -62 72 -70 3 -9 18 -24 34 -34 27 -16 91 -100 91
-119 0 -15 -15 -8 -28 12 -7 11 -19 20 -27 20 -8 0 -15 7 -15 15 0 8 -8 15
-17 15 -10 0 -27 14 -38 30 -11 16 -24 30 -30 30 -5 0 -26 16 -45 35 -19 19
-40 35 -47 35 -8 0 -26 12 -40 26 -18 18 -32 24 -49 20 -23 -6 -54 15 -54 38
0 6 -13 20 -30 29 -16 10 -30 24 -30 31 0 16 67 6 125 -18z m2822 -142 c-3 -3
-12 -4 -19 -1 -8 3 -5 6 6 6 11 1 17 -2 13 -5z m-52 -63 c24 -14 37 -15 60 -8
17 6 33 15 37 21 6 8 8 8 8 0 0 -21 -52 -129 -66 -137 -18 -10 -29 -95 -33
-265 -1 -19 -5 -21 -25 -16 -45 11 -76 -25 -80 -95 -1 -16 -38 -17 -146 -8
-96 9 -92 6 -139 102 -45 91 -21 238 53 330 18 22 35 48 39 58 4 9 15 20 24
23 10 3 25 10 33 15 24 15 200 0 235 -20z m50 9 c3 -5 -1 -10 -10 -10 -9 0
-13 5 -10 10 3 6 8 10 10 10 2 0 7 -4 10 -10z m-2825 -10 c0 -5 -4 -10 -9 -10
-6 0 -13 5 -16 10 -3 6 1 10 9 10 9 0 16 -4 16 -10z m2370 -51 c0 -3 -12 -24
-26 -45 -15 -21 -35 -58 -45 -81 -10 -24 -25 -43 -33 -43 -43 0 -61 -114 -34
-215 14 -52 3 -69 -39 -62 -29 5 -29 4 2 -41 14 -20 25 -41 25 -46 0 -14 -88
83 -104 114 -25 48 -46 164 -43 241 3 69 7 80 37 117 18 23 34 42 34 42 1 0
19 7 41 15 40 14 185 18 185 4z m475 -275 c0 -81 -9 -113 -16 -56 -6 39 2 155
9 147 4 -3 7 -44 7 -91z m-295 -254 c0 -17 -15 -11 -28 11 -12 19 -11 19 8 9
11 -6 20 -15 20 -20z m40 -35 c7 -8 8 -15 2 -15 -5 0 -15 7 -22 15 -7 8 -8 15
-2 15 5 0 15 -7 22 -15z m654 -10 c-4 -8 -11 -15 -16 -15 -6 0 -5 6 2 15 7 8
14 15 16 15 2 0 1 -7 -2 -15z m-2712 -60 c2 -16 -1 -32 -7 -35 -6 -3 -11 14
-12 39 -2 48 13 45 19 -4z m2678 -54 c0 -10 -7 -24 -15 -31 -12 -10 -15 -10
-15 3 0 23 11 47 21 47 5 0 9 -8 9 -19z m-2634 -70 c-4 -5 -1 -11 5 -13 5 -2
7 -11 4 -21 -6 -15 -9 -14 -26 7 -24 31 -24 36 2 36 11 0 18 -4 15 -9z m70
-76 c15 -20 24 -41 20 -51 -8 -22 -26 -7 -26 22 0 14 -3 23 -7 21 -5 -3 -14 1
-21 9 -7 8 -9 14 -5 14 4 0 1 5 -7 10 -13 8 -13 10 2 10 9 0 29 -16 44 -35z
m-126 -84 c0 -21 -13 -41 -26 -41 -17 0 -18 22 -2 38 14 14 28 16 28 3z m145
-60 c-3 -5 -1 -12 5 -16 5 -3 10 -14 10 -23 -1 -15 -2 -15 -15 2 -8 11 -15 34
-15 50 1 26 2 28 11 13 5 -9 8 -21 4 -26z m58 -81 c3 -11 1 -18 -4 -14 -5 3
-9 12 -9 20 0 20 7 17 13 -6z m12 -60 c3 -5 1 -10 -4 -10 -6 0 -11 5 -11 10 0
6 2 10 4 10 3 0 8 -4 11 -10z m23 -82 c23 -138 24 -148 13 -148 -13 0 -18 25
-24 110 -3 36 -8 73 -12 83 -4 9 -3 17 3 17 5 0 15 -28 20 -62z m-147 -193
c17 -30 22 -54 20 -88 -1 -23 -21 -12 -21 12 0 10 -6 24 -14 30 -7 6 -16 35
-19 64 -3 28 -8 63 -11 77 -4 14 2 5 11 -20 10 -25 25 -58 34 -75z m97 -80 c3
-62 0 -100 -9 -122 -13 -30 -15 -31 -34 -17 -17 13 -18 17 -6 37 9 13 16 62
19 126 6 128 24 114 30 -24z m1980 -30 c-3 -3 -9 2 -12 12 -6 14 -5 15 5 6 7
-7 10 -15 7 -18z m-788 -299 c0 -3 -4 -8 -10 -11 -5 -3 -10 -1 -10 4 0 6 5 11
10 11 6 0 10 -2 10 -4z m135 -6 c6 0 -1 -7 -14 -14 -14 -8 -40 -12 -61 -9 -24
4 -40 1 -45 -8 -6 -9 -4 -11 8 -6 9 3 21 -1 29 -10 11 -14 10 -16 -10 -11 -12
4 -20 2 -16 -3 8 -13 -10 -11 -24 3 -9 9 -12 8 -12 -5 0 -9 -5 -17 -11 -17 -6
0 -8 7 -5 16 5 14 1 15 -29 10 -36 -7 -45 3 -21 23 10 8 15 9 18 1 2 -7 13 -6
33 3 66 31 81 35 115 32 19 -2 40 -4 45 -5z m-590 -320 c-3 -5 -13 -10 -21
-10 -8 0 -14 5 -14 10 0 6 9 10 21 10 11 0 17 -4 14 -10z m-265 -194 c0 -3 -4
-8 -10 -11 -5 -3 -10 -1 -10 4 0 6 5 11 10 11 6 0 10 -2 10 -4z m-130 -130 c0
-3 -4 -8 -10 -11 -5 -3 -10 -1 -10 4 0 6 5 11 10 11 6 0 10 -2 10 -4z m-620
-1430 c0 -3 -4 -8 -10 -11 -5 -3 -10 -1 -10 4 0 6 5 11 10 11 6 0 10 -2 10 -4z
m486 -622 c-3 -9 -6 -27 -6 -40 0 -13 -4 -24 -9 -24 -17 0 -23 40 -9 57 11 15
11 16 -4 10 -10 -3 -18 -2 -18 3 0 6 12 10 26 10 20 0 25 -4 20 -16z m98
-2204 c-7 -65 -10 -71 -29 -63 -16 6 -20 39 -6 47 5 3 12 36 16 73 8 64 9 66
17 33 4 -19 5 -60 2 -90z m-90 -61 c-3 -5 -10 -9 -15 -9 -6 0 -8 4 -4 9 3 5 1
12 -5 16 -6 4 -7 11 -4 17 5 7 12 5 20 -7 7 -10 11 -22 8 -26z"/>
<path d="M1930 17021 c0 -6 14 -31 32 -56 24 -34 29 -48 20 -57 -8 -8 -8 -17
-1 -31 6 -10 9 -28 6 -38 -3 -11 9 -49 29 -87 18 -37 34 -72 34 -78 0 -6 9
-28 19 -50 19 -38 19 -39 0 -42 -24 -4 -24 -23 -1 -51 21 -27 167 -91 205 -91
15 0 54 -11 87 -25 87 -37 193 -63 300 -75 52 -6 120 -18 150 -27 122 -36 216
-65 239 -74 21 -9 23 -8 13 4 -10 11 -9 17 1 26 8 6 17 8 20 5 3 -4 30 -12 59
-20 287 -72 310 -89 113 -80 -77 4 -165 9 -195 13 -48 5 -53 4 -43 -9 34 -40
-27 -17 -103 39 -17 13 -33 20 -36 17 -3 -3 -18 6 -33 20 -36 33 -88 50 -135
42 -21 -3 -59 -1 -86 4 -27 6 -67 13 -89 17 -22 3 -47 11 -55 18 -20 16 -90
35 -128 35 -29 0 -47 -13 -47 -35 0 -19 -69 -35 -125 -29 -141 13 -170 22
-170 52 0 9 -8 22 -18 29 -25 15 -40 97 -47 258 -3 71 -8 131 -11 134 -11 11
-24 -26 -24 -71 0 -80 -26 -69 -37 17 -2 21 -7 43 -9 47 -7 11 -54 -21 -54
-37 0 -7 -7 -16 -16 -19 -14 -5 -15 -19 -12 -84 3 -42 -1 -121 -9 -176 -8 -54
-12 -100 -10 -103 3 -2 -1 -28 -9 -56 -7 -29 -15 -85 -16 -125 -2 -40 -6 -72
-10 -72 -24 0 22 -322 56 -389 7 -14 11 -32 9 -38 -3 -7 5 -25 16 -39 11 -15
18 -30 15 -35 -3 -5 4 -21 15 -35 12 -15 21 -32 21 -38 0 -7 6 -18 12 -24 7
-7 13 -19 13 -26 0 -39 145 -186 213 -217 28 -13 52 -30 52 -36 0 -7 5 -13 11
-13 5 0 7 5 3 11 -5 8 0 10 17 6 13 -3 67 -11 119 -17 108 -12 191 -30 185
-40 -2 -4 23 -14 56 -24 124 -34 236 -116 294 -215 17 -28 37 -51 46 -51 8 0
26 -11 39 -25 13 -14 34 -25 46 -25 21 0 20 4 -24 83 -25 45 -50 84 -54 87 -9
7 -61 120 -57 124 53 34 116 33 165 -3 49 -35 66 -55 141 -161 67 -93 119
-140 191 -172 86 -39 306 -119 417 -153 127 -38 201 -66 265 -99 25 -13 79
-35 120 -49 41 -14 107 -38 145 -53 39 -15 97 -35 130 -45 321 -95 521 -188
635 -295 35 -33 47 -40 43 -25 -5 20 -40 55 -113 114 l-35 29 38 -7 c27 -4 37
-3 32 4 -4 8 2 8 20 1 20 -8 24 -7 19 3 -6 9 -5 9 8 0 8 -7 18 -10 21 -6 4 3
7 1 7 -5 0 -7 12 -12 28 -10 15 1 37 -2 50 -6 12 -4 22 -5 22 -1 0 8 -52 28
-74 27 -18 -1 -55 18 -89 47 -21 18 -49 23 -57 11 -3 -4 -22 -2 -43 5 -46 16
-49 4 -4 -14 30 -12 48 -41 25 -41 -4 0 -8 5 -8 11 0 6 -6 9 -12 6 -19 -6 -48
11 -48 28 0 9 -10 15 -24 15 -14 0 -28 5 -32 11 -5 9 1 10 19 5 21 -5 25 -3
21 9 -4 8 -15 15 -27 15 -11 0 -29 7 -39 17 -11 9 -18 11 -18 5 0 -24 -73 -6
-140 34 -19 11 -42 23 -50 27 -8 4 -26 14 -40 22 -29 17 -41 10 -15 -9 17 -12
16 -13 -13 -12 -19 1 -32 6 -32 14 0 10 -13 13 -42 11 -45 -3 -77 10 -181 68
-33 18 -66 33 -75 33 -10 1 -28 7 -42 15 l-25 14 28 1 c16 0 38 -5 50 -12 12
-7 33 -13 47 -14 14 -1 61 -11 105 -23 84 -23 111 -29 133 -30 7 -1 11 -4 9
-8 -3 -5 14 -9 37 -9 39 -1 117 -23 157 -45 10 -5 37 -11 59 -13 44 -4 90 -29
90 -51 0 -7 4 -17 10 -20 5 -3 7 0 4 8 -4 11 4 13 33 11 54 -3 55 -3 49 -13
-7 -10 52 -24 65 -15 6 3 16 0 24 -6 10 -8 15 -9 15 -2 0 6 7 9 15 6 8 -4 15
-16 15 -28 0 -17 2 -19 11 -6 8 11 12 12 16 3 2 -7 14 -13 24 -13 22 0 76 -26
96 -45 7 -7 18 -16 25 -18 10 -4 9 -8 -2 -16 -13 -9 -12 -11 5 -12 11 0 14 -3
7 -6 -7 -3 -19 0 -26 7 -14 11 -31 -1 -19 -14 13 -13 63 -6 63 9 0 17 9 19 29
6 7 -5 10 -14 7 -20 -4 -6 -12 -9 -17 -6 -5 4 -12 -2 -16 -12 -4 -10 -11 -21
-17 -25 -6 -4 -1 -8 12 -8 12 0 22 -6 22 -14 0 -8 7 -16 15 -20 8 -3 15 -3 15
0 0 3 -7 12 -15 20 -23 24 -18 41 14 46 17 2 28 1 25 -3 -6 -11 28 -27 44 -22
7 3 12 -5 12 -21 0 -14 -4 -26 -10 -26 -13 0 -13 -27 1 -32 5 -2 7 -11 3 -21
-3 -10 -12 -16 -18 -14 -14 5 -40 -23 -44 -47 -4 -23 26 -56 44 -49 8 3 14 0
14 -6 0 -6 8 -11 18 -11 16 1 16 1 0 14 -23 17 -23 26 2 26 12 0 20 7 21 18 0
10 3 12 6 4 2 -6 10 -10 16 -6 7 3 3 -2 -7 -10 -11 -9 -17 -19 -13 -22 9 -10
36 15 54 50 9 17 23 36 31 42 8 6 12 16 8 22 -12 20 -27 13 -38 -19 -10 -30
-20 -32 -24 -4 -3 23 143 135 176 135 26 0 77 44 62 54 -7 4 -12 1 -12 -10 0
-13 -3 -14 -15 -4 -21 18 -9 31 28 29 18 -1 37 -1 42 1 19 5 36 0 31 -9 -3 -5
14 -5 39 0 50 9 71 5 79 -17 3 -8 18 -14 33 -13 27 0 28 1 6 11 -13 6 -23 14
-23 18 0 8 70 1 95 -10 61 -28 166 -35 216 -15 9 3 45 -7 81 -23 53 -24 70
-38 97 -80 49 -78 44 -84 -72 -86 -89 -1 -97 1 -97 18 0 15 -3 16 -15 6 -8 -6
-19 -9 -25 -5 -6 3 -10 -3 -10 -15 0 -12 -10 -31 -22 -42 -21 -18 -21 -19 -3
-12 11 4 88 8 170 9 135 1 157 -1 214 -22 48 -17 67 -20 77 -12 8 6 21 8 30 5
13 -5 14 -3 6 6 -8 10 -4 13 18 13 16 0 32 -3 36 -7 4 -5 0 -8 -10 -8 -9 0
-14 -4 -11 -10 3 -5 -2 -10 -12 -11 -14 0 -12 -3 6 -10 14 -5 31 -7 38 -4 8 2
11 0 8 -5 -3 -6 4 -10 16 -10 l22 0 -21 18 c-15 13 -18 22 -11 35 6 9 16 17
24 17 8 0 18 8 24 17 12 23 20 15 24 -28 2 -18 9 -47 16 -64 7 -16 18 -64 24
-105 l10 -75 -40 -80 c-54 -107 -86 -210 -78 -256 5 -26 2 -39 -9 -49 -18 -14
-134 -49 -184 -55 -101 -11 -229 -125 -312 -279 -25 -45 -55 -95 -67 -110 -12
-15 -29 -47 -39 -72 -9 -24 -21 -44 -25 -44 -5 0 -9 -9 -9 -19 0 -49 -32 -71
-43 -30 -7 27 -27 15 -27 -15 0 -12 -3 -25 -6 -29 -9 -9 -131 119 -137 145 -3
13 -11 43 -17 67 -8 34 -7 63 5 133 17 97 69 236 91 245 8 3 21 20 29 38 9 17
64 79 122 136 127 124 157 178 154 273 -2 76 -46 173 -76 168 -10 -2 -29 2
-42 9 -19 10 -33 10 -69 1 -57 -15 -97 -15 -92 0 2 6 33 23 70 37 55 23 63 29
51 40 -12 10 -20 11 -39 2 -32 -14 -37 -14 -28 2 5 6 -7 -3 -25 -20 -34 -34
-53 -42 -48 -20 1 6 13 15 27 18 21 6 20 7 -10 7 -37 1 -92 -16 -57 -17 26 -1
20 -13 -25 -48 -30 -25 -50 -33 -80 -33 -33 0 -46 -7 -88 -49 -26 -26 -56 -51
-65 -54 -9 -4 -13 -12 -10 -18 4 -6 13 -8 21 -5 21 8 17 -12 -5 -24 -11 -5
-29 -27 -42 -47 -12 -21 -23 -39 -23 -39 -1 -1 -12 -5 -25 -9 l-25 -8 28 34
c18 21 24 35 17 37 -8 3 -6 11 6 26 18 21 18 21 -4 3 -12 -11 -27 -16 -34 -11
-8 4 -10 3 -5 -5 11 -17 -18 -41 -35 -30 -24 15 -39 10 -39 -14 0 -21 -5 -24
-42 -24 -42 -1 -57 -4 -88 -16 -14 -6 -99 -30 -110 -31 -3 -1 -16 -11 -29 -23
-21 -20 -22 -22 -5 -31 15 -9 16 -13 5 -26 -7 -9 -23 -16 -35 -16 -12 0 -28
-8 -37 -18 -8 -9 -30 -29 -49 -44 -19 -15 -29 -28 -22 -28 15 0 16 -27 1 -32
-9 -3 -9 -9 -1 -25 10 -17 8 -22 -13 -31 -15 -7 -25 -20 -25 -32 0 -24 -15
-27 -24 -4 -9 23 -7 36 3 30 8 -5 26 23 19 29 -13 11 -48 14 -54 4 -5 -9 -2
-10 12 -5 21 8 -74 -80 -155 -144 -28 -22 -51 -44 -51 -49 0 -5 -16 -19 -35
-31 -57 -35 -176 -203 -260 -365 -17 -33 -35 -67 -40 -75 -18 -27 -57 -134
-82 -225 -17 -60 -27 -127 -30 -201 -5 -103 -4 -113 15 -132 13 -13 19 -28 15
-41 -3 -12 -1 -21 6 -21 5 0 8 6 5 14 -3 7 2 20 10 28 18 18 20 141 2 132 -6
-3 -3 1 6 8 9 8 16 21 15 29 -1 7 3 16 8 19 6 3 11 -12 12 -35 0 -22 9 -60 18
-85 9 -25 16 -59 16 -77 -1 -24 4 -33 19 -38 25 -8 40 2 17 10 -13 6 -13 10
-1 33 8 15 14 35 14 44 0 9 5 18 11 20 8 3 6 10 -5 20 -20 21 -21 38 0 38 10
0 14 7 12 22 -2 11 3 23 10 25 6 3 12 -3 12 -14 0 -15 2 -16 10 -3 8 12 10 11
10 -7 0 -13 -4 -23 -10 -23 -5 0 -7 -14 -4 -32 2 -18 7 -67 9 -108 4 -55 2
-71 -6 -60 -8 11 -9 8 -4 -15 22 -90 -23 -407 -76 -546 -41 -106 -172 -360
-218 -423 -51 -68 -159 -177 -193 -195 -25 -13 -30 -12 -46 2 -23 21 -42 21
-68 2 -26 -20 -47 -19 -77 5 -30 24 -41 25 -33 5 6 -16 -5 -18 -41 -9 -34 9
-32 54 2 54 14 0 25 4 25 9 0 5 -12 9 -27 9 -15 0 -34 9 -44 21 -16 20 -16 25
-2 66 9 27 19 42 25 38 6 -3 8 -1 5 4 -4 6 -2 34 3 63 5 29 7 56 4 62 -7 11
-28 -17 -39 -52 -4 -14 -16 -34 -26 -45 -10 -11 -28 -43 -40 -70 -20 -46 -31
-61 -82 -117 -23 -25 -33 -17 -16 14 12 22 11 22 -22 -5 -19 -15 -45 -33 -59
-40 -14 -6 -33 -18 -42 -26 -9 -8 -24 -16 -32 -17 -8 -1 -44 -14 -79 -28 -87
-35 -112 -34 -129 4 -7 16 -17 30 -23 30 -5 0 -3 5 5 11 12 8 8 9 -15 6 -16
-2 -37 -7 -47 -11 -11 -5 -18 -1 -23 13 -3 12 -13 21 -22 21 -9 0 -13 -6 -9
-15 3 -8 0 -15 -6 -15 -21 0 -98 32 -98 41 0 4 33 6 73 4 l72 -5 -40 14 c-22
8 -51 15 -64 15 -34 1 -155 123 -138 140 8 8 7 11 -5 11 -18 0 -68 44 -68 60
0 6 -12 22 -27 36 -17 14 -21 22 -10 18 9 -3 17 -2 17 4 0 14 -100 23 -192 18
-43 -2 -78 -1 -78 3 0 10 -61 8 -78 -2 -7 -5 -9 -13 -6 -19 5 -7 -4 -9 -27 -4
-19 4 -42 7 -51 7 -10 0 -18 4 -18 10 0 11 -55 10 -90 -1 -14 -4 -20 -8 -14
-9 7 -1 15 -8 18 -17 4 -11 1 -14 -12 -10 -24 8 -159 -54 -219 -100 -65 -49
-123 -106 -123 -120 0 -6 -9 -19 -21 -30 -39 -35 -182 -266 -185 -299 -1 -15
-13 -47 -29 -77 -8 -15 -10 -30 -6 -32 9 -6 -16 -117 -38 -166 -12 -27 -15
-73 -16 -197 0 -124 -3 -163 -12 -163 -7 0 -12 5 -11 12 2 7 -6 13 -17 15 -11
1 -38 7 -60 12 -47 12 -125 14 -142 3 -7 -5 18 -13 60 -21 129 -22 200 -48
193 -67 -3 -8 -2 -13 2 -13 20 3 33 -2 27 -11 -3 -5 0 -10 9 -10 27 0 107
-105 155 -205 51 -107 85 -210 96 -290 5 -39 9 -46 17 -32 7 13 2 48 -17 122
-47 187 -121 339 -207 423 -54 54 -59 64 -68 119 -6 33 -9 73 -8 89 2 52 48
315 57 332 5 9 17 49 26 87 21 85 82 210 130 269 19 24 35 49 35 55 0 13 19
40 74 107 37 45 117 98 196 130 116 47 348 31 427 -28 45 -35 163 -167 163
-184 0 -4 8 -13 18 -20 16 -12 15 -13 -5 -15 -33 -2 -34 -2 -85 -35 -45 -28
-92 -94 -101 -140 -2 -10 -6 -26 -9 -34 -11 -28 -48 -205 -63 -300 -9 -52 -23
-126 -30 -165 -13 -62 -25 -149 -41 -295 -2 -25 -15 -92 -28 -150 -14 -58 -30
-132 -36 -165 -7 -33 -16 -65 -21 -70 -16 -21 -109 -299 -109 -327 0 -36 16
-68 34 -68 8 0 18 -18 24 -40 5 -23 6 -40 1 -40 -5 0 -9 -4 -9 -10 0 -5 5 -10
12 -10 6 0 38 -28 69 -62 l58 -63 -19 54 c-11 30 -30 65 -42 78 -23 25 -34 93
-14 93 6 0 5 4 -3 9 -16 11 -6 51 14 51 8 0 18 8 24 18 9 15 11 13 21 -15 14
-39 28 -41 59 -11 l24 21 -6 -39 c-12 -76 -13 -94 -5 -94 4 0 8 -7 8 -15 0 -8
-7 -15 -15 -15 -19 0 -19 -19 0 -26 24 -9 17 -23 -7 -17 -22 6 -21 5 4 -16 14
-11 31 -21 36 -21 9 0 26 -30 20 -35 -2 -2 -23 -8 -48 -14 -42 -10 -41 -10 23
-5 54 5 68 3 73 -9 3 -9 20 -23 37 -32 18 -8 39 -20 47 -25 8 -5 47 -23 85
-40 80 -37 128 -61 135 -69 3 -3 22 -19 42 -34 47 -35 125 -105 152 -136 12
-14 36 -41 54 -60 18 -20 45 -51 60 -69 15 -18 39 -48 54 -66 15 -17 30 -44
33 -58 4 -14 18 -36 31 -49 25 -24 69 -144 58 -161 -3 -5 3 -12 14 -15 47 -12
56 -92 27 -237 -18 -84 -48 -137 -114 -199 -69 -65 -124 -150 -144 -224 -46
-170 -26 -298 64 -418 51 -68 119 -175 119 -187 0 -6 16 -44 35 -84 19 -40 35
-83 35 -96 1 -77 40 -181 150 -400 66 -129 68 -137 75 -327 2 -73 9 -138 14
-145 14 -16 11 -76 -4 -76 -14 0 -126 -118 -176 -186 -39 -53 -129 -242 -129
-271 0 -10 -7 -43 -16 -73 -8 -30 -17 -66 -20 -80 -14 -71 -85 -235 -139 -319
-90 -140 -172 -250 -210 -281 -10 -8 -33 -37 -51 -65 -17 -27 -55 -76 -83
-108 -47 -54 -55 -70 -63 -122 -2 -12 -22 -30 -50 -45 -58 -30 -78 -70 -78
-151 0 -57 -1 -61 -32 -77 -17 -9 -41 -27 -52 -38 -12 -12 -43 -45 -71 -74
-27 -29 -68 -64 -90 -78 -46 -29 -95 -72 -95 -83 0 -11 77 -4 92 8 7 7 27 17
43 23 25 9 19 2 -28 -41 -32 -28 -55 -54 -52 -57 3 -3 18 6 33 20 67 61 162
107 162 78 0 -16 -59 -78 -97 -101 -34 -21 -35 -23 -16 -32 18 -8 43 0 106 31
5 2 -6 -19 -25 -47 -18 -28 -43 -54 -55 -57 -13 -3 -23 -10 -23 -15 0 -20 24
-7 74 41 29 28 58 50 64 50 14 0 16 -22 3 -35 -5 -6 -18 -37 -30 -70 -12 -33
-34 -71 -48 -84 -44 -41 -91 -126 -118 -212 -40 -127 -56 -168 -71 -180 -8 -6
-14 -16 -14 -22 0 -5 8 0 19 11 10 12 23 22 29 22 19 0 62 53 77 95 7 22 17
61 20 87 8 59 72 161 119 189 19 11 36 29 39 39 4 17 1 19 -19 14 -30 -8 -30
-1 0 29 12 13 25 30 28 38 3 8 9 10 14 6 4 -4 3 -17 -4 -27 -17 -28 -3 -25 29
6 l26 25 -5 -28 c-7 -41 12 -16 27 34 7 28 18 43 28 43 12 0 14 -7 10 -35 -3
-19 -2 -35 4 -35 5 0 9 -7 9 -16 0 -9 -5 -12 -12 -8 -8 5 -9 2 -5 -10 4 -10
10 -35 13 -57 6 -39 27 -52 37 -25 4 9 14 12 26 9 14 -4 21 -1 21 9 0 10 8 13
30 10 26 -4 30 -9 30 -34 0 -16 -5 -39 -11 -51 -12 -23 -121 -128 -127 -123
-3 3 26 39 63 79 29 32 11 93 -20 67 -7 -6 -16 -5 -24 3 -10 10 -11 6 -6 -15
6 -24 0 -34 -42 -75 -72 -70 -111 -125 -137 -190 -26 -67 -25 -78 14 -98 45
-23 67 -19 73 13 12 61 89 202 122 225 37 25 72 66 103 120 18 31 20 41 10 62
-6 14 -15 25 -20 25 -4 0 -8 16 -8 36 0 22 -6 41 -16 48 -12 9 -13 17 -5 39
13 34 31 26 31 -13 0 -16 5 -41 12 -57 l12 -28 3 26 c2 14 -3 46 -12 70 -12
31 -18 93 -22 209 -4 146 -3 173 15 237 12 40 18 73 15 73 -3 0 1 7 8 16 16
19 34 50 49 82 19 42 105 162 120 168 8 3 42 39 75 81 33 43 85 102 116 132
31 31 69 74 85 95 40 55 82 98 126 131 21 15 54 50 74 79 21 28 63 78 94 111
31 33 67 77 80 97 18 28 28 34 37 26 7 -6 13 -16 13 -22 0 -6 5 -28 11 -49 8
-30 14 -37 36 -37 23 0 25 3 19 32 -4 18 -16 51 -27 73 -25 47 -28 154 -5 167
10 5 12 23 10 63 -4 49 -2 55 15 55 10 0 24 7 31 15 18 21 23 19 38 -15 17
-38 28 -38 63 1 25 28 28 40 33 127 9 153 23 245 43 280 35 61 43 35 31 -103
-5 -62 -16 -118 -28 -147 -16 -38 -19 -57 -13 -95 5 -25 14 -48 20 -50 6 -2
30 15 53 38 32 33 43 40 50 29 5 -8 6 -19 2 -24 -16 -27 -28 -149 -20 -203 11
-73 47 -182 66 -205 11 -14 14 -34 9 -88 -8 -99 -48 -303 -63 -317 -6 -6 -29
-13 -50 -15 -47 -4 -98 -51 -90 -82 3 -11 1 -25 -3 -30 -5 -6 -4 -34 2 -62 9
-45 7 -61 -13 -125 -12 -41 -29 -83 -36 -94 -14 -22 -80 -197 -96 -255 -5 -19
-27 -91 -48 -160 -21 -69 -62 -204 -90 -300 -29 -96 -62 -206 -75 -245 -80
-238 -105 -349 -97 -427 2 -27 -1 -62 -7 -80 -9 -26 -8 -38 10 -75 24 -50 37
-123 21 -123 -6 0 -16 16 -22 35 -6 19 -19 41 -29 47 -10 7 -23 22 -29 33 -6
11 -12 15 -12 8 0 -24 22 -69 49 -98 16 -16 36 -43 44 -60 9 -16 17 -25 17
-20 1 6 4 19 7 30 16 64 14 80 -17 128 -34 49 -34 55 -11 142 6 22 11 63 11
90 0 47 6 77 29 158 6 17 21 73 34 122 13 50 34 115 47 145 12 30 31 84 42
120 11 36 31 94 44 130 13 36 24 74 24 85 0 10 11 55 24 99 14 45 39 131 57
191 18 61 37 114 41 120 4 5 8 18 8 28 0 10 6 31 14 45 23 45 74 155 91 197
10 24 17 78 19 132 3 98 13 123 50 123 11 0 26 4 32 8 22 15 57 86 60 121 1
20 9 65 17 101 8 36 15 108 16 160 2 86 0 100 -24 142 -46 83 -57 192 -31 331
4 20 1 27 -9 27 -12 0 -15 11 -11 58 4 59 22 112 38 112 6 0 7 -29 3 -67 -6
-67 -6 -68 11 -39 12 21 15 43 11 80 -7 67 -9 76 -26 97 -16 20 -20 35 -22 89
-2 28 7 48 39 90 53 70 72 127 71 215 -2 114 7 145 58 188 40 33 50 37 103 37
35 0 80 8 114 21 72 28 67 33 -8 10 -40 -12 -70 -16 -97 -11 -73 14 -207 -51
-233 -113 -8 -18 -28 -77 -46 -132 -37 -112 -112 -271 -161 -340 -32 -45 -32
-46 -38 -193 -6 -145 -6 -147 -30 -150 -17 -3 -21 0 -15 9 14 23 13 58 -1 66
-12 7 -11 16 2 56 14 42 14 58 3 116 l-13 68 32 43 c17 24 31 48 31 54 0 5 18
44 39 86 39 75 59 135 81 240 15 72 28 106 59 158 21 35 41 50 109 83 82 40
83 40 140 28 103 -22 169 -17 242 19 99 48 189 136 323 313 43 56 137 247 137
278 0 32 23 119 39 149 15 28 41 174 33 186 -3 5 -9 23 -13 40 -6 27 -7 25 -8
-19 -2 -68 -34 -215 -65 -298 -37 -97 -65 -148 -140 -261 -36 -54 -66 -102
-66 -105 0 -4 -13 -20 -30 -36 -20 -19 -30 -24 -30 -14 -1 10 -3 9 -11 -4 -5
-9 -7 -22 -4 -27 3 -6 2 -10 -4 -10 -5 0 -13 -10 -17 -22 -14 -45 -116 -132
-186 -159 -62 -25 -70 -26 -121 -14 -29 7 -65 20 -80 29 -28 19 -45 14 -123
-39 -20 -14 -45 -25 -55 -25 -28 0 -153 -128 -176 -180 -11 -25 -26 -74 -32
-110 -7 -36 -25 -87 -40 -115 -84 -152 -107 -185 -125 -185 -7 0 -21 -9 -31
-20 -18 -20 -18 -20 -30 7 -20 48 -34 96 -46 166 -13 78 -3 117 31 117 23 0
23 -1 9 55 -8 33 -17 45 -35 49 -13 4 -24 12 -24 19 0 8 -4 7 -10 -3 -9 -13
-11 -13 -20 0 -7 11 -5 16 10 18 29 5 24 18 -17 47 -21 14 -32 25 -25 25 6 0
12 9 12 19 0 25 -51 81 -57 64 -3 -7 -14 -13 -25 -13 -15 0 -19 5 -15 20 3 11
1 23 -5 26 -6 4 -6 9 2 14 8 5 22 0 34 -12 17 -16 22 -17 24 -4 4 20 -27 66
-44 66 -8 0 -14 5 -14 11 0 6 9 9 20 6 23 -6 26 6 6 26 -8 8 -18 32 -22 53 -4
21 -15 56 -25 76 -11 21 -19 49 -19 63 0 15 -4 24 -10 20 -6 -3 -10 -2 -10 3
0 5 10 13 23 17 22 8 22 8 -3 12 -27 5 -52 23 -32 23 7 0 12 8 13 18 0 9 3 12
5 5 8 -19 44 18 44 44 0 13 -6 23 -12 24 -7 0 -4 4 7 9 13 6 15 9 5 9 -13 1
-13 2 0 11 8 5 10 10 4 10 -7 0 -15 7 -18 16 -5 14 -4 15 9 4 21 -17 20 8 -2
35 -11 14 -14 15 -10 3 7 -19 -26 -31 -42 -15 -8 8 -11 8 -11 -1 0 -7 -5 -12
-10 -12 -14 0 -7 79 9 109 7 12 11 32 8 42 -3 10 -2 21 3 24 4 3 10 -9 12 -26
3 -16 1 -32 -4 -35 -4 -3 -8 -17 -8 -33 0 -24 3 -27 38 -26 l37 0 -1 68 c-1
37 3 67 8 67 6 0 8 6 5 13 -6 17 17 49 33 45 8 -2 18 14 24 40 6 23 16 46 21
50 16 11 36 62 25 62 -6 0 -10 5 -10 10 0 6 18 10 39 10 32 0 48 -8 89 -45 54
-48 65 -54 55 -29 -5 14 -3 14 16 3 11 -8 21 -19 21 -26 0 -7 5 -13 10 -13 6
0 10 -7 10 -15 0 -8 4 -15 9 -15 15 0 95 -113 116 -165 12 -27 38 -79 59 -115
55 -93 69 -153 71 -310 1 -90 6 -143 15 -160 l13 -24 10 24 c5 14 11 36 13 49
2 13 8 27 15 31 6 5 7 10 2 13 -13 8 -4 66 14 94 8 12 12 27 8 32 -3 6 3 19
14 30 11 11 23 33 26 48 6 27 31 88 61 144 7 14 11 28 9 31 -3 2 14 24 36 49
72 77 78 85 84 112 4 15 12 30 18 34 6 4 7 1 2 -8 -7 -11 -6 -12 6 -3 64 47
109 88 109 99 0 7 7 18 15 25 8 7 15 22 15 33 0 19 -4 17 -37 -14 -21 -19 -54
-43 -73 -53 -19 -11 -51 -33 -71 -50 -20 -17 -44 -38 -55 -46 -10 -9 -31 -31
-47 -49 -20 -25 -31 -30 -40 -23 -9 8 -16 6 -25 -9 -10 -16 -10 -19 4 -19 20
0 13 -24 -8 -28 -19 -4 -31 45 -13 56 7 4 11 26 11 52 -1 34 -6 47 -19 52 -13
5 -16 14 -12 27 3 11 2 22 -3 25 -6 3 -13 -4 -16 -17 -6 -22 -7 -22 -29 8 -12
16 -22 34 -22 40 0 5 -5 11 -10 13 -6 2 -20 13 -33 25 -30 28 -44 9 -29 -39
17 -55 -4 -65 -53 -25 -22 18 -45 29 -51 26 -6 -4 -19 1 -29 10 -10 9 -24 14
-30 10 -12 -8 -65 3 -57 11 3 3 -10 19 -29 36 -19 16 -31 35 -27 41 3 6 1 7
-5 3 -6 -4 -24 -1 -38 7 -27 14 -27 14 -8 34 27 28 27 39 0 91 -13 26 -35 68
-48 95 l-23 47 35 66 c68 128 120 159 120 72 0 -24 -5 -50 -10 -58 -7 -11 -4
-16 12 -20 44 -11 36 -78 -16 -133 -12 -13 -15 -22 -8 -29 13 -13 32 -2 32 17
0 8 11 17 24 21 14 3 27 12 30 19 3 8 18 21 34 29 l30 15 -8 -33 c-4 -19 -11
-40 -16 -47 -6 -11 -4 -11 10 0 16 14 73 119 82 151 20 80 25 112 25 178 1 43
-1 87 -5 100 -16 60 -24 102 -31 177 -3 33 -10 87 -14 120 -9 63 -5 159 8 185
4 8 5 26 1 40 l-6 25 -13 -23 c-7 -13 -15 -42 -19 -65 -4 -23 -12 -41 -17 -39
-30 8 15 128 112 302 11 19 28 37 39 39 18 3 18 2 -2 -20 -24 -28 -78 -139
-71 -146 5 -5 10 2 62 87 15 25 24 36 21 25 -6 -21 35 20 81 80 26 33 85 46
81 17 -3 -17 4 -19 35 -7 13 6 17 1 19 -21 3 -47 7 -85 17 -159 5 -38 8 -131
6 -205 -3 -134 -3 -134 11 -80 11 42 14 94 10 222 -4 106 -2 169 4 173 6 3 10
14 10 24 0 30 23 43 48 26 13 -10 23 -12 27 -5 8 14 71 13 98 -2 12 -6 45 -13
72 -14 l50 -3 -65 19 c-88 27 -138 65 -182 141 l-38 64 5 97 c6 100 2 110 -37
113 -11 1 -18 -6 -18 -19 0 -84 -2 -96 -10 -91 -6 4 -7 -3 -1 -17 13 -36 -21
-107 -44 -88 -8 7 -20 1 -39 -19 -14 -15 -70 -50 -123 -76 -94 -48 -100 -49
-178 -48 -70 2 -82 5 -99 25 -10 13 -24 22 -31 20 -19 -4 -100 89 -124 143
-28 62 -28 198 -1 350 19 108 65 250 92 282 7 9 18 27 23 39 15 35 171 189
234 231 61 41 51 31 201 178 103 101 118 108 94 50 -8 -20 -8 -20 20 -2 28 19
44 17 31 -3 -4 -7 -9 -33 -11 -58 -2 -26 -5 -56 -6 -67 -5 -36 13 -309 22
-346 14 -50 21 -191 9 -184 -5 4 -9 1 -9 -4 0 -6 5 -11 10 -11 6 0 10 -4 10
-10 0 -5 -7 -7 -15 -4 -10 4 -15 0 -15 -15 0 -12 5 -21 10 -21 6 0 4 -12 -4
-29 -15 -28 -15 -29 5 -24 47 13 56 74 35 243 -3 25 -7 57 -7 72 -1 15 -5 26
-8 24 -3 -2 -7 10 -7 27 -1 18 -3 48 -4 67 -1 19 0 58 4 85 3 28 7 106 10 175
5 125 19 217 39 255 10 19 10 19 17 0 5 -16 9 -11 15 20 5 22 7 44 6 49 -1 4
4 15 11 24 11 13 11 15 -2 8 -12 -6 -11 -4 1 6 9 7 14 19 12 26 -3 6 1 12 7
12 7 0 10 6 7 13 -6 16 21 77 42 93 8 6 11 16 7 22 -4 7 18 54 49 105 37 62
53 100 49 111 -5 13 -2 17 12 14 15 -2 19 3 20 24 1 15 7 34 14 43 7 8 10 15
6 15 -6 0 55 120 89 178 6 9 25 44 44 77 54 95 142 227 177 265 101 110 193
307 195 420 1 49 2 52 10 25 10 -33 -6 -343 -20 -391 -16 -54 -71 -197 -86
-223 -17 -30 -67 -151 -95 -229 -11 -29 -24 -88 -30 -132 -10 -71 -9 -84 10
-137 75 -209 88 -470 30 -598 -11 -24 -20 -48 -20 -52 0 -5 -26 -38 -57 -74
-32 -35 -71 -80 -87 -99 l-28 -35 22 38 c12 20 18 37 13 37 -11 0 -77 -104
-103 -164 -25 -55 -63 -186 -56 -193 7 -7 101 134 112 169 3 10 12 18 20 18 8
0 17 7 20 15 4 8 12 15 20 15 8 0 14 8 14 18 1 9 9 -4 19 -30 44 -112 53 -368
20 -547 -10 -53 -18 -103 -18 -111 -1 -31 18 15 36 91 23 95 27 486 5 512 -7
8 -12 21 -11 29 3 15 -7 50 -27 95 -13 29 -13 36 0 61 8 16 23 35 32 43 36 30
96 136 120 215 22 75 24 93 18 191 -3 59 -10 116 -15 125 -5 9 -5 19 -1 22 5
3 14 -5 21 -17 7 -12 36 -38 64 -58 37 -25 51 -41 50 -56 -1 -11 7 -29 19 -39
18 -16 20 -16 15 -2 -8 24 3 29 26 13 15 -10 25 -11 39 -4 11 6 27 8 35 5 9
-4 23 1 32 11 16 16 15 19 -11 45 -26 25 -36 48 -22 48 9 0 30 -24 37 -43 4
-10 15 -17 24 -16 26 4 60 -10 67 -26 3 -8 -9 -22 -32 -35 -20 -12 -42 -31
-50 -41 -16 -23 -40 -24 -66 -4 -11 8 -27 15 -35 15 -12 0 -11 -4 5 -21 32
-31 79 -28 117 8 40 38 68 53 101 53 14 0 26 4 26 10 0 15 59 0 120 -31 51
-26 82 -33 136 -30 11 1 62 26 113 56 104 61 110 62 260 28 114 -26 185 -85
231 -193 37 -85 53 -110 76 -116 35 -9 42 3 10 16 -15 5 -24 14 -21 20 3 5 -1
10 -10 10 -11 0 -15 5 -11 15 3 8 1 15 -5 15 -6 0 -8 9 -4 20 4 12 -7 46 -29
90 -34 69 -39 116 -15 131 13 8 0 39 -16 39 -8 0 -17 -5 -21 -11 -4 -8 -13 -1
-23 17 l-15 29 -6 -31 -5 -31 -60 14 c-33 7 -87 16 -120 19 -33 3 -67 8 -75
11 -24 10 -38 4 -108 -44 -119 -82 -176 -96 -222 -58 -8 7 -29 16 -47 20 -19
4 -35 14 -38 26 -4 10 -10 19 -15 19 -5 0 -17 15 -26 32 -15 28 -15 41 -5 91
17 80 44 140 96 208 43 56 62 106 32 81 -17 -14 -33 -3 -55 39 -10 19 -35 66
-56 104 -36 68 -71 187 -61 212 2 7 -1 15 -7 19 -6 4 -8 25 -4 54 12 87 23
107 84 142 51 29 121 82 196 148 39 34 97 114 134 183 38 70 53 139 91 394 15
99 16 143 9 240 -5 65 -13 130 -18 145 -5 17 -4 39 5 65 17 47 19 73 4 73 -11
0 -11 9 7 220 11 123 160 350 283 428 117 75 256 109 195 47 -24 -24 -11 -28
30 -9 34 17 35 19 19 36 -18 20 -2 25 19 5 9 -9 33 -12 73 -10 l60 4 28 -44
c29 -46 53 -69 100 -100 31 -20 34 -15 9 21 -9 15 -16 41 -15 57 2 36 -15 85
-31 85 -6 0 -4 4 4 10 12 7 12 12 0 34 -13 25 -50 36 -50 16 0 -20 30 -69 47
-79 14 -8 15 -12 4 -25 -9 -11 -10 -16 -2 -16 6 0 11 -9 11 -20 0 -11 -4 -20
-10 -20 -5 0 -10 6 -10 13 0 9 -2 9 -8 -1 -6 -9 -12 -6 -20 13 -6 14 -17 25
-23 25 -8 0 -8 4 1 15 15 18 35 20 24 3 -5 -7 -3 -8 6 -3 10 6 5 15 -18 36
-34 31 -39 44 -19 52 9 4 8 8 -3 16 -18 13 -10 21 26 25 15 2 30 9 32 16 3 9
-1 11 -12 7 -9 -4 -16 -1 -16 5 0 7 -5 6 -15 -2 -13 -11 -14 -10 -9 4 6 15 17
20 37 17 4 0 7 4 7 10 0 7 7 17 17 24 11 8 14 18 8 31 -4 10 -7 23 -6 28 1 5
-4 13 -10 17 -32 19 65 149 110 149 10 0 21 6 24 14 7 18 85 30 102 16 10 -8
17 -5 29 12 24 34 20 38 -37 38 -52 0 -79 12 -119 52 -10 10 -29 18 -42 18
-13 0 -26 7 -30 15 -3 8 -12 15 -21 15 -8 0 -15 9 -15 19 0 18 -21 23 -36 8
-14 -14 -20 -6 -17 21 3 18 -3 35 -17 50 -18 19 -20 28 -12 50 6 15 13 48 16
75 6 48 23 82 63 127 23 25 31 70 13 70 -5 0 -10 10 -10 23 0 15 -11 29 -32
42 -38 21 -51 36 -73 83 -9 18 -23 36 -30 39 -36 13 -206 -46 -236 -83 -13
-16 -65 -19 -74 -4 -7 11 -33 9 -54 -4 -7 -5 -35 -4 -65 2 -117 26 -194 41
-243 47 -29 4 -55 11 -59 16 -8 14 -93 11 -159 -6 -33 -9 -94 -37 -135 -63
-41 -25 -115 -66 -165 -90 -77 -38 -96 -43 -130 -37 -22 3 -56 8 -75 9 -19 2
-47 8 -61 14 -15 6 -30 8 -33 5 -3 -4 -6 -1 -6 5 0 13 -86 72 -106 72 -8 0
-25 5 -36 11 -12 6 -53 18 -92 26 -39 8 -75 18 -81 22 -16 12 -94 37 -280 90
-38 11 -127 31 -196 46 -70 14 -164 36 -210 50 -46 14 -91 25 -100 25 -25 0
-195 58 -237 80 -20 11 -44 20 -53 20 -45 0 -292 130 -351 184 -12 11 -75 61
-142 112 -67 51 -141 109 -166 128 -101 79 -155 116 -172 116 -10 0 -35 -6
-55 -14 -57 -22 -142 -30 -308 -29 -113 1 -161 5 -195 18 -58 21 -184 45 -236
45 -55 0 -98 16 -166 62 -61 41 -198 200 -198 229 0 16 -20 67 -39 99 -15 26
-35 75 -33 83 1 4 -4 22 -11 40 -7 17 -14 50 -16 72 -1 22 -5 42 -9 45 -4 3
-7 25 -8 50 -1 24 -6 46 -13 48 -9 3 -8 7 2 16 12 9 13 24 7 71 -10 82 -7 108
41 320 22 100 28 106 50 53 26 -65 142 -167 222 -197 49 -19 139 -12 264 20
l121 30 107 -31 c59 -17 115 -35 124 -40 111 -57 421 -190 443 -190 4 0 54
-22 110 -49 68 -33 105 -46 109 -39 5 7 16 1 32 -17 l24 -29 -5 32 c-3 27 -1
31 12 26 21 -8 20 5 -1 22 -13 9 -14 13 -4 14 8 0 11 6 7 16 -4 10 3 26 20 42
24 25 25 27 7 40 -10 7 -28 10 -40 7 -12 -3 -25 -1 -28 5 -3 6 -17 7 -30 4
-13 -3 -32 -1 -42 5 -14 8 -8 10 32 11 68 0 41 17 -45 26 -84 10 -50 22 65 23
83 1 123 -10 88 -23 -17 -7 -17 -8 0 -18 30 -16 84 -1 107 31 11 16 20 34 20
39 0 14 27 23 48 15 22 -9 38 -29 57 -71 15 -34 15 -34 66 -27 28 4 63 13 77
21 15 8 34 14 42 14 8 0 24 7 34 15 27 21 53 20 36 0 -24 -29 9 -16 63 24 91
68 86 67 174 15 94 -57 127 -84 114 -97 -10 -10 -60 14 -97 46 -18 15 -31 17
-68 12 -25 -4 -53 -13 -63 -21 -16 -12 -14 -13 23 -14 31 0 46 -6 67 -28 15
-15 27 -31 27 -35 0 -12 -23 -8 -39 7 -11 10 -21 12 -31 6 -18 -11 64 -50 158
-74 75 -19 72 -19 72 -6 0 6 -10 10 -22 10 -19 0 -133 38 -118 40 14 1 141
-29 184 -44 32 -11 60 -14 80 -10 56 14 65 10 99 -41 28 -43 39 -52 82 -62 51
-13 124 -3 126 17 5 64 1 80 -28 104 -17 14 -34 26 -37 26 -4 0 -20 10 -36 22
-24 18 -46 22 -126 25 -110 4 -166 14 -171 30 -6 16 42 25 140 24 109 -1 154
15 159 56 4 33 -12 50 -73 80 l-45 22 -99 -20 c-105 -22 -137 -19 -171 12 -12
11 -50 30 -85 42 -68 24 -75 23 -134 -19 -17 -12 -41 -25 -55 -29 -14 -4 -44
-18 -68 -32 -55 -31 -163 -41 -265 -23 -56 9 -79 10 -95 1 -25 -13 -157 1
-252 26 -30 9 -92 18 -137 21 -51 3 -81 9 -80 16 1 6 -29 16 -68 23 -38 7
-104 24 -145 38 -91 30 -234 65 -265 65 -32 0 -146 55 -240 116 -76 49 -165
131 -165 151 0 6 -23 31 -51 58 -36 34 -63 73 -90 131 -35 75 -46 88 -99 124
-33 22 -60 36 -60 31z m2296 -761 c105 -38 189 -51 196 -30 2 5 17 12 33 16
27 5 31 2 42 -25 13 -35 54 -55 93 -47 14 2 33 6 42 8 9 2 17 -1 17 -7 1 -6
-45 -10 -118 -10 -66 0 -117 3 -115 6 6 10 -42 20 -60 13 -9 -3 -22 -1 -30 5
-7 6 -15 9 -18 6 -3 -3 -11 1 -18 10 -7 8 -19 15 -27 15 -7 0 -23 8 -34 19
-11 10 -43 22 -70 25 -40 5 -59 2 -97 -16 -68 -32 -69 -32 -52 -15 21 23 83
65 96 66 5 1 59 -17 120 -39z m-2133 13 c-7 -2 -19 -2 -25 0 -7 3 -2 5 12 5
14 0 19 -2 13 -5z m160 -20 c-7 -2 -19 -2 -25 0 -7 3 -2 5 12 5 14 0 19 -2 13
-5z m1014 -139 c-3 -3 -12 -4 -19 -1 -8 3 -5 6 6 6 11 1 17 -2 13 -5z m1323
-74 c0 -9 -23 -15 -45 -10 -5 1 -27 3 -48 4 -67 5 -52 16 21 16 41 0 72 -4 72
-10z m125 -50 c3 -6 -1 -7 -9 -4 -18 7 -21 14 -7 14 6 0 13 -4 16 -10z m-69
-13 c27 -15 84 -64 84 -71 0 -3 -18 -6 -40 -6 -30 0 -42 5 -46 18 -3 9 -11 29
-19 45 -15 30 -11 33 21 14z m-609 -1379 c22 -9 24 -12 10 -15 -23 -6 -87 16
-87 29 0 11 30 6 77 -14z m548 -239 c15 -15 -13 -10 -45 6 -17 9 -30 17 -30
20 0 6 63 -16 75 -26z m1305 -5 c0 -8 -5 -12 -10 -9 -6 4 -8 11 -5 16 9 14 15
11 15 -7z m70 -4 c0 -5 -4 -10 -10 -10 -5 0 -10 5 -10 10 0 6 5 10 10 10 6 0
10 -4 10 -10z m-1301 -16 c10 -9 -35 -3 -49 6 -11 8 -7 9 15 4 17 -4 32 -8 34
-10z m1191 -20 c0 -2 -7 -4 -15 -4 -8 0 -15 4 -15 10 0 5 7 7 15 4 8 -4 15 -8
15 -10z m479 -10 c2 -2 2 -6 0 -8 -7 -7 -89 15 -89 24 0 8 80 -6 89 -16z
m-1569 -6 c10 -6 7 -7 -10 -2 -14 3 -32 11 -40 16 -10 6 -7 7 10 2 14 -3 32
-11 40 -16z m1043 2 c-4 -4 -24 -10 -43 -14 l-35 -6 29 19 c26 18 68 18 49 1z
m887 -29 c5 -11 10 -26 9 -33 0 -10 -2 -10 -6 0 -2 6 -10 12 -18 12 -16 0 -37
25 -28 33 12 13 32 7 43 -12z m-963 -15 c0 -8 -8 -11 -20 -8 -14 4 -16 7 -5
13 19 12 25 11 25 -5z m-77 -77 c0 -5 -7 -9 -15 -9 -8 0 -15 7 -15 15 0 9 6
12 15 9 8 -4 15 -10 15 -15z m554 -191 c-3 -4 -9 -8 -15 -8 -5 0 -9 4 -9 8 0
5 7 9 15 9 8 0 12 -4 9 -9z m-324 -178 c-6 -11 -19 -20 -30 -20 -10 0 -42 -26
-71 -59 -31 -35 -57 -57 -65 -54 -8 3 -14 0 -14 -7 0 -6 5 -8 10 -5 12 7 12 3
4 -19 -3 -9 -11 -13 -17 -9 -5 3 -7 1 -4 -4 4 -6 0 -24 -8 -41 -24 -46 -37
-137 -32 -215 5 -70 55 -273 65 -262 3 2 4 34 4 70 -1 40 3 65 10 65 6 0 3 11
-6 25 -16 25 -14 45 5 45 5 0 9 -7 9 -15 0 -8 5 -15 10 -15 14 0 12 37 -2 43
-8 3 -6 6 5 6 11 1 17 9 17 26 0 14 5 25 10 25 6 0 10 16 10 36 0 35 13 56 39
62 11 2 12 -6 7 -35 -19 -102 -19 -116 -5 -111 8 2 15 19 17 36 4 35 11 39 31
20 11 -11 14 -10 18 0 3 6 9 10 14 6 5 -3 9 2 9 10 0 9 -5 16 -11 16 -8 0 -10
13 -6 38 22 130 49 206 40 112 -2 -30 -9 -60 -14 -66 -12 -14 5 -29 21 -19 6
3 20 3 31 0 16 -6 20 -13 16 -33 -16 -79 -40 -137 -71 -174 -51 -59 -103 -168
-116 -240 -6 -35 -20 -88 -30 -118 -37 -107 -52 -190 -45 -259 9 -80 37 -151
65 -158 30 -8 25 -24 -27 -75 -70 -67 -220 -148 -276 -148 -21 0 -21 0 -1 16
18 15 18 15 -6 9 -14 -3 -55 -9 -92 -12 -62 -5 -72 -3 -108 21 -22 14 -44 26
-48 26 -5 0 -26 14 -47 30 -21 17 -43 30 -50 30 -25 0 -59 50 -58 85 1 19 -3
35 -9 35 -5 0 -6 5 -3 11 4 6 -1 16 -11 23 -16 12 -17 28 -11 191 7 180 22
266 57 330 62 112 83 145 98 157 15 12 16 11 4 -4 -7 -9 -9 -19 -4 -22 5 -3
29 17 53 45 23 27 48 48 55 45 7 -3 20 5 31 16 13 15 15 22 6 25 -7 3 -13 9
-13 15 0 7 5 6 14 -1 10 -8 21 -9 42 -1 15 6 34 8 41 5 17 -6 13 -22 -30 -120
-16 -38 -32 -84 -34 -101 l-3 -31 39 36 c24 22 46 56 57 89 10 28 22 52 26 52
5 0 24 33 44 73 36 74 39 69 18 -33 -12 -60 11 -21 39 67 15 45 27 89 27 96 0
8 16 54 36 103 28 70 46 99 85 137 28 26 47 52 44 57 -3 5 4 14 17 21 15 8 23
8 26 1 2 -7 12 -5 30 4 35 18 35 18 22 -6z m7 -222 c-3 -7 -5 -2 -5 12 0 14 2
19 5 13 2 -7 2 -19 0 -25z m-447 -19 c0 -5 -7 -9 -15 -9 -15 0 -20 12 -9 23 8
8 24 -1 24 -14z m95 11 c-3 -5 -12 -10 -18 -10 -7 0 -6 4 3 10 19 12 23 12 15
0z m-40 -19 c-3 -6 -14 -11 -23 -11 -13 0 -13 2 4 14 21 15 30 14 19 -3z
m-109 -6 c-3 -8 0 -15 6 -15 6 0 -2 -13 -18 -30 -16 -16 -37 -30 -46 -30 -9 0
-23 -9 -30 -19 -8 -11 -26 -25 -40 -31 -25 -12 -51 -50 -52 -80 -1 -8 -11 -16
-23 -18 -12 -2 -24 -13 -27 -27 -3 -13 -15 -27 -26 -30 -11 -3 -20 -11 -20
-17 0 -6 6 -6 15 2 12 10 15 10 15 -4 0 -10 -8 -16 -21 -16 -14 0 -19 -5 -16
-13 3 -8 1 -20 -4 -28 -7 -11 -9 -10 -9 4 0 17 -1 17 -16 3 -15 -16 -11 -41 6
-31 4 3 6 -4 3 -15 -7 -25 -33 -26 -33 -2 0 10 -3 22 -7 26 -11 11 -12 37 -1
30 13 -8 50 27 44 43 -3 7 -2 15 3 17 4 3 6 22 5 43 -1 21 0 32 3 26 8 -22 36
-15 30 7 -3 11 -1 20 5 20 6 0 24 12 41 26 24 20 32 22 39 12 7 -9 8 -6 5 10
-8 35 2 52 29 52 13 0 24 5 24 11 0 6 9 8 20 4 17 -5 20 -2 20 21 0 21 3 25
11 17 6 -6 18 -9 25 -6 21 8 17 33 -6 33 -11 0 -20 5 -20 10 0 6 16 10 36 10
28 0 35 -3 30 -15z m174 -10 c-7 -9 -15 -13 -17 -11 -7 7 7 26 19 26 6 0 6 -6
-2 -15z m-260 -24 c0 -5 -7 -11 -15 -15 -15 -5 -20 5 -8 17 9 10 23 9 23 -2z
m-20 -105 c0 -3 -4 -8 -10 -11 -5 -3 -10 -1 -10 4 0 6 5 11 10 11 6 0 10 -2
10 -4z m110 -18 c0 -7 -5 -20 -10 -28 -8 -12 -10 -9 -10 13 0 15 5 27 10 27 6
0 10 -6 10 -12z m-370 -223 c0 -8 -7 -15 -15 -15 -8 0 -15 -8 -15 -19 0 -27
-26 -46 -34 -25 -4 9 -9 14 -13 11 -3 -4 2 -18 11 -31 14 -22 14 -26 1 -33
-13 -8 -13 -12 -2 -27 12 -16 16 -15 55 25 30 31 40 37 36 22 -6 -23 -84 -91
-84 -73 0 23 -19 3 -74 -79 -48 -70 -158 -262 -200 -348 -19 -39 -28 -25 -22
31 5 49 3 54 -19 64 -14 7 -25 15 -25 20 0 18 13 20 36 5 26 -17 45 -10 26 9
-6 6 -8 16 -3 22 4 6 11 24 15 40 6 23 4 27 -8 23 -8 -3 -16 2 -19 13 -4 18
-3 18 28 2 18 -10 30 -23 28 -29 -8 -21 5 -15 17 8 9 17 8 23 -6 33 -16 12
-16 14 1 40 13 19 21 24 28 17 6 -6 16 -11 23 -11 14 0 56 68 49 80 -3 4 2 10
10 14 11 4 13 14 8 37 -5 27 -4 31 10 26 24 -9 32 11 13 32 -9 10 -16 21 -16
24 0 9 27 9 33 0 2 -5 2 -2 1 4 -2 7 6 17 16 23 11 6 20 18 20 26 0 9 14 21
30 27 17 6 30 15 30 19 0 4 7 8 15 8 8 0 15 -7 15 -15z m-4 -81 c-18 -17 -26
-18 -26 -1 0 7 9 13 20 14 18 2 18 0 6 -13z m-226 -124 c0 -5 -5 -10 -11 -10
-5 0 -7 5 -4 10 3 6 8 10 11 10 2 0 4 -4 4 -10z m-42 -35 c-12 -26 -28 -29
-36 -7 -3 9 18 24 45 31 2 1 -3 -10 -9 -24z m1342 -260 c0 -8 -4 -15 -10 -15
-5 0 -7 7 -4 15 4 8 8 15 10 15 2 0 4 -7 4 -15z m-70 -68 c0 -23 -2 -22 -19
10 -10 19 -9 22 4 17 8 -4 15 -15 15 -27z m68 3 c5 -13 3 -13 -11 -1 -12 9
-17 10 -17 2 0 -7 -5 -9 -10 -6 -15 9 -1 27 18 23 8 -2 18 -10 20 -18z m-1435
-73 c-4 -6 -8 -21 -8 -31 0 -28 -18 -30 -34 -4 -10 17 -11 23 -2 26 7 2 17 16
22 31 9 23 11 24 20 8 6 -9 7 -23 2 -30z m-163 -47 c0 -5 -5 -10 -11 -10 -5 0
-7 5 -4 10 3 6 8 10 11 10 2 0 4 -4 4 -10z m1380 -37 c8 -16 15 -32 16 -38 0
-5 5 -19 10 -30 22 -49 5 -291 -24 -357 -11 -23 -25 -62 -32 -86 -6 -24 -20
-59 -30 -77 -14 -24 -16 -35 -7 -38 8 -3 4 -13 -11 -29 -12 -14 -37 -60 -56
-104 -18 -43 -52 -123 -75 -178 -38 -86 -42 -104 -36 -145 4 -25 11 -54 16
-63 11 -21 40 -23 57 -6 15 15 16 3 2 -23 -6 -10 -17 -19 -24 -19 -8 0 -16 -7
-20 -15 -3 -8 -10 -15 -16 -15 -7 0 -7 7 0 23 10 20 9 20 -9 -3 -11 -14 -21
-29 -21 -35 0 -5 5 -3 11 5 8 11 9 8 4 -15 -4 -16 -13 -62 -20 -102 -7 -40
-20 -79 -29 -88 -9 -9 -16 -20 -16 -24 0 -4 -22 -23 -49 -41 -72 -50 -72 -50
-40 -175 16 -61 28 -112 29 -114 0 -2 -7 2 -15 9 -8 7 -15 17 -15 22 0 5 -11
21 -25 36 -14 15 -31 47 -39 72 -8 25 -26 78 -41 118 -24 67 -25 78 -16 145 6
40 24 119 40 177 27 97 49 204 49 240 0 8 4 39 8 68 6 44 4 52 -10 52 -9 0
-16 -7 -16 -15 0 -9 -6 -12 -15 -9 -8 4 -15 10 -15 16 0 5 6 6 13 3 6 -4 4 0
-6 8 -18 15 -7 34 13 22 17 -10 -11 53 -34 79 -16 16 -26 43 -30 79 -5 35 -14
61 -27 73 -10 9 -19 24 -18 33 0 12 3 11 9 -4 7 -16 9 -17 9 -3 1 10 8 15 19
13 10 -1 16 -9 14 -21 -2 -16 -1 -17 7 -4 8 12 11 7 12 -20 0 -26 2 -30 8 -16
4 10 2 34 -3 52 -8 26 -15 32 -28 28 -10 -3 -18 -1 -18 5 0 6 9 11 20 11 11 0
20 7 20 16 0 8 5 12 10 9 6 -4 8 -10 5 -15 -9 -15 14 -50 29 -44 8 3 19 29 24
57 5 29 12 59 16 68 4 9 -3 26 -19 43 -28 30 -34 59 -10 50 8 -4 22 -1 30 6
12 10 15 9 15 -4 0 -9 -4 -16 -9 -16 -5 0 -8 -11 -8 -25 0 -29 18 -33 38 -8 8
10 9 14 2 10 -22 -14 -24 12 -2 34 21 21 23 21 35 5 6 -9 15 -13 18 -8 3 6 -1
13 -10 16 -9 4 -14 13 -10 22 3 8 2 12 -4 9 -6 -3 -10 -1 -10 4 0 16 19 13 36
-4 11 -11 12 -15 3 -15 -7 0 -9 -3 -5 -7 10 -10 67 57 59 70 -3 6 -2 7 4 4 5
-3 33 8 63 25 37 21 49 32 40 38 -7 5 -18 7 -24 6 -6 -2 -8 -1 -3 1 4 3 6 8 4
11 -2 4 4 15 15 25 14 13 18 14 18 3 0 -8 -6 -17 -12 -19 -8 -3 -6 -6 5 -6 9
-1 17 -6 17 -12 0 -8 5 -7 16 2 14 11 14 13 0 21 -23 13 -19 33 9 52 14 9 33
34 43 54 17 40 41 72 52 72 4 0 13 -12 20 -27z m-1265 -13 c-2 -11 0 -22 5
-25 9 -6 2 -44 -12 -61 -5 -7 -7 -18 -6 -25 2 -8 -3 -13 -9 -12 -8 2 -11 -6
-7 -25 6 -38 -9 -60 -30 -43 -27 23 -17 76 21 118 9 10 12 10 16 -5 4 -15 5
-15 6 0 0 9 -9 24 -20 32 l-21 14 21 14 c11 7 21 21 21 31 0 10 4 16 9 12 6
-3 8 -14 6 -25z m-136 -21 c-12 -42 -21 -80 -22 -96 0 -7 -4 -13 -8 -13 -15 0
-16 26 -3 59 8 18 14 41 14 50 0 16 20 44 27 38 1 -2 -2 -19 -8 -38z m-9 -123
c0 -3 -4 -8 -10 -11 -5 -3 -10 -1 -10 4 0 6 5 11 10 11 6 0 10 -2 10 -4z m685
-46 c-11 -17 -23 -1 -18 21 5 19 7 19 15 5 5 -9 6 -21 3 -26z m509 12 c2 -4
-2 -16 -10 -27 -8 -10 -14 -17 -15 -14 0 2 -2 14 -5 27 -4 21 18 32 30 14z
m-1057 -24 c-3 -8 -6 -5 -6 6 -1 11 2 17 5 13 3 -3 4 -12 1 -19z m994 -10
c-13 -4 -26 -6 -31 -3 -4 3 -11 -2 -14 -11 -3 -8 -10 -13 -15 -9 -19 11 1 34
32 37 42 4 57 -3 28 -14z m-354 6 c-3 -3 -12 -4 -19 -1 -8 3 -5 6 6 6 11 1 17
-2 13 -5z m277 -16 c-3 -13 -11 -24 -15 -26 -5 -2 -9 -12 -9 -23 0 -28 -26
-23 -49 10 l-21 29 30 7 c16 4 30 11 30 16 0 5 9 9 21 9 17 0 19 -4 13 -22z
m-364 4 c0 -4 14 -16 31 -26 17 -10 29 -23 26 -29 -2 -7 2 -25 9 -42 11 -26
13 -27 14 -7 0 30 18 28 33 -5 6 -16 18 -33 25 -38 17 -13 28 -130 13 -140 -6
-3 -9 -11 -6 -16 4 -5 1 -9 -4 -9 -6 0 -11 8 -12 18 0 10 -3 12 -6 5 -2 -7 -8
-13 -13 -13 -9 0 -95 147 -95 164 0 6 -6 21 -13 34 -16 28 -24 112 -11 112 5
0 9 -4 9 -8z m250 -72 c0 -5 -5 -10 -11 -10 -5 0 -7 5 -4 10 3 6 8 10 11 10 2
0 4 -4 4 -10z m-823 -22 c-3 -8 -6 -5 -6 6 -1 11 2 17 5 13 3 -3 4 -12 1 -19z
m813 -17 c0 -5 -7 -14 -16 -22 -13 -10 -17 -10 -25 2 -14 23 -11 29 16 29 14
0 25 -4 25 -9z m-50 -22 c0 -7 12 -23 26 -36 32 -30 29 -35 -12 -18 -33 14
-55 65 -28 65 8 0 14 -5 14 -11z m77 -76 c-3 -10 -5 -2 -5 17 0 19 2 27 5 18
2 -10 2 -26 0 -35z m-57 -18 c0 -8 -6 -15 -13 -15 -8 0 -14 7 -14 15 0 8 6 15
14 15 7 0 13 -7 13 -15z m-90 -155 c0 -13 -1 -13 -10 0 -5 8 -10 22 -10 30 0
13 1 13 10 0 5 -8 10 -22 10 -30z m94 -166 c-2 -45 -11 -54 -12 -12 -1 27 4
48 11 48 1 0 2 -16 1 -36z m-7 -96 c-3 -8 -6 -5 -6 6 -1 11 2 17 5 13 3 -3 4
-12 1 -19z m44 -22 c14 8 11 -51 -5 -80 l-14 -27 -7 38 c-4 21 -12 41 -18 45
-8 5 -6 12 8 22 11 8 22 10 23 5 2 -5 8 -7 13 -3z m-1069 -578 c-3 -37 2 -72
17 -115 12 -34 21 -68 21 -75 0 -7 13 -40 28 -73 25 -54 28 -69 25 -145 -6
-133 10 -179 47 -135 7 8 17 15 22 15 14 0 -2 -117 -24 -180 -11 -30 -25 -75
-32 -100 -16 -54 -46 -108 -94 -169 -49 -62 -200 -208 -235 -227 -36 -19 -60
-40 -163 -141 -47 -46 -89 -83 -94 -83 -6 0 -10 9 -10 20 0 13 7 20 20 20 19
0 21 4 24 39 1 7 14 23 29 35 27 22 30 56 3 56 -6 0 -17 9 -24 20 -13 22 -3
27 15 9 9 -9 13 -3 17 22 3 19 5 41 4 49 0 8 3 24 7 35 6 17 5 17 -9 -3 -10
-12 -14 -27 -11 -32 3 -6 -3 -10 -14 -10 -26 0 -26 -1 4 56 14 26 25 52 25 58
0 6 17 37 37 69 31 50 39 56 48 43 7 -9 15 -13 18 -10 3 4 0 13 -8 20 -18 18
-9 44 16 44 11 0 19 7 19 18 0 15 -2 15 -11 2 -9 -12 -9 -11 -3 5 4 11 12 35
18 53 7 20 16 30 24 27 14 -5 40 48 48 95 3 14 11 42 20 63 10 26 12 51 7 75
-4 21 -6 42 -4 47 1 5 -1 7 -5 3 -12 -13 -65 88 -70 134 -2 15 -4 31 -5 35 -1
4 -1 17 0 28 1 15 4 16 13 7 14 -14 28 -16 28 -4 0 5 -10 14 -22 20 l-23 11
22 7 c18 5 22 11 17 30 -5 19 -1 26 18 33 26 10 58 51 58 74 0 7 13 26 28 43
15 16 45 53 67 82 21 28 42 52 45 52 4 0 5 -24 2 -52z m931 -175 c-6 -7 -18
-10 -26 -7 -11 4 -12 13 -4 43 l11 39 15 -32 c13 -24 14 -34 4 -43z m-1693 18
c0 -5 -12 -14 -27 -19 -16 -6 -22 -11 -14 -11 11 -1 10 -5 -5 -16 -10 -8 -23
-14 -29 -15 -5 0 -3 5 5 10 13 8 13 10 1 10 -8 0 0 11 19 25 36 26 50 31 50
16z m-766 -47 c5 -14 4 -15 -9 -4 -17 14 -19 20 -6 20 5 0 12 -7 15 -16z
m1286 -9 c-7 -9 -15 -13 -17 -11 -7 7 7 26 19 26 6 0 6 -6 -2 -15z m1184 -1
c3 -8 10 -12 16 -9 5 3 10 -3 10 -14 0 -12 5 -21 10 -21 6 0 10 -4 10 -10 0
-18 -22 -10 -27 10 -4 16 -8 18 -19 9 -8 -6 -14 -8 -14 -3 0 5 -3 19 -6 32 -7
25 11 31 20 6z m-1858 -40 c-32 -14 -68 -23 -80 -21 -19 3 -18 5 9 17 30 13
87 27 115 28 8 1 -11 -10 -44 -24z m623 -26 c-8 -47 2 -108 26 -154 8 -16 15
-32 15 -37 0 -4 11 -25 25 -47 28 -44 32 -86 11 -116 -17 -23 -66 -121 -92
-181 -10 -24 -22 -43 -27 -43 -4 0 -6 -8 -2 -19 4 -14 -1 -20 -20 -25 -15 -4
-25 -12 -22 -19 2 -6 -18 -55 -44 -107 -40 -80 -57 -130 -94 -270 -2 -8 -10
-33 -18 -55 -8 -22 -20 -80 -28 -128 l-13 -88 -13 53 c-20 86 -16 149 13 212
14 31 29 56 34 56 5 0 18 29 30 64 11 35 37 95 55 133 19 37 35 76 35 85 0 9
4 19 9 23 5 3 17 31 26 63 9 31 21 62 26 68 20 24 51 132 55 187 4 51 1 61
-18 78 -16 14 -19 22 -11 25 10 4 9 9 -3 21 -10 10 -13 25 -9 44 5 21 3 29 -7
30 -7 0 -5 4 6 8 17 7 17 8 2 24 -10 9 -14 17 -9 17 4 0 8 17 8 38 1 34 37
102 56 102 3 0 3 -19 -2 -42z m-79 8 c0 -7 -7 -29 -15 -49 -11 -27 -22 -37
-47 -42 -35 -8 -71 -31 -129 -86 -43 -41 -90 -138 -114 -234 -9 -38 -22 -80
-27 -92 -8 -16 -7 -35 2 -67 7 -25 10 -56 7 -68 -4 -12 -3 -27 2 -32 4 -6 16
-40 26 -76 9 -36 26 -90 36 -120 26 -79 33 -144 19 -169 -11 -21 -13 -20 -35
26 -13 26 -29 67 -35 91 -6 23 -15 42 -20 42 -6 0 -10 16 -10 35 0 19 -4 35
-8 35 -8 0 -31 51 -38 85 -13 61 2 172 36 258 16 43 30 91 30 106 0 59 45 164
92 213 36 39 38 42 38 61 0 14 66 51 130 72 40 13 41 14 10 10 -27 -4 -30 -3
-15 4 30 14 65 13 65 -3z m1350 -74 c13 -11 12 -12 -7 -7 -18 5 -22 3 -16 -10
5 -15 3 -15 -16 -4 -11 8 -21 22 -21 32 0 11 5 15 11 11 8 -4 9 1 4 17 l-7 24
18 -25 c10 -14 25 -31 34 -38z m114 21 c29 -37 47 -91 40 -120 -5 -19 2 -31
33 -61 40 -36 40 -38 34 -91 -6 -52 -7 -54 -23 -37 -10 10 -18 26 -18 37 0 10
-5 19 -11 19 -6 0 -9 6 -6 14 3 8 -1 17 -9 20 -8 3 -14 13 -14 22 0 10 -7 25
-15 34 -20 23 -30 111 -13 122 10 6 7 10 -10 14 -18 5 -20 9 -11 20 8 10 8 14
0 14 -6 0 -11 5 -11 10 0 17 11 11 34 -17z m-1704 -12 c0 -6 -5 -13 -11 -17
-42 -25 -133 -228 -155 -343 -1 -8 -10 -37 -19 -65 -9 -28 -21 -71 -26 -96 -4
-25 -14 -69 -21 -97 -9 -39 -9 -67 -2 -103 6 -29 7 -50 2 -50 -5 0 -16 -7 -24
-15 -9 -9 -11 -15 -4 -15 6 0 8 -5 5 -10 -5 -8 -11 -7 -21 1 -17 14 -18 39 -1
35 6 -1 9 -1 4 2 -15 8 -37 62 -38 94 -2 30 -2 31 -6 6 -2 -16 -10 -28 -18
-28 -14 0 -31 37 -21 47 3 3 -5 24 -16 47 -12 22 -23 46 -24 52 -1 6 -5 25 -8
41 -6 24 -3 32 11 37 11 4 22 1 29 -8 15 -21 25 -20 17 0 -13 33 -8 89 10 109
18 20 19 35 2 38 -6 1 -11 -8 -13 -21 -2 -13 -9 -21 -15 -19 -20 6 -19 25 3
47 16 16 19 25 11 34 -8 10 -7 17 4 26 11 9 15 9 15 1 0 -7 5 -9 10 -6 6 3 10
17 10 30 0 13 8 30 18 37 11 7 24 23 31 35 6 13 21 28 32 34 17 9 25 7 42 -12
21 -22 22 -22 26 -4 2 11 -2 21 -8 23 -15 5 -14 22 2 22 17 0 77 53 77 69 0
13 58 51 78 51 6 0 12 -4 12 -9z m184 -55 c-3 -7 -17 -19 -32 -27 -15 -8 -34
-23 -42 -34 -8 -11 -26 -32 -41 -47 -14 -15 -39 -56 -54 -92 -15 -36 -31 -66
-36 -66 -10 0 24 110 46 146 28 45 119 129 143 131 13 1 19 -3 16 -11z m1411
4 c3 -5 1 -10 -4 -10 -6 0 -11 5 -11 10 0 6 2 10 4 10 3 0 8 -4 11 -10z m-45
-42 c0 -6 3 -8 6 -5 12 11 44 -13 44 -33 0 -11 5 -20 11 -20 5 0 7 -4 4 -10
-3 -5 -1 -10 5 -10 6 0 8 -5 5 -10 -4 -6 7 -32 24 -59 36 -56 41 -87 12 -72
-10 6 -23 23 -29 39 -5 15 -16 35 -23 43 -18 18 -39 65 -39 87 0 9 -9 23 -20
30 -21 13 -27 32 -10 32 6 0 10 -5 10 -12z m1159 -300 c1 -5 -5 -8 -13 -8 -9
0 -12 8 -8 27 5 25 6 25 13 8 4 -11 8 -23 8 -27z m-3219 22 c0 -5 -5 -10 -11
-10 -5 0 -7 5 -4 10 3 6 8 10 11 10 2 0 4 -4 4 -10z m603 -30 c-6 -24 -23 -37
-23 -18 0 12 18 38 26 38 1 0 0 -9 -3 -20z m2647 5 c0 -8 -4 -15 -10 -15 -5 0
-7 7 -4 15 4 8 8 15 10 15 2 0 4 -7 4 -15z m-3130 -45 c0 -20 -2 -22 -10 -10
-5 8 -10 26 -10 40 0 20 2 22 10 10 5 -8 10 -26 10 -40z m780 40 c0 -5 -4 -10
-10 -10 -5 0 -10 5 -10 10 0 6 5 10 10 10 6 0 10 -4 10 -10z m1215 -10 c3 -5
1 -10 -4 -10 -6 0 -11 5 -11 10 0 6 2 10 4 10 3 0 8 -4 11 -10z m-1449 -68
c-11 -10 -14 3 -7 38 l6 35 3 -33 c2 -19 1 -36 -2 -40z m-796 -7 c0 -14 -4
-25 -10 -25 -11 0 -14 33 -3 43 11 11 13 8 13 -18z m690 11 c0 -3 -4 -8 -10
-11 -5 -3 -10 -1 -10 4 0 6 5 11 10 11 6 0 10 -2 10 -4z m97 -68 c-3 -8 -6 -5
-6 6 -1 11 2 17 5 13 3 -3 4 -12 1 -19z m-827 8 c0 -3 -4 -8 -10 -11 -5 -3
-10 -1 -10 4 0 6 5 11 10 11 6 0 10 -2 10 -4z m1411 -43 c-12 -20 -14 -14 -5
12 4 9 9 14 11 11 3 -2 0 -13 -6 -23z m-1421 7 c0 -5 -5 -10 -11 -10 -5 0 -7
5 -4 10 3 6 8 10 11 10 2 0 4 -4 4 -10z m-33 -72 c-3 -8 -6 -5 -6 6 -1 11 2
17 5 13 3 -3 4 -12 1 -19z m553 -209 c0 -11 5 -19 10 -19 6 0 10 -7 10 -15 0
-8 9 -23 20 -32 11 -10 20 -21 20 -25 0 -4 16 -42 36 -84 28 -60 38 -96 45
-172 6 -52 8 -101 5 -109 -3 -8 -2 -12 3 -9 8 5 23 -20 35 -56 3 -10 -3 -50
-14 -90 -10 -40 -18 -91 -18 -113 1 -22 -3 -88 -7 -147 -6 -84 -11 -108 -23
-108 -8 0 -12 -6 -8 -15 7 -20 -3 -45 -19 -45 -7 0 -20 11 -28 24 -12 17 -22
22 -41 19 -14 -3 -23 -9 -20 -14 13 -21 -11 -6 -37 22 -16 18 -30 49 -34 73
-4 23 -18 53 -33 69 -20 21 -25 36 -23 65 2 20 3 51 2 67 -1 80 0 113 4 150 7
60 16 99 26 111 5 7 10 28 11 48 1 22 8 41 17 46 10 6 11 10 4 10 -18 0 -16
29 3 37 8 3 13 12 9 21 -3 8 3 30 14 48 12 20 16 36 10 39 -5 4 -7 10 -4 15 3
5 -3 13 -12 19 -16 9 -16 12 -3 20 8 6 11 13 7 17 -4 4 1 13 11 20 9 7 12 14
6 14 -7 0 -11 26 -12 70 0 60 2 69 14 59 8 -6 14 -20 14 -30z m304 -174 c3 -8
1 -15 -4 -15 -6 0 -10 7 -10 15 0 8 2 15 4 15 2 0 6 -7 10 -15z m-1038 -40 c7
-29 -3 -94 -18 -112 -7 -9 -7 -13 1 -13 6 0 11 -5 11 -11 0 -5 -5 -7 -12 -3
-7 5 -8 3 -3 -6 4 -7 2 -15 -4 -19 -8 -6 -8 -16 0 -40 8 -23 8 -36 1 -43 -6
-6 -8 -17 -5 -24 3 -8 0 -14 -6 -14 -6 0 -11 5 -11 10 0 6 -9 10 -20 10 -30 0
-61 32 -50 50 5 8 10 25 10 38 0 12 5 22 10 22 6 0 10 7 10 16 0 8 5 25 11 36
11 21 12 21 25 -8 l13 -29 -4 42 c-3 32 -1 41 9 37 18 -7 30 26 15 40 -9 8
-10 7 -6 -6 4 -10 2 -18 -2 -18 -15 0 -18 22 -7 47 14 30 24 29 32 -2z m1014
-75 c0 -5 -7 -10 -16 -10 -8 0 -12 5 -9 10 3 6 10 10 16 10 5 0 9 -4 9 -10z
m-635 -233 c8 -13 26 -29 40 -35 27 -13 43 -58 27 -74 -7 -7 -8 -17 -2 -28 5
-9 10 -77 11 -151 2 -119 5 -140 27 -187 13 -28 40 -69 58 -89 19 -20 34 -41
34 -45 0 -16 3 -23 16 -43 14 -19 21 -155 8 -155 -14 0 -43 43 -50 73 -12 56
-48 97 -134 154 -47 31 -97 65 -111 77 -15 12 -38 30 -53 40 -14 10 -26 23
-26 27 0 5 -13 30 -30 57 -32 52 -54 134 -48 179 l4 28 11 -25 11 -25 7 30 c4
17 11 35 15 40 4 6 11 26 15 45 10 46 49 96 86 109 25 9 33 7 49 -9 11 -11 20
-16 20 -11 0 5 -7 17 -16 25 -14 14 -14 16 0 16 9 0 22 -11 31 -23z m-525 -7
c41 0 172 -162 155 -190 -3 -6 0 -10 9 -10 9 0 17 -14 21 -40 7 -42 0 -64 -17
-54 -7 5 -9 1 -5 -9 7 -19 6 -20 -16 -11 -9 3 -12 14 -9 30 4 21 -1 27 -27 37
-18 6 -30 18 -28 26 1 9 -6 17 -17 19 -10 2 -42 17 -70 32 -43 24 -52 34 -59
66 -4 21 -12 43 -17 49 -14 16 27 68 47 61 8 -3 23 -6 33 -6z m150 0 c0 -5 -4
-10 -9 -10 -6 0 -13 5 -16 10 -3 6 1 10 9 10 9 0 16 -4 16 -10z m60 -350 c8
-5 11 -10 5 -10 -5 0 -17 5 -25 10 -8 5 -10 10 -5 10 6 0 17 -5 25 -10z m1470
-134 c0 -3 -4 -8 -10 -11 -5 -3 -10 -1 -10 4 0 6 5 11 10 11 6 0 10 -2 10 -4z
m-1570 -46 c0 -5 -2 -10 -4 -10 -3 0 -8 5 -11 10 -3 6 -1 10 4 10 6 0 11 -4
11 -10z m1605 -60 c3 -5 1 -10 -4 -10 -6 0 -11 5 -11 10 0 6 2 10 4 10 3 0 8
-4 11 -10z m-435 -220 c0 -5 -4 -10 -10 -10 -5 0 -10 5 -10 10 0 6 5 10 10 10
6 0 10 -4 10 -10z m0 -130 c0 -5 6 -10 14 -10 9 0 12 -7 9 -20 -6 -24 -13 -25
-38 -6 -11 8 -16 19 -12 30 7 17 27 22 27 6z m-474 -206 c-4 -14 -9 -24 -12
-21 -3 2 -2 17 2 31 3 15 9 25 11 22 3 -3 2 -17 -1 -32z m24 -206 c0 -16 -3
-19 -11 -11 -6 6 -8 16 -5 22 11 17 16 13 16 -11z m194 -666 c3 -5 -1 -9 -9
-9 -8 0 -15 4 -15 9 0 4 4 8 9 8 6 0 12 -4 15 -8z m-144 -532 c0 -5 -7 -10
-16 -10 -8 0 -12 5 -9 10 3 6 10 10 16 10 5 0 9 -4 9 -10z m-30 -150 c0 -12
-29 -20 -35 -10 -9 15 4 30 20 23 8 -3 15 -9 15 -13z m-76 -22 c4 -17 2 -28
-4 -28 -5 0 -10 14 -10 32 0 36 4 35 14 -4z m109 -72 c6 -15 -1 -26 -15 -26
-4 0 -8 9 -8 20 0 23 15 27 23 6z m8 -99 c-13 -13 -26 -3 -16 12 3 6 11 8 17
5 6 -4 6 -10 -1 -17z m94 -197 c3 -5 1 -10 -4 -10 -6 0 -11 5 -11 10 0 6 2 10
4 10 3 0 8 -4 11 -10z m459 -412 c-7 -23 -21 -38 -37 -38 -5 0 1 14 13 30 25
36 34 38 24 8z m-382 -50 c-9 -9 -12 -7 -12 12 0 19 3 21 12 12 9 -9 9 -15 0
-24z m-5 -714 c4 -12 -27 -49 -111 -131 -65 -63 -121 -112 -124 -109 -3 3 2
14 10 23 9 10 25 36 36 58 30 60 130 165 149 158 11 -4 14 -2 9 5 -4 7 -1 12
9 12 8 0 18 -7 22 -16z m-497 -224 c-21 -42 -30 -49 -30 -26 0 13 37 66 46 66
2 0 -5 -18 -16 -40z m0 -315 c0 -10 -44 -65 -52 -65 -11 0 2 32 21 52 16 17
31 23 31 13z m-60 -79 c0 -3 -4 -8 -10 -11 -5 -3 -10 -1 -10 4 0 6 5 11 10 11
6 0 10 -2 10 -4z m-150 -162 c0 -3 -7 -12 -15 -21 -20 -19 -32 -10 -14 11 14
15 29 21 29 10z m-100 -156 c0 -6 -11 -34 -24 -62 -13 -28 -29 -63 -35 -78
-17 -43 -35 -35 -28 12 5 42 41 120 61 132 16 11 26 10 26 -4z m-221 -60 c-7
-13 -12 -24 -11 -25 1 -2 -1 -3 -5 -3 -5 0 -8 3 -8 8 0 4 -3 12 -7 18 -9 14 0
24 24 24 16 0 17 -3 7 -22z m-164 -358 c-3 -5 -13 -10 -21 -10 -8 0 -12 5 -9
10 3 6 13 10 21 10 8 0 12 -4 9 -10z m275 -25 c0 -8 -2 -15 -4 -15 -2 0 -6 7
-10 15 -3 8 -1 15 4 15 6 0 10 -7 10 -15z m-140 -645 c0 -13 -5 -18 -15 -14
-11 5 -12 9 -2 20 16 18 17 17 17 -6z m-50 -29 c0 -5 -7 -12 -16 -15 -14 -5
-15 -4 -4 9 14 17 20 19 20 6z"/>
<path d="M5190 12636 c0 -15 58 -28 66 -14 3 4 -4 8 -15 8 -12 0 -21 5 -21 10
0 6 -7 10 -15 10 -8 0 -15 -6 -15 -14z"/>
<path d="M5505 12100 c-3 -5 -1 -10 4 -10 6 0 11 5 11 10 0 6 -2 10 -4 10 -3
0 -8 -4 -11 -10z"/>
<path d="M5397 11860 c-3 -11 -1 -23 4 -26 5 -3 9 6 9 20 0 31 -6 34 -13 6z"/>
<path d="M5376 11795 c-3 -8 -1 -15 4 -15 13 0 22 18 11 24 -5 3 -11 -1 -15
-9z"/>
<path d="M5370 11755 c-7 -9 -8 -15 -2 -15 5 0 12 7 16 15 3 8 4 15 2 15 -2 0
-9 -7 -16 -15z"/>
<path d="M4555 12329 c-11 -16 -1 -19 13 -3 7 8 8 14 3 14 -5 0 -13 -5 -16
-11z"/>
<path d="M4076 10164 c-4 -9 -4 -19 -1 -22 2 -3 7 3 11 12 4 9 4 19 1 22 -2 3
-7 -3 -11 -12z"/>
<path d="M3621 9974 c0 -11 3 -14 6 -6 3 7 2 16 -1 19 -3 4 -6 -2 -5 -13z"/>
<path d="M3380 10061 c0 -6 5 -13 10 -16 6 -3 10 1 10 9 0 9 -4 16 -10 16 -5
0 -10 -4 -10 -9z"/>
<path d="M3118 8873 c-5 -21 11 -63 24 -63 5 0 18 5 29 11 19 10 19 11 -3 39
-26 33 -45 38 -50 13z"/>
<path d="M2640 9119 c0 -5 5 -7 10 -4 6 3 10 8 10 11 0 2 -4 4 -10 4 -5 0 -10
-5 -10 -11z"/>
<path d="M1545 16680 c-3 -5 -1 -10 4 -10 6 0 11 5 11 10 0 6 -2 10 -4 10 -3
0 -8 -4 -11 -10z"/>
<path d="M3868 16043 c-21 -9 -38 -20 -38 -24 0 -5 -6 -9 -14 -9 -8 0 -18 -5
-21 -10 -4 -7 12 -8 47 -5 29 3 59 2 66 -3 7 -5 24 -40 37 -78 34 -93 109
-157 162 -137 21 8 15 22 -7 16 -45 -12 -69 5 -100 72 -39 83 -39 89 6 81 19
-4 60 -2 90 4 68 14 193 -4 201 -29 22 -71 79 -157 124 -188 12 -9 45 -22 73
-29 28 -6 59 -15 69 -19 11 -5 17 -3 17 5 0 7 8 19 18 27 13 11 14 16 4 20 -9
3 -10 9 -2 18 19 23 0 44 -46 51 -24 3 -47 10 -50 15 -3 5 -13 9 -23 9 -13 0
-17 -7 -15 -29 1 -16 5 -35 9 -42 5 -6 -10 -2 -31 10 -46 27 -96 103 -92 140
4 32 -24 47 -102 56 -30 3 -56 10 -58 16 -2 5 -12 9 -23 9 -10 0 -19 4 -19 9
0 16 -54 20 -77 5 -32 -20 -45 -18 -75 16 -16 18 -32 28 -41 24 -8 -3 -18 -1
-22 5 -8 14 -21 13 -67 -6z m700 -319 c10 -10 -61 5 -71 15 -6 6 6 6 28 1 20
-4 40 -12 43 -16z"/>
<path d="M3658 15976 c-16 -5 -30 -18 -33 -27 -3 -10 -27 -30 -53 -45 -37 -22
-59 -28 -102 -27 -44 1 -50 -1 -31 -8 14 -6 59 -8 100 -7 72 3 77 5 89 31 11
23 19 27 55 27 87 -1 126 -26 200 -130 39 -53 81 -70 177 -74 71 -3 110 11
148 51 23 25 29 39 13 28 -5 -3 -12 -1 -16 5 -3 5 -1 10 6 10 8 0 8 4 -1 15
-7 8 -27 15 -44 14 -28 -1 -29 -2 -7 -8 21 -6 22 -8 7 -20 -9 -7 -16 -19 -16
-27 0 -42 -66 -55 -150 -30 -38 11 -50 21 -76 63 -16 28 -38 58 -47 67 -11 11
-15 26 -11 41 4 17 0 27 -18 38 -28 18 -153 27 -190 13z"/>
<path d="M1906 15332 c-3 -6 -1 -14 5 -17 14 -9 20 -2 10 14 -6 8 -11 9 -15 3z"/>
<path d="M2310 15090 c0 -5 5 -10 11 -10 5 0 7 5 4 10 -3 6 -8 10 -11 10 -2 0
-4 -4 -4 -10z"/>
<path d="M2613 14788 c-2 -16 1 -18 10 -9 7 7 8 14 1 21 -6 6 -10 2 -11 -12z"/>
<path d="M2546 14761 c-3 -5 1 -11 9 -15 8 -3 15 -1 15 4 0 13 -18 22 -24 11z"/>
<path d="M2599 14709 c9 -23 21 -37 29 -34 6 2 12 -3 13 -13 0 -14 2 -14 9 3
13 30 12 45 -4 45 -8 0 -13 8 -12 17 1 12 -7 18 -25 19 l-27 3 17 -40z"/>
<path d="M3490 14400 c10 -33 10 -36 10 -50 0 -10 39 -34 46 -28 2 3 -7 20
-21 38 -14 19 -25 42 -25 52 0 10 -4 18 -9 18 -6 0 -6 -12 -1 -30z"/>
<path d="M4876 14316 c3 -9 11 -16 16 -16 13 0 5 23 -10 28 -7 2 -10 -2 -6
-12z"/>
<path d="M3551 14288 c17 -34 19 -34 19 -5 0 18 -5 27 -15 27 -13 0 -14 -4 -4
-22z"/>
<path d="M3875 14220 c4 -6 11 -8 16 -5 14 9 11 15 -7 15 -8 0 -12 -5 -9 -10z"/>
<path d="M3600 14185 c0 -8 2 -15 4 -15 2 0 6 7 10 15 3 8 1 15 -4 15 -6 0
-10 -7 -10 -15z"/>
<path d="M3612 14139 c2 -7 10 -15 17 -17 8 -3 12 1 9 9 -2 7 -10 15 -17 17
-8 3 -12 -1 -9 -9z"/>
<path d="M6184 14138 c-4 -6 -3 -8 4 -4 6 3 13 2 17 -4 10 -17 45 -12 39 5 -7
18 -50 20 -60 3z"/>
<path d="M6260 14110 c0 -5 10 -10 23 -10 13 0 28 -5 35 -12 8 -8 12 -8 12 -1
0 6 -14 16 -31 22 -39 13 -39 13 -39 1z"/>
<path d="M6072 14091 c-11 -7 -10 -10 3 -15 26 -10 35 -7 35 9 0 17 -18 19
-38 6z"/>
<path d="M5537 14073 c-12 -11 -8 -23 8 -23 8 0 15 7 15 15 0 16 -12 20 -23 8z"/>
<path d="M6025 14070 c-3 -5 -1 -10 4 -10 6 0 11 5 11 10 0 6 -2 10 -4 10 -3
0 -8 -4 -11 -10z"/>
<path d="M6051 14054 c0 -11 3 -14 6 -6 3 7 2 16 -1 19 -3 4 -6 -2 -5 -13z"/>
<path d="M5950 14050 c0 -5 5 -10 10 -10 6 0 10 5 10 10 0 6 -4 10 -10 10 -5
0 -10 -4 -10 -10z"/>
<path d="M3659 14032 c-1 -12 -2 -27 -3 -34 -1 -6 4 -13 10 -15 18 -6 25 40 9
57 -13 13 -15 12 -16 -8z"/>
<path d="M5130 14005 c19 -19 36 -35 39 -35 3 0 -10 16 -29 35 -19 19 -36 35
-39 35 -3 0 10 -16 29 -35z"/>
<path d="M6070 14029 c0 -5 5 -7 10 -4 6 3 10 8 10 11 0 2 -4 4 -10 4 -5 0
-10 -5 -10 -11z"/>
<path d="M6374 14018 c-3 -4 2 -8 10 -8 8 0 17 4 20 8 3 5 -2 9 -10 9 -8 0
-17 -4 -20 -9z"/>
<path d="M3526 14007 c3 -10 9 -15 12 -12 3 3 0 11 -7 18 -10 9 -11 8 -5 -6z"/>
<path d="M5676 13994 c-4 -10 -1 -21 6 -25 16 -10 25 18 10 33 -6 6 -12 3 -16
-8z"/>
<path d="M5966 13991 c-17 -6 -17 -8 -4 -14 10 -3 19 0 22 9 3 8 4 14 3 13 -1
0 -11 -4 -21 -8z"/>
<path d="M5525 13930 c-3 -5 1 -10 10 -10 9 0 13 5 10 10 -3 6 -8 10 -10 10
-2 0 -7 -4 -10 -10z"/>
<path d="M5856 13901 c-3 -5 1 -11 9 -14 9 -4 12 -1 8 9 -6 16 -10 17 -17 5z"/>
<path d="M3670 13886 c0 -9 5 -16 10 -16 6 0 10 4 10 9 0 6 -4 13 -10 16 -5 3
-10 -1 -10 -9z"/>
<path d="M5390 13869 c0 -5 5 -7 10 -4 6 3 10 8 10 11 0 2 -4 4 -10 4 -5 0
-10 -5 -10 -11z"/>
<path d="M7441 13798 c-23 -18 -67 -54 -97 -80 -30 -27 -58 -48 -62 -48 -5 0
-9 -7 -9 -15 0 -8 2 -15 3 -15 11 0 54 25 54 31 0 8 133 109 144 109 3 0 28
-14 56 -31 31 -19 50 -38 50 -49 0 -11 8 -27 19 -37 37 -36 42 -57 25 -107
-12 -35 -13 -53 -5 -76 5 -17 8 -37 5 -45 -4 -8 -1 -15 6 -15 9 0 11 17 8 63
-4 48 -1 71 13 99 11 21 19 44 19 52 0 29 -23 66 -42 66 -13 0 -20 10 -25 31
-4 21 -14 34 -32 40 -14 6 -36 21 -49 35 -13 13 -27 24 -31 24 -5 0 -28 -15
-50 -32z"/>
<path d="M5124 13712 c-51 -31 -111 -70 -134 -87 -50 -35 -61 -42 -111 -72
-20 -12 -47 -37 -60 -55 l-23 -33 25 21 c13 12 76 52 139 89 63 37 117 71 118
76 2 5 8 9 13 9 13 0 139 93 139 103 0 14 -15 6 -106 -51z"/>
<path d="M7180 13694 c0 -3 9 -26 20 -52 11 -26 31 -84 45 -128 14 -45 31 -87
39 -93 7 -6 21 -30 32 -53 28 -64 97 -140 182 -200 43 -31 49 -33 35 -14 -10
14 -27 30 -38 36 -11 6 -30 26 -43 44 -13 18 -43 55 -68 82 -45 47 -94 133
-94 164 0 8 -7 34 -15 58 -9 24 -17 57 -19 74 -1 16 -7 33 -13 36 -5 4 -15 17
-22 30 -10 19 -41 32 -41 16z"/>
<path d="M5240 13667 c0 -7 9 -13 19 -14 14 -1 18 3 14 13 -6 17 -33 19 -33 1z"/>
<path d="M5196 13614 c-8 -20 0 -32 14 -18 5 5 5 15 1 22 -6 11 -10 10 -15 -4z"/>
<path d="M6268 13533 c7 -3 16 -2 19 1 4 3 -2 6 -13 5 -11 0 -14 -3 -6 -6z"/>
<path d="M6300 13529 c0 -5 5 -7 10 -4 6 3 10 8 10 11 0 2 -4 4 -10 4 -5 0
-10 -5 -10 -11z"/>
<path d="M5160 13514 c0 -8 5 -12 10 -9 6 4 8 11 5 16 -9 14 -15 11 -15 -7z"/>
<path d="M6648 13503 c7 -3 16 -2 19 1 4 3 -2 6 -13 5 -11 0 -14 -3 -6 -6z"/>
<path d="M7719 13264 c17 -22 36 -58 42 -78 6 -21 12 -36 15 -34 2 3 -2 25 -9
49 -8 24 -12 49 -10 55 2 6 -4 17 -14 25 -15 11 -16 11 -5 -1 25 -29 11 -33
-20 -4 l-31 29 32 -41z"/>
<path d="M6205 13110 c-3 -5 -2 -10 4 -10 5 0 13 5 16 10 3 6 2 10 -4 10 -5 0
-13 -4 -16 -10z"/>
<path d="M7624 13073 c36 -37 41 -51 37 -108 -2 -31 -30 -157 -62 -283 -11
-40 -19 -81 -19 -92 0 -11 -14 -45 -31 -76 l-31 -55 -67 3 c-36 1 -83 -1 -105
-5 -39 -7 -107 -35 -116 -48 -13 -17 -73 -19 -140 -3 -49 11 -93 14 -132 10
-31 -3 -81 -1 -110 4 -94 18 -196 -22 -291 -114 -35 -33 -65 -101 -52 -114 4
-4 10 -1 12 6 3 7 15 18 27 23 11 5 35 18 51 29 54 36 89 49 97 37 5 -8 10 -7
20 1 8 6 32 14 53 16 22 3 44 11 50 19 5 7 18 16 28 20 9 3 17 11 17 17 0 5 8
10 18 10 15 0 15 -2 2 -11 -11 -8 -5 -9 25 -4 l40 6 -95 -95 c-52 -53 -102
-99 -112 -102 -9 -3 -43 -41 -75 -86 -32 -45 -85 -117 -119 -162 -109 -146
-203 -271 -213 -282 -5 -6 -26 -42 -46 -80 -20 -38 -41 -73 -45 -79 -13 -17
-79 -182 -91 -227 -17 -68 -68 -297 -83 -373 -8 -38 -17 -113 -21 -165 -6 -87
-9 -97 -33 -117 l-27 -21 -6 26 c-4 15 -12 38 -18 52 -9 22 -10 20 -5 -15 4
-22 11 -48 15 -57 6 -10 5 -19 -1 -23 -15 -9 -52 -65 -43 -65 4 0 37 24 73 53
87 70 124 83 265 96 66 6 127 12 135 13 29 4 155 -13 173 -23 20 -11 73 -3 83
12 11 18 104 59 134 59 25 0 37 -10 74 -60 49 -66 92 -178 76 -194 -5 -5 -10
-24 -10 -41 0 -44 -28 -122 -60 -170 -15 -22 -39 -63 -53 -91 -32 -64 -91
-115 -165 -145 -68 -27 -79 -34 -57 -43 10 -4 14 -2 9 5 -4 7 0 9 13 5 13 -4
41 4 76 23 30 16 58 26 62 23 4 -4 5 -2 4 3 -2 6 10 30 25 55 161 263 181 312
177 430 -1 35 -11 74 -28 108 -14 29 -22 56 -19 60 4 3 34 6 66 7 33 0 55 2
50 3 -6 2 -8 8 -4 13 8 14 -80 11 -95 -3 -15 -14 -15 -11 14 77 10 28 19 56
21 63 7 22 57 10 71 -18 10 -20 13 -22 18 -8 13 32 1 62 -28 72 -24 9 -31 6
-56 -19 -15 -17 -38 -58 -51 -92 -24 -67 -30 -72 -54 -48 -20 21 -109 19 -154
-2 -21 -9 -55 -30 -77 -46 -33 -23 -41 -26 -50 -14 -11 16 -151 38 -205 32
-170 -18 -172 -17 -165 7 4 13 18 42 31 65 13 23 24 54 24 70 1 29 23 59 78
106 29 23 43 27 95 27 79 0 132 -15 152 -42 14 -21 13 -24 -15 -53 -34 -35
-83 -140 -77 -164 4 -13 5 -13 6 2 0 10 12 30 26 45 14 15 25 32 25 38 0 6 9
19 20 29 11 10 20 24 20 31 0 31 52 49 140 48 78 -1 89 -4 131 -33 54 -36 55
-36 63 -16 3 9 -4 25 -17 38 l-22 22 28 3 c31 4 37 22 6 22 -11 0 -29 5 -39
10 -13 7 -34 7 -65 0 -59 -13 -85 -2 -56 24 21 19 132 39 287 51 74 6 97 4
122 -9 39 -20 48 -20 32 -1 -7 8 -9 15 -5 15 9 0 105 -77 123 -99 11 -13 12
-13 12 2 0 9 6 17 13 17 6 1 0 6 -15 13 -15 7 -38 27 -51 44 -23 31 -89 83
-105 83 -4 0 -22 15 -40 34 -32 34 -32 35 -10 39 13 3 7 4 -14 4 -20 -1 -42 4
-50 11 -8 6 -34 14 -58 18 -25 4 -58 14 -75 22 -44 22 -130 42 -263 59 -35 4
-41 8 -31 19 9 12 5 14 -24 14 -21 0 -44 8 -58 21 l-24 21 25 -7 c14 -3 46
-12 73 -19 26 -7 50 -10 53 -5 2 4 -15 13 -38 19 -95 25 -118 34 -135 49 -31
28 -104 61 -134 61 -25 0 -29 4 -29 29 0 16 -4 31 -9 33 -4 2 -11 13 -15 24
-5 17 1 28 31 51 76 57 80 58 294 55 l199 -2 92 -40 c50 -22 103 -50 116 -63
13 -12 24 -21 25 -19 5 8 50 -17 134 -75 51 -35 99 -63 106 -63 17 0 51 -25
194 -142 120 -98 194 -168 178 -168 -5 0 7 -17 27 -37 32 -33 108 -176 108
-204 0 -15 85 -213 125 -291 59 -114 106 -180 186 -259 99 -98 169 -139 235
-138 l49 1 -46 8 c-75 13 -120 48 -243 190 -101 117 -117 139 -146 215 -13 33
-27 64 -32 69 -4 6 -8 18 -8 28 0 10 -6 21 -14 24 -8 3 -19 17 -24 32 -6 15
-14 36 -18 47 -4 11 -8 22 -9 25 0 3 -10 23 -22 45 -11 22 -21 44 -21 48 0 16
-57 142 -67 149 -5 4 -6 8 -1 8 11 0 -70 76 -89 84 -9 3 -19 14 -23 25 -7 19
-55 59 -99 82 -13 7 -25 19 -28 28 -4 9 -30 36 -60 61 -30 25 -55 50 -55 56 0
6 -9 15 -20 20 -10 5 -53 42 -94 82 -68 66 -72 72 -48 72 73 0 293 -92 442
-185 79 -50 152 -124 216 -220 67 -101 127 -213 137 -256 9 -39 113 -332 127
-359 16 -29 92 -146 120 -182 11 -14 20 -31 20 -37 0 -6 11 -16 25 -21 14 -5
25 -14 25 -19 0 -17 81 -41 141 -41 56 0 67 4 133 47 80 53 115 83 98 83 -6 0
-14 -5 -17 -10 -4 -6 -28 -21 -54 -34 -26 -14 -53 -32 -60 -40 -24 -29 -181
-15 -181 16 0 4 15 8 34 8 44 0 81 16 149 65 89 64 67 72 -25 9 -26 -17 -44
-34 -41 -38 4 -3 -19 -6 -51 -6 -34 0 -55 -4 -51 -10 9 -15 -43 -24 -60 -10
-9 7 -25 13 -37 14 -12 0 -28 13 -37 28 -9 14 -42 69 -73 120 -32 51 -58 101
-58 110 0 9 -7 29 -14 45 -8 15 -22 53 -31 83 -26 88 -113 296 -148 356 -54
94 -93 150 -132 192 -66 72 -102 103 -137 119 -21 9 -38 20 -38 24 0 9 -125
69 -143 69 -8 0 -22 9 -32 20 -10 11 -22 20 -28 20 -9 0 -23 6 -110 44 -36 17
-67 26 -187 59 -78 21 -159 28 -181 16 -19 -10 -57 3 -70 24 -13 19 -97 29
-254 31 -165 2 -174 1 -299 -50 -23 -9 -35 -26 129 190 66 87 130 172 141 188
23 31 41 50 31 32 -4 -7 -1 -16 6 -22 33 -27 211 -33 249 -8 22 15 25 14 52
-14 15 -17 35 -30 43 -30 9 0 35 -11 58 -24 23 -14 71 -32 108 -42 62 -15 69
-15 119 1 82 27 134 69 158 127 8 18 22 28 44 32 45 9 109 72 128 127 16 45 3
46 -15 0 -16 -40 -71 -91 -98 -91 -8 0 -20 -5 -27 -12 -16 -16 -15 -12 9 52
19 49 46 160 53 215 1 11 6 32 10 47 4 15 3 35 -3 46 -9 17 -5 21 29 32 68 22
74 13 66 -92 -4 -51 -4 -90 -1 -87 8 9 15 45 21 114 3 33 13 73 23 88 15 23
16 36 7 76 -8 43 -7 52 12 75 11 15 31 57 43 94 12 37 33 91 46 121 43 98 39
227 -9 252 -18 10 -20 9 -13 -7 37 -91 45 -176 20 -224 -8 -16 -29 -68 -46
-115 -23 -63 -38 -90 -58 -102 -14 -9 -46 -33 -70 -52 -42 -33 -44 -34 -38
-10 3 13 13 62 22 109 27 144 36 183 57 246 19 60 19 63 2 99 -11 24 -29 42
-50 51 -49 20 -50 18 -10 -23z m54 -519 c15 -15 14 -18 -3 -30 -10 -8 -24 -14
-31 -14 -6 0 -23 -9 -38 -21 -25 -19 -26 -20 -26 -2 0 23 16 44 50 67 30 20
28 20 48 0z m-231 -128 c22 -3 55 -1 72 4 37 10 38 4 16 -112 -26 -139 -48
-212 -81 -279 -28 -56 -40 -69 -77 -87 -25 -12 -57 -24 -72 -28 -33 -8 -141
14 -156 32 -6 8 -21 14 -34 14 -36 0 -85 21 -85 36 0 8 -14 21 -31 28 -30 12
-30 13 -9 19 19 5 22 10 17 37 -9 45 12 119 32 113 11 -3 12 -2 4 4 -21 15 -4
65 33 101 19 18 34 37 34 41 0 5 20 11 44 14 25 4 75 23 113 43 52 27 76 35
103 31 19 -3 54 -7 77 -11z m-427 -46 c0 -5 -8 -10 -17 -10 -15 0 -16 2 -3 10
19 12 20 12 20 0z m1 -66 c-24 -31 -56 -127 -66 -201 -11 -84 -18 -88 -130
-85 -115 3 -137 15 -104 56 11 14 29 26 40 26 11 0 17 5 14 10 -3 6 1 10 10
10 9 0 14 4 11 9 -4 5 4 7 16 4 19 -4 20 -3 8 6 -14 10 -7 16 13 12 5 -1 6 3
2 9 -3 5 10 27 30 49 20 21 42 46 48 55 11 15 102 64 120 65 5 1 -1 -11 -12
-25z m-460 -1041 c28 -5 30 -7 14 -14 -29 -11 -117 -11 -110 0 3 5 22 8 43 5
28 -3 32 -2 17 5 -24 12 -9 13 36 4z m-174 -9 c-3 -3 -12 -4 -19 -1 -8 3 -5 6
6 6 11 1 17 -2 13 -5z m713 -140 c12 -12 8 -14 -33 -14 -50 0 -54 3 -34 25 13
16 44 10 67 -11z m-875 -154 c17 -16 38 -30 48 -32 17 -3 17 -5 -5 -38 -13
-19 -29 -57 -36 -85 -7 -27 -23 -70 -36 -95 -19 -37 -29 -46 -54 -48 -17 -2
-36 -10 -42 -18 -16 -18 -47 -20 -33 -1 5 6 10 46 12 87 2 68 31 236 45 258
10 17 71 0 101 -28z"/>
<path d="M7121 12218 c10 -19 29 -16 29 5 0 7 -9 13 -19 13 -16 0 -18 -4 -10
-18z"/>
<path d="M6120 13039 c0 -5 5 -7 10 -4 6 3 10 8 10 11 0 2 -4 4 -10 4 -5 0
-10 -5 -10 -11z"/>
<path d="M6053 12942 c-13 -2 -23 -8 -23 -13 0 -22 22 -49 40 -49 17 0 19 5
13 33 -3 17 -6 32 -7 32 -1 1 -11 -1 -23 -3z"/>
<path d="M6105 12900 c-3 -5 -2 -10 4 -10 5 0 13 5 16 10 3 6 2 10 -4 10 -5 0
-13 -4 -16 -10z"/>
<path d="M4065 12590 c-3 -5 1 -10 9 -10 8 0 18 5 21 10 3 6 -1 10 -9 10 -8 0
-18 -4 -21 -10z"/>
<path d="M1641 12554 c0 -11 3 -14 6 -6 3 7 2 16 -1 19 -3 4 -6 -2 -5 -13z"/>
<path d="M1765 12382 c-6 -4 -11 -36 -12 -72 -1 -36 1 -57 4 -47 2 9 8 17 13
17 13 0 34 75 27 94 -7 17 -16 20 -32 8z"/>
<path d="M3880 12381 c0 -5 5 -13 10 -16 6 -3 10 -2 10 4 0 5 -4 13 -10 16 -5
3 -10 2 -10 -4z"/>
<path d="M3801 12303 c-23 -9 -51 -37 -51 -50 0 -20 18 -15 25 6 3 11 16 21
27 23 12 2 23 9 26 16 4 13 -4 14 -27 5z"/>
<path d="M7652 12245 c0 -16 2 -22 5 -12 2 9 2 23 0 30 -3 6 -5 -1 -5 -18z"/>
<path d="M3673 12203 c-7 -3 -13 -9 -13 -14 0 -12 37 -12 44 0 7 11 -14 20
-31 14z"/>
<path d="M3633 12163 c-18 -7 -16 -23 2 -23 8 0 15 7 15 15 0 8 -1 15 -2 14
-2 0 -9 -3 -15 -6z"/>
<path d="M1612 11915 c0 -16 2 -22 5 -12 2 9 2 23 0 30 -3 6 -5 -1 -5 -18z"/>
<path d="M4535 11840 c3 -5 8 -10 11 -10 2 0 4 5 4 10 0 6 -5 10 -11 10 -5 0
-7 -4 -4 -10z"/>
<path d="M4427 11814 c-12 -13 -7 -20 13 -20 11 0 19 5 17 10 -4 13 -21 18
-30 10z"/>
<path d="M3073 11803 c9 -2 25 -2 35 0 9 3 1 5 -18 5 -19 0 -27 -2 -17 -5z"/>
<path d="M1620 11771 c0 -30 -21 -54 -28 -33 -7 21 -33 42 -53 42 -35 0 -35
-44 1 -100 18 -27 36 -50 41 -50 9 0 13 21 10 47 -1 7 7 21 19 33 18 18 30 90
15 90 -3 0 -5 -13 -5 -29z"/>
<path d="M4451 11751 c-10 -6 -10 -10 -1 -16 13 -8 24 -1 19 14 -3 6 -10 7
-18 2z"/>
<path d="M4433 11665 c-9 -10 -10 -21 -4 -37 8 -20 10 -21 16 -6 4 9 5 25 3
36 -2 17 -5 18 -15 7z"/>
<path d="M2408 11563 c-10 -2 -18 -9 -18 -14 0 -13 14 -11 28 3 9 9 12 7 12
-10 0 -12 6 -22 14 -22 19 0 27 25 13 39 -11 11 -19 12 -49 4z"/>
<path d="M2390 11499 c0 -5 5 -7 10 -4 6 3 10 8 10 11 0 2 -4 4 -10 4 -5 0
-10 -5 -10 -11z"/>
<path d="M6520 11404 c0 -8 5 -12 10 -9 6 3 10 10 10 16 0 5 -4 9 -10 9 -5 0
-10 -7 -10 -16z"/>
<path d="M2265 11360 c-3 -5 3 -10 14 -10 12 0 21 5 21 10 0 6 -6 10 -14 10
-8 0 -18 -4 -21 -10z"/>
<path d="M2573 11205 c0 -8 4 -12 9 -9 4 3 8 9 8 15 0 5 -4 9 -8 9 -5 0 -9 -7
-9 -15z"/>
<path d="M2630 11193 c1 -18 18 -35 24 -24 4 6 1 11 -6 11 -9 0 -9 3 2 10 13
8 12 10 -2 10 -10 0 -18 -3 -18 -7z"/>
<path d="M2435 11170 c4 -6 11 -8 16 -5 14 9 11 15 -7 15 -8 0 -12 -5 -9 -10z"/>
<path d="M2740 11170 c0 -5 5 -10 10 -10 6 0 10 5 10 10 0 6 -4 10 -10 10 -5
0 -10 -4 -10 -10z"/>
<path d="M2375 11150 c3 -5 10 -10 16 -10 5 0 9 5 9 10 0 6 -7 10 -16 10 -8 0
-12 -4 -9 -10z"/>
<path d="M1923 10992 c-78 -73 -145 -155 -198 -242 -47 -79 -56 -117 -12 -55
20 28 46 65 59 83 55 78 133 178 157 201 35 35 76 81 70 81 -2 0 -36 -31 -76
-68z"/>
<path d="M2860 11040 c0 -5 5 -10 11 -10 5 0 7 5 4 10 -3 6 -8 10 -11 10 -2 0
-4 -4 -4 -10z"/>
<path d="M3790 10910 c0 -5 4 -10 9 -10 6 0 13 5 16 10 3 6 -1 10 -9 10 -9 0
-16 -4 -16 -10z"/>
<path d="M7485 10775 c61 -60 136 -141 167 -180 66 -81 128 -144 128 -128 0
22 -12 43 -21 37 -12 -7 -41 15 -34 27 3 4 -3 17 -15 29 -11 11 -20 23 -20 28
0 4 -10 12 -22 17 -13 6 -23 18 -23 27 0 17 -134 172 -142 164 -7 -6 -53 36
-48 43 2 4 -16 16 -39 26 -38 18 -31 9 69 -90z"/>
<path d="M5986 10718 c-8 -68 -2 -108 14 -108 16 0 17 15 5 95 l-11 80 -8 -67z"/>
<path d="M5911 10699 c-2 -29 11 -79 20 -79 5 0 9 8 9 18 -1 23 -28 81 -29 61z"/>
<path d="M6600 10675 c-7 -9 -8 -15 -2 -15 5 0 12 7 16 15 3 8 4 15 2 15 -2 0
-9 -7 -16 -15z"/>
<path d="M7033 10647 c4 -10 10 -50 14 -89 3 -41 9 -64 14 -56 8 15 -13 144
-26 156 -5 4 -5 -1 -2 -11z"/>
<path d="M1564 10507 c-21 -25 -24 -48 -7 -65 15 -16 16 -15 11 10 -3 15 -1
25 3 22 5 -3 9 6 9 20 0 29 -1 30 -16 13z"/>
<path d="M7791 10453 c-1 -13 98 -113 112 -113 5 0 -9 18 -32 40 -22 22 -41
44 -41 50 0 5 -6 10 -14 10 -8 0 -17 6 -19 13 -4 8 -6 8 -6 0z"/>
<path d="M1500 10411 c0 -6 4 -12 8 -15 5 -3 9 1 9 9 0 8 -4 15 -9 15 -4 0 -8
-4 -8 -9z"/>
<path d="M1564 10409 c-6 -8 -27 -57 -48 -109 -47 -119 -56 -139 -77 -171 -23
-32 -35 -79 -21 -79 16 0 47 58 85 160 20 52 45 117 57 143 21 48 24 82 4 56z"/>
<path d="M4630 10359 c0 -11 5 -17 10 -14 6 3 10 13 10 21 0 8 -4 14 -10 14
-5 0 -10 -9 -10 -21z"/>
<path d="M8698 10363 c7 -3 16 -2 19 1 4 3 -2 6 -13 5 -11 0 -14 -3 -6 -6z"/>
<path d="M7020 10351 c0 -5 -20 -34 -46 -65 -25 -31 -41 -56 -36 -56 12 0 92
100 92 116 0 8 -2 14 -5 14 -3 0 -5 -4 -5 -9z"/>
<path d="M5270 10250 c0 -5 5 -10 11 -10 5 0 7 5 4 10 -3 6 -8 10 -11 10 -2 0
-4 -4 -4 -10z"/>
<path d="M1427 10226 c-10 -8 -17 -18 -15 -22 1 -5 -4 -30 -12 -56 -13 -43
-24 -54 -52 -49 -14 2 -9 -17 5 -22 21 -8 33 4 61 63 22 45 40 101 33 100 -1
0 -10 -7 -20 -14z"/>
<path d="M6910 10194 c-25 -66 -46 -99 -84 -135 -43 -42 -44 -61 -2 -34 27 18
114 180 103 191 -4 4 -11 -6 -17 -22z"/>
<path d="M8075 10210 c3 -5 11 -10 16 -10 6 0 7 5 4 10 -3 6 -11 10 -16 10 -6
0 -7 -4 -4 -10z"/>
<path d="M1266 10132 c-7 -12 22 -38 31 -28 4 3 0 14 -9 22 -9 10 -18 12 -22
6z"/>
<path d="M1325 10040 c-3 -5 -15 -10 -26 -10 -10 0 -19 -4 -19 -10 0 -13 3
-13 35 2 14 6 25 15 25 20 0 11 -7 10 -15 -2z"/>
<path d="M1528 9973 c7 -3 16 -2 19 1 4 3 -2 6 -13 5 -11 0 -14 -3 -6 -6z"/>
<path d="M4420 9910 c0 -5 5 -10 10 -10 6 0 10 5 10 10 0 6 -4 10 -10 10 -5 0
-10 -4 -10 -10z"/>
<path d="M4385 9860 c-3 -5 1 -10 9 -10 9 0 16 5 16 10 0 6 -4 10 -9 10 -6 0
-13 -4 -16 -10z"/>
<path d="M1241 9831 c-1 -10 -10 -12 -31 -7 -31 6 -41 -7 -16 -21 7 -4 15 -13
17 -20 8 -22 41 13 36 39 -2 13 -5 17 -6 9z"/>
<path d="M4401 9493 c0 -5 4 -17 9 -28 8 -18 9 -17 9 8 1 15 -3 27 -9 27 -5 0
-10 -3 -9 -7z"/>
<path d="M4436 9452 c-2 -4 -1 -14 5 -22 7 -12 9 -10 9 8 0 23 -5 28 -14 14z"/>
<path d="M4440 9384 c0 -8 5 -12 10 -9 6 4 8 11 5 16 -9 14 -15 11 -15 -7z"/>
<path d="M1720 9300 c0 -5 5 -10 10 -10 6 0 10 5 10 10 0 6 -4 10 -10 10 -5 0
-10 -4 -10 -10z"/>
<path d="M5164 9188 c71 -64 135 -179 170 -308 23 -82 28 -127 36 -325 13
-293 31 -391 101 -540 32 -68 124 -154 221 -206 94 -51 121 -85 112 -139 -9
-51 -21 -69 -82 -129 -55 -54 -54 -55 7 -14 35 24 91 103 91 128 0 8 3 15 8
15 11 0 31 50 26 65 -9 22 -66 62 -101 69 -17 4 -37 14 -44 22 -6 8 -17 14
-23 14 -17 0 -137 89 -161 119 -11 14 -29 46 -41 71 -31 68 -83 343 -90 480
-1 30 -5 62 -8 70 -8 22 -12 160 -5 163 13 4 -11 130 -42 220 -46 138 -130
253 -196 267 l-35 8 56 -50z"/>
<path d="M1926 9153 c-3 -16 -8 -48 -11 -73 -3 -25 -7 -52 -10 -60 -2 -8 -7
-49 -10 -90 -3 -41 -12 -99 -20 -128 -9 -29 -12 -58 -8 -65 13 -21 64 224 78
371 5 47 3 72 -3 72 -6 0 -13 -12 -16 -27z"/>
<path d="M2407 8981 c-18 -6 -17 -8 3 -31 19 -22 20 -23 11 -3 -9 18 -8 22 7
25 9 2 13 6 7 9 -5 4 -18 4 -28 0z"/>
<path d="M3905 8836 c-18 -13 -18 -14 3 -25 20 -11 22 -9 22 14 0 29 0 29 -25
11z"/>
<path d="M5021 8807 c-12 -67 -51 -189 -81 -252 -253 -532 -276 -576 -342
-651 -32 -36 -58 -61 -59 -57 -4 34 5 110 21 173 41 166 46 282 18 370 -21 64
-48 111 -34 60 36 -139 35 -211 -8 -395 -45 -190 -48 -303 -6 -237 9 14 10 10
5 -18 -3 -19 -8 -55 -11 -80 l-5 -45 17 38 c9 20 22 37 30 37 8 0 11 6 7 17
-4 11 -3 14 5 9 8 -5 12 3 12 23 0 21 5 31 15 31 8 0 15 -6 16 -12 0 -7 4 -4
8 7 6 15 3 23 -10 30 -18 10 -18 11 1 25 10 7 17 17 14 22 -3 4 0 8 6 8 6 0 8
-11 5 -27 -5 -27 -5 -27 6 -5 7 12 15 22 19 22 10 0 20 -37 20 -75 0 -41 34
-148 60 -193 29 -48 40 -88 29 -99 -5 -5 -11 -45 -14 -89 -2 -49 -11 -97 -24
-126 -11 -25 -17 -49 -13 -52 3 -4 20 8 38 25 l33 31 34 -69 35 -69 -8 -220
c-5 -120 -14 -235 -19 -254 -5 -19 -12 -59 -15 -89 -7 -73 11 -54 25 25 5 32
12 68 14 79 21 97 27 160 17 193 -10 30 -9 41 5 62 32 48 11 309 -24 296 -14
-6 -63 67 -63 94 0 11 4 20 9 20 4 0 4 19 -1 43 -14 67 -15 81 -5 94 14 20 -2
99 -24 119 -11 10 -17 25 -14 34 3 10 0 20 -8 23 -20 7 -41 159 -35 253 5 85
12 104 115 327 73 156 83 169 83 102 1 -28 7 -78 14 -112 7 -35 11 -63 9 -63
-3 0 -1 -6 5 -13 6 -7 14 -33 18 -57 4 -25 18 -70 31 -100 49 -109 53 -118 53
-126 0 -14 62 -139 79 -159 10 -11 25 -41 35 -66 9 -26 25 -54 35 -64 19 -16
19 -17 0 -60 -29 -64 -54 -211 -39 -220 12 -7 23 31 24 85 1 25 8 65 15 89 14
50 86 146 110 147 34 2 70 17 87 35 22 24 62 24 94 -1 31 -25 40 -25 40 -2 0
28 -32 52 -69 52 -17 0 -49 9 -69 19 -21 11 -49 17 -63 14 -22 -4 -25 -1 -24
24 1 33 -35 106 -75 148 -30 32 -79 110 -118 190 -13 28 -35 63 -49 79 l-24
29 21 22 c20 21 20 23 4 61 -32 76 -45 206 -29 299 3 22 6 47 6 55 -1 23 -18
126 -20 117z m224 -957 c4 -6 11 -7 17 -4 7 4 8 2 4 -5 -6 -9 -12 -9 -24 1
-10 7 -19 14 -21 15 -2 2 1 3 7 3 6 0 14 -5 17 -10z"/>
<path d="M1854 8678 c3 -18 9 -106 12 -197 4 -92 9 -171 13 -178 9 -16 6 357
-3 385 -11 35 -29 27 -22 -10z"/>
<path d="M1892 8245 c0 -16 2 -22 5 -12 2 9 2 23 0 30 -3 6 -5 -1 -5 -18z"/>
<path d="M1916 8135 c8 -37 14 -45 14 -19 0 10 -5 26 -10 34 -8 11 -9 7 -4
-15z"/>
<path d="M1932 8070 c0 -14 2 -19 5 -12 2 6 2 18 0 25 -3 6 -5 1 -5 -13z"/>
<path d="M1850 8030 c0 -5 5 -10 11 -10 5 0 7 5 4 10 -3 6 -8 10 -11 10 -2 0
-4 -4 -4 -10z"/>
<path d="M1881 8001 c-8 -6 -11 -16 -6 -31 4 -12 11 -58 16 -103 5 -45 12 -99
15 -121 5 -27 3 -37 -5 -32 -14 9 -14 8 6 -72 9 -37 22 -71 29 -75 11 -6 12
-30 8 -105 -7 -124 -6 -144 6 -156 7 -7 8 5 4 34 -5 40 -2 49 24 82 22 28 30
49 30 79 1 23 3 43 6 46 3 3 -6 27 -19 54 -14 26 -31 81 -39 121 -20 100 -40
218 -41 245 -1 29 -16 44 -34 34z"/>
<path d="M4386 7964 c-4 -14 -5 -28 -3 -31 3 -2 8 8 11 23 4 14 5 28 3 31 -3
2 -8 -8 -11 -23z"/>
<path d="M1990 7807 c0 -30 64 -195 89 -226 14 -19 31 -44 38 -55 12 -20 12
-20 13 -2 0 11 -6 27 -13 35 -8 9 -26 48 -41 86 -33 83 -76 175 -82 175 -2 0
-4 -6 -4 -13z"/>
<path d="M4326 7705 c-7 -20 14 -55 33 -55 12 0 12 3 3 12 -7 7 -12 20 -12 29
0 24 -16 33 -24 14z"/>
<path d="M2120 7400 c-7 -14 -28 -38 -47 -53 -45 -38 -62 -74 -78 -165 -11
-65 -11 -82 1 -107 14 -30 14 -29 8 18 -6 53 10 145 30 172 11 16 13 14 13
-14 0 -17 8 -40 17 -50 10 -11 18 -30 17 -43 -5 -173 -8 -191 -24 -203 -23
-17 -21 -37 6 -63 24 -22 62 -33 40 -11 -13 13 6 71 22 65 11 -4 11 -10 -1
-40 -5 -13 -4 -17 3 -13 6 4 14 19 18 34 3 16 17 45 31 65 26 41 29 59 13 89
-15 30 -29 13 -16 -21 9 -24 8 -32 -8 -49 -27 -30 -33 -26 -41 25 -5 37 -3 51
13 72 28 39 34 60 18 66 -8 3 -16 26 -19 53 -4 26 -11 68 -16 92 -11 45 -4 60
27 61 14 0 35 -79 36 -132 1 -44 4 -47 17 -13 11 30 -26 165 -46 165 -7 0 -14
6 -16 12 -3 8 -10 3 -18 -12z"/>
<path d="M5566 7353 c-6 -14 -5 -15 5 -6 7 7 10 15 7 18 -3 3 -9 -2 -12 -12z"/>
<path d="M4861 7314 c0 -11 3 -14 6 -6 3 7 2 16 -1 19 -3 4 -6 -2 -5 -13z"/>
<path d="M5518 7268 c-29 -56 -39 -87 -62 -193 -5 -26 -4 -25 14 10 11 22 20
48 20 57 0 9 6 21 14 25 7 4 20 24 29 43 17 37 33 120 23 120 -3 0 -20 -28
-38 -62z"/>
<path d="M4700 7220 c0 -5 5 -10 10 -10 6 0 10 5 10 10 0 6 -4 10 -10 10 -5 0
-10 -4 -10 -10z"/>
<path d="M1827 7206 c-4 -10 -5 -21 -2 -24 9 -9 17 6 13 25 -3 17 -4 17 -11
-1z"/>
<path d="M4155 7160 c3 -5 8 -10 11 -10 2 0 4 5 4 10 0 6 -5 10 -11 10 -5 0
-7 -4 -4 -10z"/>
<path d="M5403 6958 c-5 -7 -29 -53 -53 -103 -24 -49 -61 -118 -83 -152 -21
-35 -37 -67 -35 -73 3 -10 77 98 95 140 9 22 80 174 90 193 7 12 -4 8 -14 -5z"/>
<path d="M4955 6292 c-36 -46 -39 -55 -17 -41 19 12 47 58 40 64 -2 2 -12 -9
-23 -23z"/>
<path d="M4741 6276 c-37 -39 -136 -103 -184 -120 -25 -8 -61 -26 -82 -40 -21
-15 -44 -26 -51 -26 -16 0 -66 -102 -135 -278 -5 -13 -9 -37 -9 -53 0 -22 -10
-41 -34 -65 -23 -23 -32 -40 -29 -54 5 -18 7 -17 27 10 11 16 34 45 49 64 21
25 32 57 44 118 28 150 57 176 51 46 -3 -58 -10 -97 -26 -130 -12 -26 -22 -51
-22 -57 0 -5 -5 -11 -11 -13 -13 -4 -14 -29 -7 -142 4 -61 9 -82 24 -93 26
-19 52 -16 64 6 13 25 13 51 0 51 -5 0 -10 -7 -10 -15 0 -8 -4 -15 -10 -15 -5
0 -10 11 -10 24 0 13 -10 30 -22 39 -20 13 -23 22 -21 72 2 36 9 65 18 75 48
53 58 91 59 221 2 137 10 162 64 196 15 10 29 20 32 24 3 3 21 11 42 18 80 26
228 125 228 152 0 16 -16 10 -39 -15z"/>
<path d="M4835 6170 c-3 -5 -1 -10 4 -10 6 0 11 5 11 10 0 6 -2 10 -4 10 -3 0
-8 -4 -11 -10z"/>
<path d="M4735 6100 c-3 -6 1 -7 9 -4 18 7 21 14 7 14 -6 0 -13 -4 -16 -10z"/>
<path d="M4576 6062 c-4 -8 -22 -22 -40 -33 l-31 -19 33 3 c39 5 55 18 50 43
-3 15 -5 16 -12 6z"/>
<path d="M4663 6025 c-9 -25 4 -29 17 -6 7 15 7 21 0 21 -6 0 -13 -7 -17 -15z"/>
<path d="M4550 5963 c0 -22 2 -25 10 -13 13 20 13 40 0 40 -5 0 -10 -12 -10
-27z"/>
<path d="M4466 5870 c-10 -54 -30 -120 -47 -154 -32 -65 -33 -83 -2 -39 40 56
86 217 74 259 -7 25 -10 14 -25 -66z"/>
<path d="M4637 5938 c-3 -9 -2 -32 3 -51 4 -20 6 -38 4 -40 -3 -2 -7 -40 -10
-83 -6 -77 -6 -79 12 -61 16 15 19 32 18 110 -1 93 -15 156 -27 125z"/>
<path d="M4567 5851 c4 -44 2 -66 -8 -79 -44 -54 -49 -86 -16 -103 12 -7 28
-19 35 -28 11 -14 13 -14 27 3 17 22 20 40 6 31 -20 -12 -23 17 -20 168 1 23
-5 45 -14 54 -14 14 -15 9 -10 -46z"/>
<path d="M4392 5593 c6 -27 10 -56 10 -65 -1 -10 6 -18 14 -18 16 0 19 36 4
45 -6 4 -8 15 -5 25 6 20 -10 60 -24 60 -5 0 -4 -21 1 -47z"/>
<path d="M3792 4999 c2 -7 10 -15 17 -17 8 -3 12 1 9 9 -2 7 -10 15 -17 17 -8
3 -12 -1 -9 -9z"/>
<path d="M3744 4715 c2 -16 7 -37 10 -45 4 -9 -15 -39 -50 -77 -58 -66 -150
-244 -172 -333 -37 -149 -47 -496 -17 -584 11 -30 15 -83 14 -177 0 -128 -2
-137 -34 -214 -18 -45 -38 -107 -44 -138 -6 -31 -26 -86 -44 -121 -19 -35 -38
-77 -41 -92 -4 -16 -24 -60 -43 -99 -19 -38 -46 -99 -60 -135 -14 -36 -31 -73
-40 -82 -8 -9 -12 -21 -9 -27 4 -5 1 -13 -5 -17 -8 -5 -9 -3 -4 6 6 9 4 11 -4
6 -7 -5 -10 -10 -7 -13 3 -3 -4 -17 -14 -31 -11 -13 -20 -29 -20 -35 0 -5 -20
-28 -45 -52 l-45 -42 36 -69 c19 -38 40 -70 44 -72 5 -2 6 -11 3 -19 -5 -12
-2 -15 10 -10 22 8 23 -24 2 -83 -29 -82 -8 -93 26 -14 14 31 21 76 25 163 5
119 -2 146 -25 102 -6 -10 -24 -21 -42 -23 -24 -4 -33 0 -39 16 -11 27 32 70
61 61 14 -5 22 0 28 17 5 13 7 26 4 31 -8 13 8 47 21 47 8 0 16 -17 20 -39 3
-21 15 -49 26 -62 l21 -24 -7 50 c-3 28 -8 57 -10 67 -3 11 5 20 27 30 36 15
75 82 100 173 9 33 20 70 24 83 11 34 -11 27 -25 -9 -7 -17 -18 -36 -24 -42
-6 -7 -27 -32 -45 -57 -19 -25 -39 -49 -44 -55 -19 -20 5 42 53 135 26 52 53
114 59 138 7 23 15 42 20 42 4 0 8 6 8 13 0 6 12 38 26 70 15 32 27 71 27 88
0 37 28 101 41 93 5 -3 6 3 2 12 -4 12 -3 15 6 10 8 -5 11 -3 10 5 -4 22 23
132 36 149 7 8 13 42 14 75 2 33 5 74 8 90 3 17 6 57 7 90 1 33 5 65 9 72 4 6
7 38 6 71 -1 33 1 65 5 70 10 16 37 328 30 346 -3 9 -2 16 3 16 8 0 23 43 39
113 4 18 13 27 25 27 10 0 20 5 20 10 1 6 2 15 3 21 2 21 38 38 69 32 21 -4
28 -3 23 5 -5 8 0 12 13 12 23 0 34 28 25 64 -5 20 -1 31 13 44 30 26 93 131
83 137 -5 3 -12 -1 -17 -8 -14 -24 -103 -97 -118 -97 -11 0 -13 8 -8 30 3 19
1 30 -6 30 -6 0 -11 15 -11 33 -1 26 -2 29 -11 15 -5 -10 -16 -18 -24 -18 -8
0 -19 8 -25 18 -9 14 -10 12 -6 -13z m-584 -2371 c0 -8 -5 -12 -10 -9 -6 4 -8
11 -5 16 9 14 15 11 15 -7z"/>
<path d="M2221 3524 c-17 -14 -31 -34 -31 -43 0 -39 67 -79 85 -51 3 6 -4 10
-17 10 l-23 1 21 17 c12 10 27 29 34 42 11 20 10 25 -6 37 -24 18 -28 17 -63
-13z"/>
<path d="M2348 3433 c-8 -10 -36 -56 -61 -103 -25 -47 -73 -121 -106 -164 -33
-44 -59 -82 -59 -85 1 -3 -2 -13 -5 -21 -4 -8 -1 -35 7 -60 11 -40 17 -45 44
-48 25 -3 38 3 57 25 25 28 27 49 10 109 -5 17 6 34 55 80 57 55 118 140 107
150 -2 3 -19 -18 -36 -45 -18 -27 -44 -57 -58 -66 -25 -17 -26 -17 -21 6 16
74 36 126 55 148 13 15 32 36 43 49 11 12 20 27 20 32 0 17 -36 11 -52 -7z
m-128 -318 c-5 -6 -8 -36 -7 -67 1 -37 -3 -61 -12 -70 -11 -11 -12 -7 -9 27 6
44 -7 89 -21 80 -16 -9 -23 14 -9 28 15 17 72 19 58 2z"/>
<path d="M2649 3295 c-3 -22 -12 -34 -36 -45 -18 -8 -40 -24 -50 -35 -22 -23
-93 -154 -93 -170 0 -6 -13 -26 -28 -45 -47 -57 -60 -92 -17 -45 20 22 43 56
52 75 40 91 96 172 126 185 39 16 68 62 57 90 -7 17 -8 16 -11 -10z"/>
<path d="M2357 2862 c-5 -25 -12 -30 -54 -38 l-48 -9 2 -49 c1 -27 6 -53 12
-59 8 -8 11 -8 11 1 0 7 10 9 29 6 27 -6 31 -3 45 30 8 20 13 43 9 51 -3 9 0
29 7 46 9 20 10 33 3 40 -7 7 -12 1 -16 -19z"/>
<path d="M3416 2334 c-3 -26 -11 -53 -18 -61 -16 -20 -12 -65 12 -138 25 -75
24 -64 15 -232 -6 -121 -4 -136 14 -179 25 -56 26 -64 6 -64 -10 0 -15 10 -15
28 0 16 -7 37 -15 48 -13 16 -16 17 -25 4 -12 -19 -40 -4 -57 31 -9 19 -7 38
7 94 14 56 17 98 14 208 -3 77 0 155 6 176 5 21 7 52 4 69 l-6 31 -24 -32
c-59 -79 -71 -173 -34 -256 21 -44 26 -81 12 -81 -4 0 -16 19 -27 43 -21 48
-41 55 -87 31 l-29 -15 30 -54 c17 -30 31 -62 31 -70 0 -21 8 -19 46 10 48 37
56 33 48 -22 -3 -27 -10 -56 -15 -65 -5 -9 -9 -25 -9 -36 0 -28 37 -109 74
-162 17 -24 34 -49 38 -54 9 -14 48 22 48 46 0 14 8 18 34 18 25 0 40 7 55 27
33 41 35 68 12 116 -18 37 -20 55 -15 103 9 84 19 93 21 19 1 -49 7 -72 27
-102 20 -31 25 -52 27 -110 2 -63 5 -75 30 -103 23 -25 32 -29 48 -21 27 15
36 39 37 106 0 33 4 79 9 102 6 34 4 47 -12 70 -64 91 -101 207 -104 330 -3
112 -19 92 -19 -24 0 -116 16 -189 48 -225 8 -10 12 -18 8 -18 -10 0 30 -74
48 -89 28 -23 19 -57 -19 -81 -22 -14 -35 -29 -35 -43 0 -12 -4 -28 -9 -35 -5
-8 -8 12 -9 50 -1 46 -8 76 -27 113 -22 43 -24 58 -19 111 4 39 2 75 -6 100
-7 21 -12 66 -11 100 2 68 -19 127 -56 157 -12 10 -25 26 -28 37 -12 38 -25
20 -19 -27 5 -44 4 -47 -10 -29 -8 10 -13 23 -10 28 6 9 -17 68 -27 68 -3 0
-9 -21 -13 -46z m85 -115 c14 -21 23 -50 25 -87 6 -95 5 -248 -2 -276 -4 -18
1 -39 20 -71 15 -25 24 -50 21 -56 -10 -15 -35 9 -28 26 5 14 -26 27 -71 29
-16 1 -22 9 -24 35 -3 30 7 67 64 248 14 43 11 66 -11 93 -13 15 -30 90 -21
90 2 0 15 -14 27 -31z m-247 -201 c14 -56 -4 -62 -22 -8 -9 24 -8 30 2 30 8 0
16 -10 20 -22z m278 -293 c12 -26 4 -46 -11 -29 -5 5 -12 19 -16 32 -9 31 12
29 27 -3z m-105 -67 c12 -25 12 -28 -2 -28 -19 0 -37 43 -28 67 5 14 8 14 11
2 3 -7 11 -26 19 -41z m283 -14 c0 -27 -4 -43 -10 -39 -5 3 -10 24 -10 46 0
21 5 39 10 39 6 0 10 -21 10 -46z"/>
</g>
</svg>
